{"glyphs":{"0":{"ha":814,"x_min":88,"x_max":728,"o":"m 407 -17 q 172 68 256 -17 q 88 306 88 153 l 88 604 q 172 842 88 757 q 407 926 256 926 q 644 842 560 926 q 728 604 728 757 l 728 306 q 644 68 728 153 q 407 -17 560 -17 m 407 106 q 540 156 493 106 q 588 297 588 207 l 588 613 q 540 754 588 704 q 407 804 493 804 q 274 754 321 804 q 226 613 226 704 l 226 297 q 274 156 226 207 q 407 106 321 106 z "},"1":{"ha":647,"x_min":53,"x_max":628,"o":"m 68 0 q 53 15 53 0 l 53 108 q 68 124 53 124 l 282 124 l 282 757 l 78 693 q 63 703 63 688 l 63 799 q 72 814 63 811 l 369 913 q 380 915 375 914 q 390 915 385 915 l 407 915 q 421 901 421 915 l 421 124 l 613 124 q 628 108 628 124 l 628 15 q 613 0 628 0 l 68 0 z "},"2":{"ha":757,"x_min":89,"x_max":678,"o":"m 104 0 q 89 15 89 0 l 89 117 q 113 235 89 183 q 178 327 138 288 q 266 401 218 367 q 362 465 314 435 q 450 526 410 496 q 515 590 490 556 q 539 668 539 625 l 539 696 q 500 778 539 751 q 383 806 461 806 q 270 772 307 806 q 233 679 233 739 q 219 664 233 664 l 113 664 q 99 679 99 664 q 131 815 97 760 q 231 899 164 871 q 396 926 297 926 q 608 867 538 926 q 678 692 678 808 q 653 569 678 621 q 590 479 629 518 q 504 409 551 440 q 410 349 457 378 q 324 290 364 321 q 261 218 285 258 q 238 124 238 178 l 658 124 q 674 108 674 124 l 674 15 q 658 0 674 0 l 104 0 z "},"3":{"ha":769,"x_min":78,"x_max":692,"o":"m 371 -17 q 206 15 271 -17 q 109 102 140 46 q 79 232 78 158 q 93 247 79 247 l 199 247 q 214 232 214 247 q 253 136 214 168 q 371 104 293 104 q 504 141 457 104 q 551 243 551 178 l 551 276 q 376 407 551 407 l 260 407 q 244 422 244 407 l 244 510 q 260 524 244 524 l 372 524 q 491 558 451 524 q 531 660 531 593 l 531 693 q 491 778 531 750 q 372 806 451 806 q 253 776 292 806 q 215 679 215 746 q 200 665 215 665 l 96 665 q 81 679 81 665 q 156 865 81 803 q 383 926 231 926 q 599 869 529 926 q 669 693 669 811 q 633 551 669 606 q 536 476 597 496 l 536 472 q 653 392 614 447 q 692 251 692 338 q 609 52 692 121 q 371 -17 526 -17 z "},"4":{"ha":771,"x_min":13,"x_max":738,"o":"m 501 0 q 486 15 486 0 l 486 172 l 28 172 q 13 188 13 172 l 13 203 q 18 224 13 215 l 382 899 q 401 910 390 910 l 514 910 q 525 893 533 910 l 203 296 l 488 296 l 493 590 q 508 604 493 604 l 608 604 q 622 590 622 604 l 622 296 l 724 296 q 738 282 738 296 l 738 188 q 724 172 738 172 l 622 172 l 622 15 q 608 0 622 0 l 501 0 z "},"5":{"ha":738,"x_min":63,"x_max":672,"o":"m 346 -17 q 190 13 253 -17 q 94 97 126 42 q 64 231 63 153 q 79 246 65 246 l 183 246 q 199 231 199 246 q 238 137 199 169 q 354 104 276 104 q 490 143 449 104 q 532 264 532 182 l 532 301 q 513 394 532 357 q 454 448 494 431 q 351 465 414 465 q 240 452 304 465 q 118 415 176 439 q 98 415 106 410 q 92 432 90 421 l 133 894 q 149 910 136 910 l 601 910 q 617 894 617 910 l 617 801 q 601 786 617 786 l 254 786 l 238 561 q 321 576 282 572 q 393 581 360 581 q 599 508 525 581 q 672 289 672 435 q 589 60 672 138 q 346 -17 506 -17 z "},"6":{"ha":800,"x_min":88,"x_max":725,"o":"m 407 -17 q 171 61 254 -17 q 88 290 88 139 l 88 622 q 173 847 88 767 q 415 926 258 926 q 565 903 501 926 q 663 836 628 881 q 697 726 697 792 q 683 713 697 713 l 578 713 q 563 726 563 713 q 524 786 563 765 q 417 807 485 807 q 274 764 322 807 q 226 629 226 721 l 226 288 q 273 152 226 201 q 406 103 319 103 q 539 151 492 103 q 586 288 586 200 l 586 324 q 549 429 586 394 q 439 464 511 464 q 322 440 382 464 q 206 369 261 415 l 207 481 q 337 555 268 529 q 479 581 406 581 q 663 513 601 581 q 725 314 725 446 q 643 69 725 156 q 407 -17 561 -17 z "},"7":{"ha":747,"x_min":71,"x_max":731,"o":"m 206 0 q 194 6 197 0 q 194 18 192 11 l 544 788 l 208 788 l 208 681 q 193 665 208 665 l 86 665 q 71 681 71 665 l 71 894 q 86 910 71 910 l 715 910 q 731 894 731 910 l 731 888 q 726 865 731 876 l 342 13 q 322 0 336 0 l 206 0 z "},"8":{"ha":808,"x_min":71,"x_max":738,"o":"m 404 -17 q 158 49 244 -17 q 71 246 71 114 q 113 397 71 335 q 229 485 156 458 q 140 560 169 511 q 111 689 111 608 q 187 863 111 800 q 404 926 263 926 q 623 863 547 926 q 699 689 699 800 q 669 560 699 608 q 579 485 639 511 q 695 397 653 458 q 738 246 738 335 q 651 49 738 114 q 404 -17 564 -17 m 404 100 q 550 138 501 100 q 599 244 599 175 l 599 267 q 547 388 599 344 q 404 431 496 431 q 262 388 314 431 q 210 267 210 344 l 210 244 q 258 138 210 175 q 404 100 307 100 m 404 535 q 519 570 479 535 q 560 665 560 606 l 560 686 q 520 778 560 744 q 404 813 481 813 q 289 778 329 813 q 249 686 249 744 l 249 665 q 289 570 249 606 q 404 535 329 535 z "},"9":{"ha":815,"x_min":88,"x_max":728,"o":"m 399 -17 q 182 41 258 -17 q 106 210 106 99 q 121 225 106 225 l 225 225 q 240 210 240 225 q 281 137 240 171 q 399 103 321 103 q 542 150 496 103 q 589 290 589 197 l 589 622 q 540 758 589 710 q 403 807 490 807 q 272 760 317 807 q 226 626 226 714 l 226 578 q 268 478 226 514 q 382 442 310 442 q 497 465 439 442 q 610 536 554 489 l 610 426 q 485 349 546 374 q 351 324 424 324 q 154 397 221 324 q 88 607 88 469 q 169 845 88 764 q 404 926 250 926 q 644 844 561 926 q 728 610 728 761 l 728 300 q 645 64 728 144 q 399 -17 563 -17 z "},"A":{"ha":794,"x_min":-4,"x_max":799,"o":"m 13 0 q 0 17 -4 0 l 304 897 q 321 910 308 910 l 469 910 q 488 897 483 910 l 794 17 q 782 0 799 0 l 663 0 q 644 13 649 0 l 450 613 q 422 699 436 656 q 394 786 408 743 l 392 786 q 365 701 379 743 q 338 615 351 658 l 146 13 q 128 0 142 0 l 13 0 m 183 203 l 214 321 l 574 321 l 606 203 l 183 203 z "},"Á":{"ha":794,"x_min":-4,"x_max":799,"o":"m 13 0 q 0 17 -4 0 l 304 897 q 321 910 308 910 l 469 910 q 488 897 483 910 l 794 17 q 782 0 799 0 l 663 0 q 644 13 649 0 l 450 613 q 422 699 436 656 q 394 786 408 743 l 392 786 q 365 701 379 743 q 338 615 351 658 l 146 13 q 128 0 142 0 l 13 0 m 183 203 l 214 321 l 574 321 l 606 203 l 183 203 m 319 985 q 311 990 313 985 q 313 1000 310 994 l 392 1146 q 408 1157 399 1157 l 521 1157 q 531 1151 528 1157 q 528 1139 533 1146 l 424 994 q 407 985 418 985 l 319 985 z "},"Ă":{"ha":794,"x_min":-4,"x_max":799,"o":"m 13 0 q 0 17 -4 0 l 304 897 q 321 910 308 910 l 469 910 q 488 897 483 910 l 794 17 q 782 0 799 0 l 663 0 q 644 13 649 0 l 450 613 q 422 699 436 656 q 394 786 408 743 l 392 786 q 365 701 379 743 q 338 615 351 658 l 146 13 q 128 0 142 0 l 13 0 m 183 203 l 214 321 l 574 321 l 606 203 l 183 203 m 397 992 q 282 1014 333 992 q 211 1051 231 1036 q 203 1068 203 1058 l 203 1151 q 208 1164 203 1161 q 219 1163 213 1167 q 294 1123 246 1146 q 397 1100 343 1100 q 499 1123 450 1100 q 574 1163 547 1146 q 585 1164 581 1167 q 590 1151 590 1161 l 590 1068 q 582 1051 590 1058 q 511 1014 563 1036 q 397 992 460 992 z "},"Â":{"ha":794,"x_min":-4,"x_max":799,"o":"m 13 0 q 0 17 -4 0 l 304 897 q 321 910 308 910 l 469 910 q 488 897 483 910 l 794 17 q 782 0 799 0 l 663 0 q 644 13 649 0 l 450 613 q 422 699 436 656 q 394 786 408 743 l 392 786 q 365 701 379 743 q 338 615 351 658 l 146 13 q 128 0 142 0 l 13 0 m 183 203 l 214 321 l 574 321 l 606 203 l 183 203 m 215 994 q 199 1004 199 988 l 199 1082 q 208 1097 199 1092 l 386 1176 q 407 1176 396 1182 l 583 1097 q 593 1082 593 1092 l 593 1004 q 576 994 593 988 l 396 1061 l 215 994 z "},"Ä":{"ha":794,"x_min":-4,"x_max":799,"o":"m 13 0 q 0 17 -4 0 l 304 897 q 321 910 308 910 l 469 910 q 488 897 483 910 l 794 17 q 782 0 799 0 l 663 0 q 644 13 649 0 l 450 613 q 422 699 436 656 q 394 786 408 743 l 392 786 q 365 701 379 743 q 338 615 351 658 l 146 13 q 128 0 142 0 l 13 0 m 183 203 l 214 321 l 574 321 l 606 203 l 183 203 m 274 986 q 213 1008 232 986 q 194 1063 194 1029 l 194 1079 q 213 1135 194 1114 q 274 1156 232 1156 q 334 1135 315 1156 q 353 1079 353 1114 l 353 1063 q 334 1008 353 1029 q 274 986 315 986 m 519 986 q 459 1008 478 986 q 440 1063 440 1029 l 440 1079 q 459 1135 440 1114 q 519 1156 478 1156 q 580 1135 561 1156 q 599 1079 599 1114 l 599 1063 q 580 1008 599 1029 q 519 986 561 986 z "},"À":{"ha":794,"x_min":-4,"x_max":799,"o":"m 13 0 q 0 17 -4 0 l 304 897 q 321 910 308 910 l 469 910 q 488 897 483 910 l 794 17 q 782 0 799 0 l 663 0 q 644 13 649 0 l 450 613 q 422 699 436 656 q 394 786 408 743 l 392 786 q 365 701 379 743 q 338 615 351 658 l 146 13 q 128 0 142 0 l 13 0 m 183 203 l 214 321 l 574 321 l 606 203 l 183 203 m 383 985 q 367 994 372 985 l 261 1139 q 259 1151 257 1146 q 268 1157 261 1157 l 382 1157 q 397 1146 393 1157 l 478 1000 q 478 990 481 994 q 469 985 476 985 l 383 985 z "},"Ā":{"ha":794,"x_min":-4,"x_max":799,"o":"m 13 0 q 0 17 -4 0 l 304 897 q 321 910 308 910 l 469 910 q 488 897 483 910 l 794 17 q 782 0 799 0 l 663 0 q 644 13 649 0 l 450 613 q 422 699 436 656 q 394 786 408 743 l 392 786 q 365 701 379 743 q 338 615 351 658 l 146 13 q 128 0 142 0 l 13 0 m 183 203 l 214 321 l 574 321 l 606 203 l 183 203 m 242 996 q 226 1010 226 996 l 226 1092 q 242 1107 226 1107 l 549 1107 q 564 1092 564 1107 l 564 1010 q 549 996 564 996 l 242 996 z "},"Ą":{"ha":794,"x_min":-4,"x_max":799,"o":"m 13 0 q 0 17 -4 0 l 304 897 q 321 910 308 910 l 469 910 q 488 897 483 910 l 794 17 q 782 0 799 0 l 663 0 q 644 13 649 0 l 450 613 q 422 699 436 656 q 394 786 408 743 l 392 786 q 365 701 379 743 q 338 615 351 658 l 146 13 q 128 0 142 0 l 13 0 m 183 203 l 214 321 l 574 321 l 606 203 l 183 203 m 722 -274 q 616 -242 651 -274 q 581 -160 581 -211 l 581 -144 q 626 -37 581 -85 q 749 35 671 10 l 774 18 l 774 3 q 714 -47 735 -17 q 693 -112 693 -78 l 693 -125 q 747 -171 693 -171 q 767 -171 758 -171 q 785 -169 775 -171 q 797 -181 797 -168 l 797 -253 q 795 -263 797 -260 q 785 -268 793 -267 q 753 -272 769 -271 q 722 -274 736 -274 z "},"Å":{"ha":794,"x_min":-4,"x_max":799,"o":"m 794 17 q 782 0 799 0 l 663 0 q 644 13 649 0 l 583 203 l 206 203 l 146 13 q 128 0 142 0 l 13 0 q 0 17 -4 0 l 292 863 q 251 906 265 879 q 238 969 238 933 q 281 1074 238 1039 q 397 1110 324 1110 q 515 1074 471 1110 q 558 969 558 1039 q 544 904 558 932 q 500 861 529 876 l 794 17 m 331 969 q 346 924 331 942 q 397 906 361 906 q 449 924 433 906 q 465 969 465 942 q 449 1015 465 997 q 397 1033 433 1033 q 346 1015 361 1033 q 331 969 331 997 m 243 321 l 544 321 l 450 613 q 422 699 436 656 q 394 786 408 743 l 392 786 q 365 701 379 744 q 338 615 351 658 l 243 321 z "},"Ã":{"ha":794,"x_min":-4,"x_max":799,"o":"m 13 0 q 0 17 -4 0 l 304 897 q 321 910 308 910 l 469 910 q 488 897 483 910 l 794 17 q 782 0 799 0 l 663 0 q 644 13 649 0 l 450 613 q 422 699 436 656 q 394 786 408 743 l 392 786 q 365 701 379 743 q 338 615 351 658 l 146 13 q 128 0 142 0 l 13 0 m 183 203 l 214 321 l 574 321 l 606 203 l 183 203 m 474 997 q 419 1007 443 997 q 371 1025 394 1017 q 318 1033 347 1033 q 262 1024 289 1033 q 218 1007 235 1015 q 200 1017 200 997 l 200 1089 q 208 1108 200 1103 q 253 1131 225 1117 q 321 1144 281 1144 q 384 1135 360 1144 q 430 1117 408 1126 q 478 1107 451 1107 q 533 1116 506 1107 q 576 1135 561 1125 q 594 1125 594 1144 l 594 1053 q 586 1033 594 1042 q 542 1010 571 1024 q 474 997 514 997 z "},"Æ":{"ha":1167,"x_min":-3,"x_max":1074,"o":"m 13 0 q 1 5 4 0 q 1 18 -3 10 l 440 899 q 458 910 446 910 l 1058 910 q 1074 894 1074 910 l 1074 800 q 1058 785 1074 785 l 672 785 l 672 521 l 1025 521 q 1040 507 1040 521 l 1040 417 q 1025 401 1040 401 l 672 401 l 672 125 l 1058 125 q 1074 110 1074 125 l 1074 15 q 1058 0 1074 0 l 549 0 q 533 15 533 0 l 533 203 l 243 203 l 149 11 q 132 0 143 0 l 13 0 m 299 321 l 533 321 l 533 668 q 533 733 533 703 q 535 807 533 764 l 532 807 q 503 740 518 774 q 472 671 488 706 l 299 321 z "},"B":{"ha":806,"x_min":111,"x_max":747,"o":"m 126 0 q 111 15 111 0 l 111 894 q 126 910 111 910 l 386 910 q 628 853 547 910 q 708 683 708 797 q 672 560 708 607 q 556 483 636 513 l 556 481 q 699 406 650 463 q 747 254 747 349 q 660 62 747 124 q 386 0 574 0 l 126 0 m 251 119 l 388 119 q 556 153 506 119 q 607 264 607 186 q 556 378 607 342 q 392 414 504 414 l 251 414 l 251 119 m 251 524 l 381 524 q 523 557 478 524 q 568 661 568 590 q 522 762 568 732 q 369 792 476 792 l 251 792 l 251 524 z "},"C":{"ha":886,"x_min":94,"x_max":810,"o":"m 447 -17 q 185 69 275 -17 q 94 317 94 154 l 94 592 q 185 841 94 756 q 449 926 276 926 q 644 889 561 926 q 769 781 728 851 q 796 614 810 711 q 792 600 794 606 q 781 594 789 594 l 669 594 q 656 610 654 594 q 607 753 660 701 q 450 804 554 804 q 290 750 346 804 q 235 592 235 696 l 235 318 q 290 160 235 214 q 450 106 346 106 q 610 158 556 106 q 656 300 665 210 q 669 315 654 315 l 779 315 q 796 296 793 315 q 763 131 804 201 q 640 22 722 61 q 447 -17 558 -17 z "},"Ć":{"ha":886,"x_min":94,"x_max":810,"o":"m 447 -17 q 185 69 275 -17 q 94 317 94 154 l 94 592 q 185 841 94 756 q 449 926 276 926 q 644 889 561 926 q 769 781 728 851 q 796 614 810 711 q 792 600 794 606 q 781 594 789 594 l 669 594 q 656 610 654 594 q 607 753 660 701 q 450 804 554 804 q 290 750 346 804 q 235 592 235 696 l 235 318 q 290 160 235 214 q 450 106 346 106 q 610 158 556 106 q 656 300 665 210 q 669 315 654 315 l 779 315 q 796 296 793 315 q 763 131 804 201 q 640 22 722 61 q 447 -17 558 -17 m 367 985 q 358 990 360 985 q 360 1000 357 994 l 439 1146 q 456 1157 446 1157 l 568 1157 q 578 1151 575 1157 q 575 1139 581 1146 l 471 994 q 454 985 465 985 l 367 985 z "},"Č":{"ha":886,"x_min":94,"x_max":810,"o":"m 447 -17 q 185 69 275 -17 q 94 317 94 154 l 94 592 q 185 841 94 756 q 449 926 276 926 q 644 889 561 926 q 769 781 728 851 q 796 614 810 711 q 792 600 794 606 q 781 594 789 594 l 669 594 q 656 610 654 594 q 607 753 660 701 q 450 804 554 804 q 290 750 346 804 q 235 592 235 696 l 235 318 q 290 160 235 214 q 450 106 346 106 q 610 158 556 106 q 656 300 665 210 q 669 315 654 315 l 779 315 q 796 296 793 315 q 763 131 804 201 q 640 22 722 61 q 447 -17 558 -17 m 433 994 l 256 1075 q 246 1089 246 1079 l 246 1168 q 263 1176 246 1183 l 443 1110 l 624 1176 q 640 1168 640 1183 l 640 1089 q 631 1075 640 1079 l 454 994 q 433 994 443 990 z "},"Ç":{"ha":886,"x_min":94,"x_max":810,"o":"m 447 -17 q 185 69 275 -17 q 94 317 94 154 l 94 592 q 185 841 94 756 q 449 926 276 926 q 644 889 561 926 q 769 781 728 851 q 796 614 810 711 q 792 600 794 606 q 781 594 789 594 l 669 594 q 656 610 654 594 q 607 753 660 701 q 450 804 554 804 q 290 750 346 804 q 235 592 235 696 l 235 318 q 290 160 235 214 q 450 106 346 106 q 610 158 556 106 q 656 300 665 210 q 669 315 654 315 l 779 315 q 796 296 793 315 q 763 131 804 201 q 640 22 722 61 q 447 -17 558 -17 m 431 -274 q 400 -272 415 -274 q 368 -268 385 -271 q 357 -256 357 -267 l 357 -199 q 368 -187 357 -186 q 390 -190 378 -189 q 408 -190 401 -190 q 451 -181 438 -190 q 464 -158 464 -172 l 464 -142 q 452 -115 464 -122 q 418 -107 440 -107 l 386 -107 q 376 -97 376 -107 q 377 -83 376 -90 q 379 -69 378 -75 l 413 36 q 425 46 415 46 l 501 46 q 508 31 514 46 l 482 -54 l 494 -54 q 551 -78 532 -54 q 571 -142 571 -101 l 571 -164 q 537 -247 571 -219 q 431 -274 503 -274 z "},"Ċ":{"ha":886,"x_min":94,"x_max":810,"o":"m 447 -17 q 185 69 275 -17 q 94 317 94 154 l 94 592 q 185 841 94 756 q 449 926 276 926 q 644 889 561 926 q 769 781 728 851 q 796 614 810 711 q 792 600 794 606 q 781 594 789 594 l 669 594 q 656 610 654 594 q 607 753 660 701 q 450 804 554 804 q 290 750 346 804 q 235 592 235 696 l 235 318 q 290 160 235 214 q 450 106 346 106 q 610 158 556 106 q 656 300 665 210 q 669 315 654 315 l 779 315 q 796 296 793 315 q 763 131 804 201 q 640 22 722 61 q 447 -17 558 -17 m 443 1006 q 379 1028 400 1006 q 358 1088 358 1051 l 358 1104 q 379 1163 358 1140 q 443 1186 400 1186 q 508 1163 488 1186 q 528 1104 528 1140 l 528 1088 q 508 1028 528 1051 q 443 1006 488 1006 z "},"D":{"ha":896,"x_min":111,"x_max":811,"o":"m 126 0 q 111 15 111 0 l 111 894 q 126 910 111 910 l 386 910 q 706 810 600 910 q 811 510 811 711 l 811 435 q 706 108 811 215 q 386 0 601 0 l 126 0 m 251 119 l 376 119 q 599 195 528 119 q 671 429 671 271 l 671 515 q 599 723 671 656 q 376 790 528 790 l 251 790 l 251 119 z "},"Ð":{"ha":896,"x_min":4,"x_max":811,"o":"m 19 406 q 4 421 4 406 l 4 501 q 19 517 4 517 l 111 517 l 438 517 q 451 501 451 517 l 451 421 q 438 406 451 406 l 19 406 m 126 0 q 111 15 111 0 l 111 894 q 126 910 111 910 l 386 910 q 706 810 600 910 q 811 510 811 711 l 811 435 q 706 108 811 215 q 386 0 601 0 l 126 0 m 251 119 l 376 119 q 599 195 528 119 q 671 429 671 271 l 671 515 q 599 723 671 656 q 376 790 528 790 l 251 790 l 251 119 z "},"Ď":{"ha":896,"x_min":111,"x_max":811,"o":"m 126 0 q 111 15 111 0 l 111 894 q 126 910 111 910 l 386 910 q 706 810 600 910 q 811 510 811 711 l 811 435 q 706 108 811 215 q 386 0 601 0 l 126 0 m 251 119 l 376 119 q 599 195 528 119 q 671 429 671 271 l 671 515 q 599 723 671 656 q 376 790 528 790 l 251 790 l 251 119 m 399 994 l 221 1075 q 211 1089 211 1079 l 211 1168 q 228 1176 211 1183 l 408 1110 l 589 1176 q 606 1168 606 1183 l 606 1089 q 596 1075 606 1079 l 419 994 q 399 994 408 990 z "},"Đ":{"ha":896,"x_min":4,"x_max":811,"o":"m 19 406 q 4 421 4 406 l 4 501 q 19 517 4 517 l 111 517 l 438 517 q 451 501 451 517 l 451 421 q 438 406 451 406 l 19 406 m 126 0 q 111 15 111 0 l 111 894 q 126 910 111 910 l 386 910 q 706 810 600 910 q 811 510 811 711 l 811 435 q 706 108 811 215 q 386 0 601 0 l 126 0 m 251 119 l 376 119 q 599 195 528 119 q 671 429 671 271 l 671 515 q 599 723 671 656 q 376 790 528 790 l 251 790 l 251 119 z "},"E":{"ha":744,"x_min":111,"x_max":651,"o":"m 126 0 q 111 15 111 0 l 111 894 q 126 910 111 910 l 638 910 q 651 894 651 910 l 651 800 q 638 785 651 785 l 251 785 l 251 521 l 604 521 q 618 507 618 521 l 618 417 q 604 401 618 401 l 251 401 l 251 125 l 638 125 q 651 110 651 125 l 651 15 q 638 0 651 0 l 126 0 z "},"É":{"ha":744,"x_min":111,"x_max":651,"o":"m 126 0 q 111 15 111 0 l 111 894 q 126 910 111 910 l 638 910 q 651 894 651 910 l 651 800 q 638 785 651 785 l 251 785 l 251 521 l 604 521 q 618 507 618 521 l 618 417 q 604 401 618 401 l 251 401 l 251 125 l 638 125 q 651 110 651 125 l 651 15 q 638 0 651 0 l 126 0 m 311 985 q 303 990 304 985 q 304 1000 301 994 l 383 1146 q 400 1157 390 1157 l 513 1157 q 522 1151 519 1157 q 519 1139 525 1146 l 415 994 q 399 985 410 985 l 311 985 z "},"Ě":{"ha":744,"x_min":111,"x_max":651,"o":"m 126 0 q 111 15 111 0 l 111 894 q 126 910 111 910 l 638 910 q 651 894 651 910 l 651 800 q 638 785 651 785 l 251 785 l 251 521 l 604 521 q 618 507 618 521 l 618 417 q 604 401 618 401 l 251 401 l 251 125 l 638 125 q 651 110 651 125 l 651 15 q 638 0 651 0 l 126 0 m 378 994 l 200 1075 q 190 1089 190 1079 l 190 1168 q 207 1176 190 1183 l 388 1110 l 568 1176 q 585 1168 585 1183 l 585 1089 q 575 1075 585 1079 l 399 994 q 378 994 388 990 z "},"Ê":{"ha":744,"x_min":111,"x_max":651,"o":"m 126 0 q 111 15 111 0 l 111 894 q 126 910 111 910 l 638 910 q 651 894 651 910 l 651 800 q 638 785 651 785 l 251 785 l 251 521 l 604 521 q 618 507 618 521 l 618 417 q 604 401 618 401 l 251 401 l 251 125 l 638 125 q 651 110 651 125 l 651 15 q 638 0 651 0 l 126 0 m 207 994 q 190 1004 190 988 l 190 1082 q 200 1097 190 1092 l 378 1176 q 399 1176 388 1182 l 575 1097 q 585 1082 585 1092 l 585 1004 q 568 994 585 988 l 388 1061 l 207 994 z "},"Ë":{"ha":744,"x_min":111,"x_max":651,"o":"m 126 0 q 111 15 111 0 l 111 894 q 126 910 111 910 l 638 910 q 651 894 651 910 l 651 800 q 638 785 651 785 l 251 785 l 251 521 l 604 521 q 618 507 618 521 l 618 417 q 604 401 618 401 l 251 401 l 251 125 l 638 125 q 651 110 651 125 l 651 15 q 638 0 651 0 l 126 0 m 264 986 q 203 1008 222 986 q 185 1063 185 1029 l 185 1079 q 203 1135 185 1114 q 264 1156 222 1156 q 324 1135 306 1156 q 343 1079 343 1114 l 343 1063 q 324 1008 343 1029 q 264 986 306 986 m 510 986 q 449 1008 468 986 q 431 1063 431 1029 l 431 1079 q 449 1135 431 1114 q 510 1156 468 1156 q 570 1135 551 1156 q 589 1079 589 1114 l 589 1063 q 570 1008 589 1029 q 510 986 551 986 z "},"Ė":{"ha":744,"x_min":111,"x_max":651,"o":"m 126 0 q 111 15 111 0 l 111 894 q 126 910 111 910 l 638 910 q 651 894 651 910 l 651 800 q 638 785 651 785 l 251 785 l 251 521 l 604 521 q 618 507 618 521 l 618 417 q 604 401 618 401 l 251 401 l 251 125 l 638 125 q 651 110 651 125 l 651 15 q 638 0 651 0 l 126 0 m 388 1006 q 324 1028 344 1006 q 303 1088 303 1051 l 303 1104 q 324 1163 303 1140 q 388 1186 344 1186 q 452 1163 432 1186 q 472 1104 472 1140 l 472 1088 q 452 1028 472 1051 q 388 1006 432 1006 z "},"È":{"ha":744,"x_min":111,"x_max":651,"o":"m 126 0 q 111 15 111 0 l 111 894 q 126 910 111 910 l 638 910 q 651 894 651 910 l 651 800 q 638 785 651 785 l 251 785 l 251 521 l 604 521 q 618 507 618 521 l 618 417 q 604 401 618 401 l 251 401 l 251 125 l 638 125 q 651 110 651 125 l 651 15 q 638 0 651 0 l 126 0 m 375 985 q 358 994 364 985 l 253 1139 q 251 1151 249 1146 q 260 1157 253 1157 l 374 1157 q 389 1146 385 1157 l 469 1000 q 470 990 472 994 q 461 985 468 985 l 375 985 z "},"Ē":{"ha":744,"x_min":111,"x_max":651,"o":"m 126 0 q 111 15 111 0 l 111 894 q 126 910 111 910 l 638 910 q 651 894 651 910 l 651 800 q 638 785 651 785 l 251 785 l 251 521 l 604 521 q 618 507 618 521 l 618 417 q 604 401 618 401 l 251 401 l 251 125 l 638 125 q 651 110 651 125 l 651 15 q 638 0 651 0 l 126 0 m 233 996 q 218 1010 218 996 l 218 1092 q 233 1107 218 1107 l 540 1107 q 556 1092 556 1107 l 556 1010 q 540 996 556 996 l 233 996 z "},"Ę":{"ha":744,"x_min":111,"x_max":651,"o":"m 126 0 q 111 15 111 0 l 111 894 q 126 910 111 910 l 638 910 q 651 894 651 910 l 651 800 q 638 785 651 785 l 251 785 l 251 521 l 604 521 q 618 507 618 521 l 618 417 q 604 401 618 401 l 251 401 l 251 125 l 638 125 q 651 110 651 125 l 651 15 q 638 0 651 0 l 126 0 m 557 -274 q 451 -242 486 -274 q 415 -160 415 -211 l 415 -144 q 460 -37 415 -85 q 583 35 506 10 l 608 18 l 608 3 q 549 -47 569 -17 q 528 -112 528 -78 l 528 -125 q 582 -171 528 -171 q 601 -171 593 -171 q 619 -169 610 -171 q 632 -181 632 -168 l 632 -253 q 630 -263 632 -260 q 619 -268 628 -267 q 588 -272 604 -271 q 557 -274 571 -274 z "},"F":{"ha":707,"x_min":111,"x_max":651,"o":"m 126 0 q 111 15 111 0 l 111 894 q 126 910 111 910 l 638 910 q 651 894 651 910 l 651 800 q 638 785 651 785 l 251 785 l 251 508 l 585 508 q 599 493 599 508 l 599 401 q 585 388 599 388 l 251 388 l 251 15 q 236 0 251 0 l 126 0 z "},"G":{"ha":911,"x_min":94,"x_max":813,"o":"m 425 -17 q 249 22 322 -17 q 135 136 175 61 q 94 317 94 211 l 94 593 q 190 839 94 751 q 451 926 285 926 q 649 889 567 926 q 770 783 731 851 q 796 625 810 715 q 781 610 794 610 l 669 611 q 656 626 654 611 q 638 723 660 683 q 570 783 615 763 q 454 804 525 804 q 290 751 346 804 q 235 592 235 699 l 235 318 q 288 158 235 211 q 449 106 342 106 q 612 158 556 106 q 668 307 668 210 l 668 357 l 464 357 q 449 371 449 357 l 449 454 q 464 469 449 469 l 785 469 q 800 454 800 469 l 800 189 q 802 101 800 144 q 810 17 804 57 q 808 4 813 8 q 797 0 804 0 l 707 0 q 697 3 701 0 q 692 13 693 6 q 685 53 688 31 q 682 100 683 75 l 681 100 q 617 35 656 61 q 531 -3 579 10 q 425 -17 482 -17 z "},"Ğ":{"ha":911,"x_min":94,"x_max":813,"o":"m 425 -17 q 249 22 322 -17 q 135 136 175 61 q 94 317 94 211 l 94 593 q 190 839 94 751 q 451 926 285 926 q 649 889 567 926 q 770 783 731 851 q 796 625 810 715 q 781 610 794 610 l 669 611 q 656 626 654 611 q 638 723 660 683 q 570 783 615 763 q 454 804 525 804 q 290 751 346 804 q 235 592 235 699 l 235 318 q 288 158 235 211 q 449 106 342 106 q 612 158 556 106 q 668 307 668 210 l 668 357 l 464 357 q 449 371 449 357 l 449 454 q 464 469 449 469 l 785 469 q 800 454 800 469 l 800 189 q 802 101 800 144 q 810 17 804 57 q 808 4 813 8 q 797 0 804 0 l 707 0 q 697 3 701 0 q 692 13 693 6 q 685 53 688 31 q 682 100 683 75 l 681 100 q 617 35 656 61 q 531 -3 579 10 q 425 -17 482 -17 m 438 992 q 322 1014 374 992 q 251 1051 271 1036 q 243 1068 243 1058 l 243 1151 q 248 1164 243 1161 q 260 1163 253 1167 q 335 1123 286 1146 q 438 1100 383 1100 q 539 1123 490 1100 q 614 1163 588 1146 q 626 1164 621 1167 q 631 1151 631 1161 l 631 1068 q 622 1051 631 1058 q 551 1014 603 1036 q 438 992 500 992 z "},"Ģ":{"ha":911,"x_min":94,"x_max":813,"o":"m 425 -17 q 249 22 322 -17 q 135 136 175 61 q 94 317 94 211 l 94 593 q 190 839 94 751 q 451 926 285 926 q 649 889 567 926 q 770 783 731 851 q 796 625 810 715 q 781 610 794 610 l 669 611 q 656 626 654 611 q 638 723 660 683 q 570 783 615 763 q 454 804 525 804 q 290 751 346 804 q 235 592 235 699 l 235 318 q 288 158 235 211 q 449 106 342 106 q 612 158 556 106 q 668 307 668 210 l 668 357 l 464 357 q 449 371 449 357 l 449 454 q 464 469 449 469 l 785 469 q 800 454 800 469 l 800 189 q 802 101 800 144 q 810 17 804 57 q 808 4 813 8 q 797 0 804 0 l 707 0 q 697 3 701 0 q 692 13 693 6 q 685 53 688 31 q 682 100 683 75 l 681 100 q 617 35 656 61 q 531 -3 579 10 q 425 -17 482 -17 m 406 -331 q 396 -318 394 -331 l 417 -224 q 386 -201 396 -217 q 376 -162 376 -186 l 376 -139 q 395 -92 376 -108 q 444 -75 414 -75 q 501 -92 483 -75 q 519 -139 519 -108 l 519 -164 q 517 -199 519 -182 q 507 -235 514 -217 l 479 -322 q 464 -331 475 -331 l 406 -331 z "},"Ġ":{"ha":911,"x_min":94,"x_max":813,"o":"m 425 -17 q 249 22 322 -17 q 135 136 175 61 q 94 317 94 211 l 94 593 q 190 839 94 751 q 451 926 285 926 q 649 889 567 926 q 770 783 731 851 q 796 625 810 715 q 781 610 794 610 l 669 611 q 656 626 654 611 q 638 723 660 683 q 570 783 615 763 q 454 804 525 804 q 290 751 346 804 q 235 592 235 699 l 235 318 q 288 158 235 211 q 449 106 342 106 q 612 158 556 106 q 668 307 668 210 l 668 357 l 464 357 q 449 371 449 357 l 449 454 q 464 469 449 469 l 785 469 q 800 454 800 469 l 800 189 q 802 101 800 144 q 810 17 804 57 q 808 4 813 8 q 797 0 804 0 l 707 0 q 697 3 701 0 q 692 13 693 6 q 685 53 688 31 q 682 100 683 75 l 681 100 q 617 35 656 61 q 531 -3 579 10 q 425 -17 482 -17 m 436 1006 q 372 1028 393 1006 q 351 1088 351 1051 l 351 1104 q 372 1163 351 1140 q 436 1186 393 1186 q 501 1163 481 1186 q 521 1104 521 1140 l 521 1088 q 501 1028 521 1051 q 436 1006 481 1006 z "},"H":{"ha":922,"x_min":111,"x_max":811,"o":"m 126 0 q 111 15 111 0 l 111 894 q 126 910 111 910 l 236 910 q 251 894 251 910 l 251 528 l 671 528 l 671 894 q 686 910 671 910 l 797 910 q 811 894 811 910 l 811 15 q 797 0 811 0 l 686 0 q 671 15 671 0 l 671 406 l 251 406 l 251 15 q 236 0 251 0 l 126 0 z "},"Ħ":{"ha":922,"x_min":33,"x_max":889,"o":"m 49 710 q 33 724 33 710 l 33 801 q 49 817 33 817 l 874 817 q 889 801 889 817 l 889 724 q 874 710 889 710 l 811 710 l 111 710 l 49 710 m 126 0 q 111 15 111 0 l 111 894 q 126 910 111 910 l 236 910 q 251 894 251 910 l 251 528 l 671 528 l 671 894 q 686 910 671 910 l 797 910 q 811 894 811 910 l 811 15 q 797 0 811 0 l 686 0 q 671 15 671 0 l 671 406 l 251 406 l 251 15 q 236 0 251 0 l 126 0 z "},"I":{"ha":363,"x_min":111,"x_max":251,"o":"m 126 0 q 111 15 111 0 l 111 894 q 126 910 111 910 l 236 910 q 251 894 251 910 l 251 15 q 236 0 251 0 l 126 0 z "},"Ĳ":{"ha":738,"x_min":111,"x_max":626,"o":"m 126 0 q 111 15 111 0 l 111 894 q 126 910 111 910 l 236 910 q 251 894 251 910 l 251 15 q 236 0 251 0 l 126 0 m 414 -201 q 381 -193 385 -207 l 353 -97 q 376 -75 347 -82 q 460 -12 432 -61 q 488 121 488 38 l 488 894 q 503 910 488 910 l 613 910 q 628 894 628 910 l 628 128 q 574 -97 628 -15 q 414 -201 519 -178 z "},"Í":{"ha":363,"x_min":96,"x_max":318,"o":"m 126 0 q 111 15 111 0 l 111 894 q 126 910 111 910 l 236 910 q 251 894 251 910 l 251 15 q 236 0 251 0 l 126 0 m 106 985 q 97 990 99 985 q 99 1000 96 994 l 178 1146 q 194 1157 185 1157 l 307 1157 q 317 1151 314 1157 q 314 1139 319 1146 l 210 994 q 193 985 204 985 l 106 985 z "},"Î":{"ha":363,"x_min":-15,"x_max":379,"o":"m 126 0 q 111 15 111 0 l 111 894 q 126 910 111 910 l 236 910 q 251 894 251 910 l 251 15 q 236 0 251 0 l 126 0 m 1 994 q -15 1004 -15 988 l -15 1082 q -6 1097 -15 1092 l 172 1176 q 193 1176 182 1182 l 369 1097 q 379 1082 379 1092 l 379 1004 q 363 994 379 988 l 182 1061 l 1 994 z "},"Ï":{"ha":363,"x_min":-19,"x_max":383,"o":"m 126 0 q 111 15 111 0 l 111 894 q 126 910 111 910 l 236 910 q 251 894 251 910 l 251 15 q 236 0 251 0 l 126 0 m 60 986 q -1 1008 18 986 q -19 1063 -19 1029 l -19 1079 q -1 1135 -19 1114 q 60 1156 18 1156 q 120 1135 101 1156 q 139 1079 139 1114 l 139 1063 q 120 1008 139 1029 q 60 986 101 986 m 306 986 q 245 1008 264 986 q 226 1063 226 1029 l 226 1079 q 245 1135 226 1114 q 306 1156 264 1156 q 366 1135 347 1156 q 385 1079 385 1114 l 385 1063 q 366 1008 385 1029 q 306 986 347 986 z "},"İ":{"ha":363,"x_min":97,"x_max":267,"o":"m 126 0 q 111 15 111 0 l 111 894 q 126 910 111 910 l 236 910 q 251 894 251 910 l 251 15 q 236 0 251 0 l 126 0 m 182 1006 q 118 1028 139 1006 q 97 1088 97 1051 l 97 1104 q 118 1163 97 1140 q 182 1186 139 1186 q 247 1163 226 1186 q 267 1104 267 1140 l 267 1088 q 247 1028 267 1051 q 182 1006 226 1006 z "},"Ì":{"ha":363,"x_min":43,"x_max":267,"o":"m 126 0 q 111 15 111 0 l 111 894 q 126 910 111 910 l 236 910 q 251 894 251 910 l 251 15 q 236 0 251 0 l 126 0 m 169 985 q 153 994 158 985 l 47 1139 q 45 1151 43 1146 q 54 1157 47 1157 l 168 1157 q 183 1146 179 1157 l 264 1000 q 265 990 267 994 q 256 985 263 985 l 169 985 z "},"Ī":{"ha":363,"x_min":13,"x_max":350,"o":"m 126 0 q 111 15 111 0 l 111 894 q 126 910 111 910 l 236 910 q 251 894 251 910 l 251 15 q 236 0 251 0 l 126 0 m 28 996 q 13 1010 13 996 l 13 1092 q 28 1107 13 1107 l 335 1107 q 350 1092 350 1107 l 350 1010 q 335 996 350 996 l 28 996 z "},"Į":{"ha":363,"x_min":47,"x_max":264,"o":"m 126 0 q 111 15 111 0 l 111 894 q 126 910 111 910 l 236 910 q 251 894 251 910 l 251 15 q 236 0 251 0 l 126 0 m 189 -274 q 83 -242 118 -274 q 47 -160 47 -211 l 47 -144 q 92 -37 47 -85 q 215 35 138 10 l 240 18 l 240 3 q 181 -47 201 -17 q 160 -112 160 -78 l 160 -125 q 214 -171 160 -171 q 233 -171 225 -171 q 251 -169 242 -171 q 264 -181 264 -168 l 264 -253 q 262 -263 264 -260 q 251 -268 260 -267 q 219 -272 236 -271 q 189 -274 203 -274 z "},"J":{"ha":376,"x_min":-15,"x_max":265,"o":"m 51 -201 q 18 -193 22 -207 l -10 -97 q 14 -75 -15 -82 q 97 -12 69 -61 q 125 121 125 38 l 125 894 q 140 910 125 910 l 250 910 q 265 894 265 910 l 265 128 q 211 -97 265 -15 q 51 -201 157 -178 z "},"K":{"ha":839,"x_min":111,"x_max":822,"o":"m 126 0 q 111 15 111 0 l 111 894 q 126 910 111 910 l 236 910 q 251 894 251 910 l 251 640 q 251 556 251 599 q 249 474 250 514 l 250 474 q 311 546 281 510 q 374 618 342 582 l 624 901 q 642 910 629 910 l 782 910 q 794 905 790 910 q 790 892 799 900 l 474 540 l 818 18 q 819 5 822 10 q 808 0 817 0 l 669 0 q 651 10 658 0 l 378 432 l 251 293 l 251 15 q 236 0 251 0 l 126 0 z "},"Ķ":{"ha":839,"x_min":111,"x_max":822,"o":"m 126 0 q 111 15 111 0 l 111 894 q 126 910 111 910 l 236 910 q 251 894 251 910 l 251 640 q 251 556 251 599 q 249 474 250 514 l 250 474 q 311 546 281 510 q 374 618 342 582 l 624 901 q 642 910 629 910 l 782 910 q 794 905 790 910 q 790 892 799 900 l 474 540 l 818 18 q 819 5 822 10 q 808 0 817 0 l 669 0 q 651 10 658 0 l 378 432 l 251 293 l 251 15 q 236 0 251 0 l 126 0 m 401 -331 q 392 -318 390 -331 l 413 -224 q 382 -201 392 -217 q 372 -162 372 -186 l 372 -139 q 391 -92 372 -108 q 440 -75 410 -75 q 497 -92 479 -75 q 515 -139 515 -108 l 515 -164 q 513 -199 515 -182 q 503 -235 510 -217 l 475 -322 q 460 -331 471 -331 l 401 -331 z "},"L":{"ha":668,"x_min":111,"x_max":642,"o":"m 126 0 q 111 15 111 0 l 111 894 q 126 910 111 910 l 238 910 q 251 894 251 910 l 251 125 l 626 125 q 642 110 642 125 l 642 15 q 626 0 642 0 l 126 0 z "},"Ĺ":{"ha":668,"x_min":94,"x_max":642,"o":"m 126 0 q 111 15 111 0 l 111 894 q 126 910 111 910 l 238 910 q 251 894 251 910 l 251 125 l 626 125 q 642 110 642 125 l 642 15 q 626 0 642 0 l 126 0 m 104 985 q 96 990 97 985 q 97 1000 94 994 l 176 1146 q 193 1157 183 1157 l 306 1157 q 315 1151 313 1157 q 313 1139 318 1146 l 208 994 q 192 985 203 985 l 104 985 z "},"Ľ":{"ha":668,"x_min":111,"x_max":642,"o":"m 126 0 q 111 15 111 0 l 111 894 q 126 910 111 910 l 238 910 q 251 894 251 910 l 251 125 l 626 125 q 642 110 642 125 l 642 15 q 626 0 642 0 l 126 0 m 399 693 q 386 708 383 693 l 406 786 q 375 806 385 793 q 365 840 365 818 l 365 874 q 383 912 365 897 q 432 926 401 926 q 485 912 468 926 q 503 874 503 897 l 503 839 q 501 807 503 822 q 492 775 499 792 l 467 704 q 450 693 463 693 l 399 693 z "},"Ļ":{"ha":668,"x_min":111,"x_max":642,"o":"m 126 0 q 111 15 111 0 l 111 894 q 126 910 111 910 l 238 910 q 251 894 251 910 l 251 125 l 626 125 q 642 110 642 125 l 642 15 q 626 0 642 0 l 126 0 m 342 -331 q 332 -318 331 -331 l 353 -224 q 322 -201 332 -217 q 313 -162 313 -186 l 313 -139 q 331 -92 313 -108 q 381 -75 350 -75 q 438 -92 419 -75 q 456 -139 456 -108 l 456 -164 q 453 -199 456 -182 q 443 -235 450 -217 l 415 -322 q 400 -331 411 -331 l 342 -331 z "},"Ł":{"ha":668,"x_min":-15,"x_max":642,"o":"m 3 361 q -15 372 -15 354 l -15 461 q -3 478 -15 474 l 421 643 q 439 631 439 650 l 439 543 q 426 526 439 531 l 3 361 m 126 0 q 111 15 111 0 l 111 894 q 126 910 111 910 l 238 910 q 251 894 251 910 l 251 125 l 626 125 q 642 110 642 125 l 642 15 q 626 0 642 0 l 126 0 z "},"M":{"ha":1078,"x_min":90,"x_max":988,"o":"m 106 0 q 90 15 90 0 l 110 894 q 125 910 110 910 l 286 910 q 303 899 297 910 l 540 371 l 775 899 q 792 910 781 910 l 954 910 q 968 894 968 910 l 988 15 q 974 0 988 0 l 865 0 q 851 15 851 0 l 838 524 q 839 629 836 576 q 843 735 842 682 l 839 735 q 795 631 818 683 q 747 526 772 578 l 557 119 q 540 110 553 110 l 536 110 q 519 119 525 110 l 328 532 q 283 633 304 582 q 240 735 261 685 l 238 735 q 241 632 240 685 q 240 528 242 579 l 228 15 q 213 0 228 0 l 106 0 z "},"N":{"ha":924,"x_min":111,"x_max":814,"o":"m 126 0 q 111 15 111 0 l 111 894 q 126 910 111 910 l 303 910 q 321 899 317 910 l 565 406 q 610 314 590 356 q 647 235 631 272 q 676 163 663 197 l 679 163 q 678 243 679 200 q 677 330 678 286 q 676 411 676 374 l 676 894 q 690 910 676 910 l 799 910 q 814 894 814 910 l 814 15 q 799 0 814 0 l 624 0 q 607 11 611 0 l 368 490 q 326 578 346 535 q 286 663 306 621 q 249 746 267 706 l 246 746 q 248 656 247 700 q 249 569 249 613 q 249 479 249 526 l 249 15 q 233 0 249 0 l 126 0 z "},"Ń":{"ha":924,"x_min":111,"x_max":814,"o":"m 126 0 q 111 15 111 0 l 111 894 q 126 910 111 910 l 303 910 q 321 899 317 910 l 565 406 q 610 314 590 356 q 647 235 631 272 q 676 163 663 197 l 679 163 q 678 243 679 200 q 677 330 678 286 q 676 411 676 374 l 676 894 q 690 910 676 910 l 799 910 q 814 894 814 910 l 814 15 q 799 0 814 0 l 624 0 q 607 11 611 0 l 368 490 q 326 578 346 535 q 286 663 306 621 q 249 746 267 706 l 246 746 q 248 656 247 700 q 249 569 249 613 q 249 479 249 526 l 249 15 q 233 0 249 0 l 126 0 m 386 985 q 378 990 379 985 q 379 1000 376 994 l 458 1146 q 475 1157 465 1157 l 588 1157 q 597 1151 594 1157 q 594 1139 600 1146 l 490 994 q 474 985 485 985 l 386 985 z "},"Ň":{"ha":924,"x_min":111,"x_max":814,"o":"m 126 0 q 111 15 111 0 l 111 894 q 126 910 111 910 l 303 910 q 321 899 317 910 l 565 406 q 610 314 590 356 q 647 235 631 272 q 676 163 663 197 l 679 163 q 678 243 679 200 q 677 330 678 286 q 676 411 676 374 l 676 894 q 690 910 676 910 l 799 910 q 814 894 814 910 l 814 15 q 799 0 814 0 l 624 0 q 607 11 611 0 l 368 490 q 326 578 346 535 q 286 663 306 621 q 249 746 267 706 l 246 746 q 248 656 247 700 q 249 569 249 613 q 249 479 249 526 l 249 15 q 233 0 249 0 l 126 0 m 453 994 l 275 1075 q 265 1089 265 1079 l 265 1168 q 282 1176 265 1183 l 463 1110 l 643 1176 q 660 1168 660 1183 l 660 1089 q 650 1075 660 1079 l 474 994 q 453 994 463 990 z "},"Ņ":{"ha":924,"x_min":111,"x_max":814,"o":"m 126 0 q 111 15 111 0 l 111 894 q 126 910 111 910 l 303 910 q 321 899 317 910 l 565 406 q 610 314 590 356 q 647 235 631 272 q 676 163 663 197 l 679 163 q 678 243 679 200 q 677 330 678 286 q 676 411 676 374 l 676 894 q 690 910 676 910 l 799 910 q 814 894 814 910 l 814 15 q 799 0 814 0 l 624 0 q 607 11 611 0 l 368 490 q 326 578 346 535 q 286 663 306 621 q 249 746 267 706 l 246 746 q 248 656 247 700 q 249 569 249 613 q 249 479 249 526 l 249 15 q 233 0 249 0 l 126 0 m 419 -331 q 410 -318 408 -331 l 431 -224 q 400 -201 410 -217 q 390 -162 390 -186 l 390 -139 q 409 -92 390 -108 q 458 -75 428 -75 q 515 -92 497 -75 q 533 -139 533 -108 l 533 -164 q 531 -199 533 -182 q 521 -235 528 -217 l 493 -322 q 478 -331 489 -331 l 419 -331 z "},"Ŋ":{"ha":924,"x_min":111,"x_max":814,"o":"m 624 -260 l 558 -181 q 556 -167 553 -174 q 571 -156 558 -161 q 632 -90 607 -131 q 667 0 657 -49 l 624 0 q 607 11 611 0 l 368 490 q 326 578 346 535 q 286 663 306 621 q 249 746 267 706 l 246 746 q 248 656 247 700 q 249 569 249 613 q 249 479 249 526 l 249 15 q 233 0 249 0 l 126 0 q 111 15 111 0 l 111 894 q 126 910 111 910 l 303 910 q 321 899 317 910 l 565 406 q 610 314 590 356 q 647 235 631 272 q 676 163 663 197 l 679 163 q 678 243 679 200 q 677 330 678 286 q 676 411 676 374 l 676 894 q 690 910 676 910 l 799 910 q 814 894 814 910 l 814 92 q 797 -58 814 8 q 745 -174 779 -125 q 658 -256 711 -222 q 636 -265 643 -264 q 624 -260 629 -265 z "},"Ñ":{"ha":924,"x_min":111,"x_max":814,"o":"m 126 0 q 111 15 111 0 l 111 894 q 126 910 111 910 l 303 910 q 321 899 317 910 l 565 406 q 610 314 590 356 q 647 235 631 272 q 676 163 663 197 l 679 163 q 678 243 679 200 q 677 330 678 286 q 676 411 676 374 l 676 894 q 690 910 676 910 l 799 910 q 814 894 814 910 l 814 15 q 799 0 814 0 l 624 0 q 607 11 611 0 l 368 490 q 326 578 346 535 q 286 663 306 621 q 249 746 267 706 l 246 746 q 248 656 247 700 q 249 569 249 613 q 249 479 249 526 l 249 15 q 233 0 249 0 l 126 0 m 540 997 q 485 1007 510 997 q 438 1025 461 1017 q 385 1033 414 1033 q 328 1024 356 1033 q 285 1007 301 1015 q 267 1017 267 997 l 267 1089 q 275 1108 267 1103 q 319 1131 292 1117 q 388 1144 347 1144 q 451 1135 426 1144 q 497 1117 475 1126 q 544 1107 518 1107 q 600 1116 572 1107 q 643 1135 628 1125 q 661 1125 661 1144 l 661 1053 q 653 1033 661 1042 q 609 1010 638 1024 q 540 997 581 997 z "},"O":{"ha":897,"x_min":94,"x_max":803,"o":"m 449 -17 q 183 70 271 -17 q 94 317 94 157 l 94 593 q 183 840 94 754 q 449 926 271 926 q 715 840 626 926 q 803 593 803 754 l 803 317 q 715 70 803 157 q 449 -17 626 -17 m 449 107 q 608 162 554 107 q 663 321 663 217 l 663 589 q 608 749 663 694 q 449 803 554 803 q 290 749 344 803 q 235 589 235 694 l 235 321 q 290 162 235 217 q 449 107 344 107 z "},"Ó":{"ha":897,"x_min":94,"x_max":803,"o":"m 449 -17 q 183 70 271 -17 q 94 317 94 157 l 94 593 q 183 840 94 754 q 449 926 271 926 q 715 840 626 926 q 803 593 803 754 l 803 317 q 715 70 803 157 q 449 -17 626 -17 m 449 107 q 608 162 554 107 q 663 321 663 217 l 663 589 q 608 749 663 694 q 449 803 554 803 q 290 749 344 803 q 235 589 235 694 l 235 321 q 290 162 235 217 q 449 107 344 107 m 372 985 q 364 990 365 985 q 365 1000 363 994 l 444 1146 q 461 1157 451 1157 l 574 1157 q 583 1151 581 1157 q 581 1139 586 1146 l 476 994 q 460 985 471 985 l 372 985 z "},"Ô":{"ha":897,"x_min":94,"x_max":803,"o":"m 449 -17 q 183 70 271 -17 q 94 317 94 157 l 94 593 q 183 840 94 754 q 449 926 271 926 q 715 840 626 926 q 803 593 803 754 l 803 317 q 715 70 803 157 q 449 -17 626 -17 m 449 107 q 608 162 554 107 q 663 321 663 217 l 663 589 q 608 749 663 694 q 449 803 554 803 q 290 749 344 803 q 235 589 235 694 l 235 321 q 290 162 235 217 q 449 107 344 107 m 268 994 q 251 1004 251 988 l 251 1082 q 261 1097 251 1092 l 439 1176 q 460 1176 449 1182 l 636 1097 q 646 1082 646 1092 l 646 1004 q 629 994 646 988 l 449 1061 l 268 994 z "},"Ö":{"ha":897,"x_min":94,"x_max":803,"o":"m 449 -17 q 183 70 271 -17 q 94 317 94 157 l 94 593 q 183 840 94 754 q 449 926 271 926 q 715 840 626 926 q 803 593 803 754 l 803 317 q 715 70 803 157 q 449 -17 626 -17 m 449 107 q 608 162 554 107 q 663 321 663 217 l 663 589 q 608 749 663 694 q 449 803 554 803 q 290 749 344 803 q 235 589 235 694 l 235 321 q 290 162 235 217 q 449 107 344 107 m 326 986 q 266 1008 285 986 q 247 1063 247 1029 l 247 1079 q 266 1135 247 1114 q 326 1156 285 1156 q 387 1135 368 1156 q 406 1079 406 1114 l 406 1063 q 387 1008 406 1029 q 326 986 368 986 m 572 986 q 512 1008 531 986 q 493 1063 493 1029 l 493 1079 q 512 1135 493 1114 q 572 1156 531 1156 q 633 1135 614 1156 q 651 1079 651 1114 l 651 1063 q 633 1008 651 1029 q 572 986 614 986 z "},"Ò":{"ha":897,"x_min":94,"x_max":803,"o":"m 449 -17 q 183 70 271 -17 q 94 317 94 157 l 94 593 q 183 840 94 754 q 449 926 271 926 q 715 840 626 926 q 803 593 803 754 l 803 317 q 715 70 803 157 q 449 -17 626 -17 m 449 107 q 608 162 554 107 q 663 321 663 217 l 663 589 q 608 749 663 694 q 449 803 554 803 q 290 749 344 803 q 235 589 235 694 l 235 321 q 290 162 235 217 q 449 107 344 107 m 436 985 q 419 994 425 985 l 314 1139 q 312 1151 310 1146 q 321 1157 314 1157 l 435 1157 q 450 1146 446 1157 l 531 1000 q 531 990 533 994 q 522 985 529 985 l 436 985 z "},"Ő":{"ha":897,"x_min":94,"x_max":803,"o":"m 449 -17 q 183 70 271 -17 q 94 317 94 157 l 94 593 q 183 840 94 754 q 449 926 271 926 q 715 840 626 926 q 803 593 803 754 l 803 317 q 715 70 803 157 q 449 -17 626 -17 m 449 107 q 608 162 554 107 q 663 321 663 217 l 663 589 q 608 749 663 694 q 449 803 554 803 q 290 749 344 803 q 235 589 235 694 l 235 321 q 290 162 235 217 q 449 107 344 107 m 500 985 q 490 1001 483 985 l 551 1144 q 569 1157 557 1157 l 669 1157 q 679 1139 689 1157 l 601 996 q 583 985 594 985 l 500 985 m 290 985 q 281 1001 274 985 l 342 1144 q 360 1157 347 1157 l 460 1157 q 469 1139 479 1157 l 392 996 q 374 985 385 985 l 290 985 z "},"Ō":{"ha":897,"x_min":94,"x_max":803,"o":"m 449 -17 q 183 70 271 -17 q 94 317 94 157 l 94 593 q 183 840 94 754 q 449 926 271 926 q 715 840 626 926 q 803 593 803 754 l 803 317 q 715 70 803 157 q 449 -17 626 -17 m 449 107 q 608 162 554 107 q 663 321 663 217 l 663 589 q 608 749 663 694 q 449 803 554 803 q 290 749 344 803 q 235 589 235 694 l 235 321 q 290 162 235 217 q 449 107 344 107 m 294 996 q 279 1010 279 996 l 279 1092 q 294 1107 279 1107 l 601 1107 q 617 1092 617 1107 l 617 1010 q 601 996 617 996 l 294 996 z "},"Ø":{"ha":897,"x_min":63,"x_max":835,"o":"m 76 -69 q 65 -65 68 -69 q 67 -51 63 -60 l 178 124 l 231 203 l 604 801 l 635 860 l 703 969 q 721 979 710 979 l 821 979 q 833 974 831 979 q 831 961 835 969 l 719 783 l 671 711 l 300 121 l 264 51 l 194 -60 q 176 -69 189 -69 l 76 -69 m 449 -17 q 183 70 271 -17 q 94 317 94 157 l 94 593 q 183 840 94 754 q 449 926 271 926 q 715 840 626 926 q 803 593 803 754 l 803 317 q 715 70 803 157 q 449 -17 626 -17 m 449 107 q 608 162 554 107 q 663 321 663 217 l 663 589 q 608 749 663 694 q 449 803 554 803 q 290 749 344 803 q 235 589 235 694 l 235 321 q 290 162 235 217 q 449 107 344 107 z "},"Õ":{"ha":897,"x_min":94,"x_max":803,"o":"m 449 -17 q 183 70 271 -17 q 94 317 94 157 l 94 593 q 183 840 94 754 q 449 926 271 926 q 715 840 626 926 q 803 593 803 754 l 803 317 q 715 70 803 157 q 449 -17 626 -17 m 449 107 q 608 162 554 107 q 663 321 663 217 l 663 589 q 608 749 663 694 q 449 803 554 803 q 290 749 344 803 q 235 589 235 694 l 235 321 q 290 162 235 217 q 449 107 344 107 m 526 997 q 472 1007 496 997 q 424 1025 447 1017 q 371 1033 400 1033 q 315 1024 342 1033 q 271 1007 288 1015 q 253 1017 253 997 l 253 1089 q 261 1108 253 1103 q 306 1131 278 1117 q 374 1144 333 1144 q 437 1135 413 1144 q 483 1117 461 1126 q 531 1107 504 1107 q 586 1116 558 1107 q 629 1135 614 1125 q 647 1125 647 1144 l 647 1053 q 639 1033 647 1042 q 595 1010 624 1024 q 526 997 567 997 z "},"Œ":{"ha":1221,"x_min":94,"x_max":1128,"o":"m 449 -17 q 183 71 271 -17 q 94 317 94 158 l 94 593 q 183 839 94 751 q 449 926 271 926 q 524 922 483 926 q 592 910 564 918 l 1113 910 q 1128 894 1128 910 l 1128 800 q 1113 785 1128 785 l 726 785 l 726 521 l 1079 521 q 1094 507 1094 521 l 1094 417 q 1079 401 1094 401 l 726 401 l 726 125 l 1113 125 q 1128 110 1128 125 l 1128 15 q 1113 0 1128 0 l 592 0 q 524 -12 564 -8 q 449 -17 485 -17 m 450 106 q 524 109 488 106 q 586 118 561 113 l 586 790 q 524 801 561 797 q 450 804 488 804 q 290 749 344 804 q 235 592 235 694 l 235 318 q 290 160 235 215 q 450 106 344 106 z "},"P":{"ha":765,"x_min":111,"x_max":714,"o":"m 126 0 q 111 15 111 0 l 111 894 q 126 910 111 910 l 369 910 q 628 836 543 910 q 714 621 714 763 q 627 406 714 479 q 369 332 540 332 l 251 332 l 251 15 q 236 0 251 0 l 126 0 m 251 450 l 367 450 q 524 490 474 450 q 574 617 574 531 q 523 749 574 708 q 365 790 472 790 l 251 790 l 251 450 z "},"Þ":{"ha":765,"x_min":111,"x_max":714,"o":"m 126 0 q 111 15 111 0 l 111 894 q 126 910 111 910 l 236 910 q 251 894 251 910 l 251 761 l 369 761 q 628 688 543 761 q 714 471 714 614 q 627 257 714 331 q 369 183 540 183 l 251 183 l 251 15 q 236 0 251 0 l 126 0 m 251 301 l 367 301 q 524 342 474 301 q 574 468 574 382 q 523 601 574 560 q 365 642 472 642 l 251 642 l 251 301 z "},"Q":{"ha":897,"x_min":94,"x_max":803,"o":"m 621 -253 q 515 -221 558 -253 q 452 -122 472 -189 q 436 50 432 -54 q 450 64 436 64 l 549 60 q 564 44 564 60 q 581 -92 561 -51 q 647 -133 600 -133 q 669 -131 658 -133 q 692 -126 681 -128 q 704 -128 700 -124 q 708 -139 708 -132 l 708 -224 q 693 -242 708 -236 q 660 -249 681 -246 q 621 -253 640 -253 m 449 -17 q 183 70 271 -17 q 94 317 94 157 l 94 593 q 183 840 94 754 q 449 926 271 926 q 715 840 626 926 q 803 593 803 754 l 803 317 q 715 70 803 157 q 449 -17 626 -17 m 449 107 q 608 162 554 107 q 663 321 663 217 l 663 589 q 608 749 663 694 q 449 803 554 803 q 290 749 344 803 q 235 589 235 694 l 235 321 q 290 162 235 217 q 449 107 344 107 z "},"R":{"ha":844,"x_min":111,"x_max":792,"o":"m 126 0 q 111 15 111 0 l 111 894 q 126 910 111 910 l 404 910 q 657 844 576 910 q 738 651 738 779 q 692 487 738 553 q 558 396 646 421 l 558 394 l 788 18 q 789 6 792 11 q 776 0 786 0 l 649 0 q 631 10 636 0 l 411 376 l 251 376 l 251 15 q 236 0 251 0 l 126 0 m 251 488 l 394 488 q 549 525 501 488 q 597 644 597 563 q 553 757 597 724 q 403 790 508 790 l 251 790 l 251 488 z "},"Ŕ":{"ha":844,"x_min":111,"x_max":792,"o":"m 126 0 q 111 15 111 0 l 111 894 q 126 910 111 910 l 404 910 q 657 844 576 910 q 738 651 738 779 q 692 487 738 553 q 558 396 646 421 l 558 394 l 788 18 q 789 6 792 11 q 776 0 786 0 l 649 0 q 631 10 636 0 l 411 376 l 251 376 l 251 15 q 236 0 251 0 l 126 0 m 251 488 l 394 488 q 549 525 501 488 q 597 644 597 563 q 553 757 597 724 q 403 790 508 790 l 251 790 l 251 488 m 310 985 q 301 990 303 985 q 303 1000 300 994 l 382 1146 q 399 1157 389 1157 l 511 1157 q 521 1151 518 1157 q 518 1139 524 1146 l 414 994 q 397 985 408 985 l 310 985 z "},"Ř":{"ha":844,"x_min":111,"x_max":792,"o":"m 126 0 q 111 15 111 0 l 111 894 q 126 910 111 910 l 404 910 q 657 844 576 910 q 738 651 738 779 q 692 487 738 553 q 558 396 646 421 l 558 394 l 788 18 q 789 6 792 11 q 776 0 786 0 l 649 0 q 631 10 636 0 l 411 376 l 251 376 l 251 15 q 236 0 251 0 l 126 0 m 251 488 l 394 488 q 549 525 501 488 q 597 644 597 563 q 553 757 597 724 q 403 790 508 790 l 251 790 l 251 488 m 376 994 l 199 1075 q 189 1089 189 1079 l 189 1168 q 206 1176 189 1183 l 386 1110 l 567 1176 q 583 1168 583 1183 l 583 1089 q 574 1075 583 1079 l 397 994 q 376 994 386 990 z "},"Ŗ":{"ha":844,"x_min":111,"x_max":792,"o":"m 126 0 q 111 15 111 0 l 111 894 q 126 910 111 910 l 404 910 q 657 844 576 910 q 738 651 738 779 q 692 487 738 553 q 558 396 646 421 l 558 394 l 788 18 q 789 6 792 11 q 776 0 786 0 l 649 0 q 631 10 636 0 l 411 376 l 251 376 l 251 15 q 236 0 251 0 l 126 0 m 251 488 l 394 488 q 549 525 501 488 q 597 644 597 563 q 553 757 597 724 q 403 790 508 790 l 251 790 l 251 488 m 382 -331 q 372 -318 371 -331 l 393 -224 q 363 -201 372 -217 q 353 -162 353 -186 l 353 -139 q 372 -92 353 -108 q 421 -75 390 -75 q 478 -92 460 -75 q 496 -139 496 -108 l 496 -164 q 493 -199 496 -182 q 483 -235 490 -217 l 456 -322 q 440 -331 451 -331 l 382 -331 z "},"S":{"ha":792,"x_min":57,"x_max":721,"o":"m 386 -17 q 136 55 215 -17 q 67 247 57 126 q 85 271 68 271 l 192 271 q 208 250 208 271 q 254 139 208 174 q 396 104 300 104 q 534 136 488 104 q 581 233 581 168 q 570 288 581 265 q 533 329 560 311 q 464 365 507 347 l 260 450 q 155 511 194 478 q 98 588 115 544 q 81 686 81 631 q 159 864 82 803 q 385 925 236 925 q 562 896 488 925 q 673 810 636 867 q 703 669 710 753 q 686 644 700 644 l 578 644 q 567 650 571 644 q 565 669 564 656 q 521 769 569 733 q 382 806 472 806 q 263 777 303 806 q 221 692 222 749 q 232 639 221 661 q 269 597 243 617 q 342 558 296 578 l 543 474 q 648 414 608 447 q 704 338 688 381 q 721 233 721 294 q 640 49 721 115 q 386 -17 560 -17 z "},"Ś":{"ha":792,"x_min":57,"x_max":721,"o":"m 386 -17 q 136 55 215 -17 q 67 247 57 126 q 85 271 68 271 l 192 271 q 208 250 208 271 q 254 139 208 174 q 396 104 300 104 q 534 136 488 104 q 581 233 581 168 q 570 288 581 265 q 533 329 560 311 q 464 365 507 347 l 260 450 q 155 511 194 478 q 98 588 115 544 q 81 686 81 631 q 159 864 82 803 q 385 925 236 925 q 562 896 488 925 q 673 810 636 867 q 703 669 710 753 q 686 644 700 644 l 578 644 q 567 650 571 644 q 565 669 564 656 q 521 769 569 733 q 382 806 472 806 q 263 777 303 806 q 221 692 222 749 q 232 639 221 661 q 269 597 243 617 q 342 558 296 578 l 543 474 q 648 414 608 447 q 704 338 688 381 q 721 233 721 294 q 640 49 721 115 q 386 -17 560 -17 m 314 985 q 306 990 307 985 q 307 1000 304 994 l 386 1146 q 403 1157 393 1157 l 515 1157 q 525 1151 522 1157 q 522 1139 528 1146 l 418 994 q 401 985 413 985 l 314 985 z "},"Š":{"ha":792,"x_min":57,"x_max":721,"o":"m 386 -17 q 136 55 215 -17 q 67 247 57 126 q 85 271 68 271 l 192 271 q 208 250 208 271 q 254 139 208 174 q 396 104 300 104 q 534 136 488 104 q 581 233 581 168 q 570 288 581 265 q 533 329 560 311 q 464 365 507 347 l 260 450 q 155 511 194 478 q 98 588 115 544 q 81 686 81 631 q 159 864 82 803 q 385 925 236 925 q 562 896 488 925 q 673 810 636 867 q 703 669 710 753 q 686 644 700 644 l 578 644 q 567 650 571 644 q 565 669 564 656 q 521 769 569 733 q 382 806 472 806 q 263 777 303 806 q 221 692 222 749 q 232 639 221 661 q 269 597 243 617 q 342 558 296 578 l 543 474 q 648 414 608 447 q 704 338 688 381 q 721 233 721 294 q 640 49 721 115 q 386 -17 560 -17 m 382 994 l 204 1075 q 194 1089 194 1079 l 194 1168 q 211 1176 194 1183 l 392 1110 l 572 1176 q 589 1168 589 1183 l 589 1089 q 579 1075 589 1079 l 403 994 q 382 994 392 990 z "},"Ş":{"ha":792,"x_min":57,"x_max":721,"o":"m 386 -17 q 136 55 215 -17 q 67 247 57 126 q 85 271 68 271 l 192 271 q 208 250 208 271 q 254 139 208 174 q 396 104 300 104 q 534 136 488 104 q 581 233 581 168 q 570 288 581 265 q 533 329 560 311 q 464 365 507 347 l 260 450 q 155 511 194 478 q 98 588 115 544 q 81 686 81 631 q 159 864 82 803 q 385 925 236 925 q 562 896 488 925 q 673 810 636 867 q 703 669 710 753 q 686 644 700 644 l 578 644 q 567 650 571 644 q 565 669 564 656 q 521 769 569 733 q 382 806 472 806 q 263 777 303 806 q 221 692 222 749 q 232 639 221 661 q 269 597 243 617 q 342 558 296 578 l 543 474 q 648 414 608 447 q 704 338 688 381 q 721 233 721 294 q 640 49 721 115 q 386 -17 560 -17 m 372 -274 q 342 -272 357 -274 q 310 -268 326 -271 q 299 -256 299 -267 l 299 -199 q 310 -187 299 -186 q 331 -190 319 -189 q 350 -190 343 -190 q 392 -181 379 -190 q 406 -158 406 -172 l 406 -142 q 394 -115 406 -122 q 360 -107 382 -107 l 328 -107 q 318 -97 318 -107 q 319 -83 318 -90 q 321 -69 319 -75 l 354 36 q 367 46 357 46 l 443 46 q 450 31 456 46 l 424 -54 l 436 -54 q 493 -78 474 -54 q 513 -142 513 -101 l 513 -164 q 478 -247 513 -219 q 372 -274 444 -274 z "},"Ș":{"ha":792,"x_min":57,"x_max":721,"o":"m 386 -17 q 136 55 215 -17 q 67 247 57 126 q 85 271 68 271 l 192 271 q 208 250 208 271 q 254 139 208 174 q 396 104 300 104 q 534 136 488 104 q 581 233 581 168 q 570 288 581 265 q 533 329 560 311 q 464 365 507 347 l 260 450 q 155 511 194 478 q 98 588 115 544 q 81 686 81 631 q 159 864 82 803 q 385 925 236 925 q 562 896 488 925 q 673 810 636 867 q 703 669 710 753 q 686 644 700 644 l 578 644 q 567 650 571 644 q 565 669 564 656 q 521 769 569 733 q 382 806 472 806 q 263 777 303 806 q 221 692 222 749 q 232 639 221 661 q 269 597 243 617 q 342 558 296 578 l 543 474 q 648 414 608 447 q 704 338 688 381 q 721 233 721 294 q 640 49 721 115 q 386 -17 560 -17 m 363 -331 q 353 -318 351 -331 l 374 -224 q 343 -201 353 -217 q 333 -162 333 -186 l 333 -139 q 352 -92 333 -108 q 401 -75 371 -75 q 458 -92 440 -75 q 476 -139 476 -108 l 476 -164 q 474 -199 476 -182 q 464 -235 471 -217 l 436 -322 q 421 -331 432 -331 l 363 -331 z "},"ẞ":{"ha":913,"x_min":111,"x_max":857,"o":"m 563 -17 q 423 8 478 -17 q 342 79 368 33 q 321 186 317 125 q 327 205 322 201 q 340 208 332 208 l 440 208 q 456 185 456 208 q 483 126 456 146 q 564 106 510 106 q 678 147 640 106 q 715 272 715 188 q 669 402 715 363 q 517 442 624 442 l 443 442 q 428 457 428 442 l 428 511 q 433 531 428 521 l 588 783 l 251 783 l 251 15 q 236 0 251 0 l 126 0 q 111 15 111 0 l 111 894 q 126 910 111 910 l 781 910 q 795 899 792 910 q 792 876 799 889 l 592 551 q 791 472 725 540 q 856 274 857 403 q 780 57 856 131 q 563 -17 704 -17 z "},"T":{"ha":749,"x_min":44,"x_max":706,"o":"m 319 0 q 304 15 304 0 l 304 785 l 60 785 q 44 800 44 785 l 44 894 q 60 910 44 910 l 690 910 q 706 894 706 910 l 706 800 q 690 785 706 785 l 444 785 l 444 15 q 429 0 444 0 l 319 0 z "},"Ŧ":{"ha":749,"x_min":44,"x_max":706,"o":"m 169 408 q 154 424 154 408 l 154 499 q 169 514 154 514 l 581 514 q 594 499 594 514 l 594 424 q 581 408 594 408 l 444 408 l 304 408 l 169 408 m 319 0 q 304 15 304 0 l 304 785 l 60 785 q 44 800 44 785 l 44 894 q 60 910 44 910 l 690 910 q 706 894 706 910 l 706 800 q 690 785 706 785 l 444 785 l 444 15 q 429 0 444 0 l 319 0 z "},"Ť":{"ha":749,"x_min":44,"x_max":706,"o":"m 319 0 q 304 15 304 0 l 304 785 l 60 785 q 44 800 44 785 l 44 894 q 60 910 44 910 l 690 910 q 706 894 706 910 l 706 800 q 690 785 706 785 l 444 785 l 444 15 q 429 0 444 0 l 319 0 m 367 994 l 189 1075 q 179 1089 179 1079 l 179 1168 q 196 1176 179 1183 l 376 1110 l 557 1176 q 574 1168 574 1183 l 574 1089 q 564 1075 574 1079 l 388 994 q 367 994 376 990 z "},"Ţ":{"ha":749,"x_min":44,"x_max":706,"o":"m 319 0 q 304 15 304 0 l 304 785 l 60 785 q 44 800 44 785 l 44 894 q 60 910 44 910 l 690 910 q 706 894 706 910 l 706 800 q 690 785 706 785 l 444 785 l 444 15 q 429 0 444 0 l 319 0 m 342 -274 q 311 -272 326 -274 q 279 -268 296 -271 q 268 -256 268 -267 l 268 -199 q 279 -187 268 -186 q 301 -190 289 -189 q 319 -190 313 -190 q 362 -181 349 -190 q 375 -158 375 -172 l 375 -142 q 363 -115 375 -122 q 329 -107 351 -107 l 297 -107 q 288 -97 288 -107 q 288 -83 288 -90 q 290 -69 289 -75 l 324 36 q 336 46 326 46 l 413 46 q 419 31 425 46 l 393 -54 l 406 -54 q 463 -78 443 -54 q 482 -142 482 -101 l 482 -164 q 448 -247 482 -219 q 342 -274 414 -274 z "},"Ț":{"ha":749,"x_min":44,"x_max":706,"o":"m 319 0 q 304 15 304 0 l 304 785 l 60 785 q 44 800 44 785 l 44 894 q 60 910 44 910 l 690 910 q 706 894 706 910 l 706 800 q 690 785 706 785 l 444 785 l 444 15 q 429 0 444 0 l 319 0 m 332 -331 q 322 -318 321 -331 l 343 -224 q 313 -201 322 -217 q 303 -162 303 -186 l 303 -139 q 322 -92 303 -108 q 371 -75 340 -75 q 428 -92 410 -75 q 446 -139 446 -108 l 446 -164 q 443 -199 446 -182 q 433 -235 440 -217 l 406 -322 q 390 -331 401 -331 l 332 -331 z "},"U":{"ha":899,"x_min":104,"x_max":796,"o":"m 450 -17 q 194 69 283 -17 q 104 318 104 154 l 104 894 q 119 910 104 910 l 229 910 q 244 894 244 910 l 244 318 q 297 161 244 217 q 450 106 349 106 q 603 161 551 106 q 656 318 656 217 l 656 894 q 669 910 656 910 l 781 910 q 796 894 796 910 l 796 317 q 704 71 796 158 q 450 -17 613 -17 z "},"Ú":{"ha":899,"x_min":104,"x_max":796,"o":"m 450 -17 q 194 69 283 -17 q 104 318 104 154 l 104 894 q 119 910 104 910 l 229 910 q 244 894 244 910 l 244 318 q 297 161 244 217 q 450 106 349 106 q 603 161 551 106 q 656 318 656 217 l 656 894 q 669 910 656 910 l 781 910 q 796 894 796 910 l 796 317 q 704 71 796 158 q 450 -17 613 -17 m 374 985 q 365 990 367 985 q 367 1000 364 994 l 446 1146 q 463 1157 453 1157 l 575 1157 q 585 1151 582 1157 q 582 1139 588 1146 l 478 994 q 461 985 472 985 l 374 985 z "},"Û":{"ha":899,"x_min":104,"x_max":796,"o":"m 450 -17 q 194 69 283 -17 q 104 318 104 154 l 104 894 q 119 910 104 910 l 229 910 q 244 894 244 910 l 244 318 q 297 161 244 217 q 450 106 349 106 q 603 161 551 106 q 656 318 656 217 l 656 894 q 669 910 656 910 l 781 910 q 796 894 796 910 l 796 317 q 704 71 796 158 q 450 -17 613 -17 m 269 994 q 253 1004 253 988 l 253 1082 q 263 1097 253 1092 l 440 1176 q 461 1176 450 1182 l 638 1097 q 647 1082 647 1092 l 647 1004 q 631 994 647 988 l 450 1061 l 269 994 z "},"Ü":{"ha":899,"x_min":104,"x_max":796,"o":"m 450 -17 q 194 69 283 -17 q 104 318 104 154 l 104 894 q 119 910 104 910 l 229 910 q 244 894 244 910 l 244 318 q 297 161 244 217 q 450 106 349 106 q 603 161 551 106 q 656 318 656 217 l 656 894 q 669 910 656 910 l 781 910 q 796 894 796 910 l 796 317 q 704 71 796 158 q 450 -17 613 -17 m 326 986 q 266 1008 285 986 q 247 1063 247 1029 l 247 1079 q 266 1135 247 1114 q 326 1156 285 1156 q 387 1135 368 1156 q 406 1079 406 1114 l 406 1063 q 387 1008 406 1029 q 326 986 368 986 m 572 986 q 512 1008 531 986 q 493 1063 493 1029 l 493 1079 q 512 1135 493 1114 q 572 1156 531 1156 q 633 1135 614 1156 q 651 1079 651 1114 l 651 1063 q 633 1008 651 1029 q 572 986 614 986 z "},"Ù":{"ha":899,"x_min":104,"x_max":796,"o":"m 450 -17 q 194 69 283 -17 q 104 318 104 154 l 104 894 q 119 910 104 910 l 229 910 q 244 894 244 910 l 244 318 q 297 161 244 217 q 450 106 349 106 q 603 161 551 106 q 656 318 656 217 l 656 894 q 669 910 656 910 l 781 910 q 796 894 796 910 l 796 317 q 704 71 796 158 q 450 -17 613 -17 m 438 985 q 421 994 426 985 l 315 1139 q 313 1151 311 1146 q 322 1157 315 1157 l 436 1157 q 451 1146 447 1157 l 532 1000 q 533 990 535 994 q 524 985 531 985 l 438 985 z "},"Ű":{"ha":899,"x_min":104,"x_max":796,"o":"m 450 -17 q 194 69 283 -17 q 104 318 104 154 l 104 894 q 119 910 104 910 l 229 910 q 244 894 244 910 l 244 318 q 297 161 244 217 q 450 106 349 106 q 603 161 551 106 q 656 318 656 217 l 656 894 q 669 910 656 910 l 781 910 q 796 894 796 910 l 796 317 q 704 71 796 158 q 450 -17 613 -17 m 501 985 q 492 1001 485 985 l 553 1144 q 571 1157 558 1157 l 671 1157 q 681 1139 690 1157 l 603 996 q 585 985 596 985 l 501 985 m 292 985 q 282 1001 275 985 l 343 1144 q 361 1157 349 1157 l 461 1157 q 471 1139 481 1157 l 393 996 q 375 985 386 985 l 292 985 z "},"Ū":{"ha":899,"x_min":104,"x_max":796,"o":"m 450 -17 q 194 69 283 -17 q 104 318 104 154 l 104 894 q 119 910 104 910 l 229 910 q 244 894 244 910 l 244 318 q 297 161 244 217 q 450 106 349 106 q 603 161 551 106 q 656 318 656 217 l 656 894 q 669 910 656 910 l 781 910 q 796 894 796 910 l 796 317 q 704 71 796 158 q 450 -17 613 -17 m 296 996 q 281 1010 281 996 l 281 1092 q 296 1107 281 1107 l 603 1107 q 618 1092 618 1107 l 618 1010 q 603 996 618 996 l 296 996 z "},"Ų":{"ha":899,"x_min":104,"x_max":796,"o":"m 450 -17 q 194 69 283 -17 q 104 318 104 154 l 104 894 q 119 910 104 910 l 229 910 q 244 894 244 910 l 244 318 q 297 161 244 217 q 450 106 349 106 q 603 161 551 106 q 656 318 656 217 l 656 894 q 669 910 656 910 l 781 910 q 796 894 796 910 l 796 317 q 704 71 796 158 q 450 -17 613 -17 m 533 -274 q 427 -242 463 -274 q 392 -160 392 -211 l 392 -144 q 437 -37 392 -85 q 560 35 482 10 l 585 18 l 585 3 q 525 -47 546 -17 q 504 -112 504 -78 l 504 -125 q 558 -171 504 -171 q 578 -171 569 -171 q 596 -169 586 -171 q 608 -181 608 -168 l 608 -253 q 606 -263 608 -260 q 596 -268 604 -267 q 564 -272 581 -271 q 533 -274 547 -274 z "},"Ů":{"ha":899,"x_min":104,"x_max":796,"o":"m 450 -17 q 194 69 283 -17 q 104 318 104 154 l 104 894 q 119 910 104 910 l 229 910 q 244 894 244 910 l 244 318 q 297 161 244 217 q 450 106 349 106 q 603 161 551 106 q 656 318 656 217 l 656 894 q 669 910 656 910 l 781 910 q 796 894 796 910 l 796 317 q 704 71 796 158 q 450 -17 613 -17 m 450 932 q 333 968 376 932 q 289 1071 289 1004 q 332 1176 289 1140 q 450 1211 375 1211 q 566 1176 522 1211 q 610 1071 610 1140 q 567 968 610 1004 q 450 932 524 932 m 450 1010 q 500 1027 485 1010 q 515 1072 515 1044 q 500 1117 515 1099 q 450 1135 485 1135 q 399 1117 414 1135 q 383 1072 383 1099 q 399 1027 383 1044 q 450 1010 414 1010 z "},"V":{"ha":825,"x_min":15,"x_max":810,"o":"m 332 0 q 314 13 319 0 l 19 893 q 32 910 15 910 l 151 910 q 169 897 165 910 l 350 325 q 380 228 365 278 q 408 131 394 179 l 411 131 q 440 226 425 178 q 471 322 456 275 l 657 897 q 675 910 661 910 l 793 910 q 806 893 810 910 l 506 13 q 488 0 501 0 l 332 0 z "},"W":{"ha":1193,"x_min":22,"x_max":1171,"o":"m 293 0 q 278 13 281 0 l 26 893 q 40 910 22 910 l 151 910 q 168 897 165 910 l 317 358 q 335 289 326 325 q 351 217 343 253 q 368 149 360 182 l 369 149 q 398 245 383 197 q 428 340 413 293 l 539 706 l 489 878 q 490 890 486 885 q 501 894 494 894 l 614 894 q 631 881 628 894 l 779 332 q 804 240 793 286 q 828 149 815 194 l 829 149 q 844 217 836 181 q 861 289 853 253 q 878 358 869 325 l 1021 897 q 1038 910 1024 910 l 1153 910 q 1165 893 1171 910 l 924 13 q 907 0 921 0 l 760 0 q 743 13 746 0 l 654 321 q 628 415 640 368 q 603 508 615 461 l 600 508 q 574 417 588 463 q 546 324 561 371 l 453 13 q 436 0 447 0 l 293 0 z "},"Ẃ":{"ha":1193,"x_min":22,"x_max":1171,"o":"m 293 0 q 278 13 281 0 l 26 893 q 40 910 22 910 l 151 910 q 168 897 165 910 l 317 358 q 335 289 326 325 q 351 217 343 253 q 368 149 360 182 l 369 149 q 398 245 383 197 q 428 340 413 293 l 539 706 l 489 878 q 490 890 486 885 q 501 894 494 894 l 614 894 q 631 881 628 894 l 779 332 q 804 240 793 286 q 828 149 815 194 l 829 149 q 844 217 836 181 q 861 289 853 253 q 878 358 869 325 l 1021 897 q 1038 910 1024 910 l 1153 910 q 1165 893 1171 910 l 924 13 q 907 0 921 0 l 760 0 q 743 13 746 0 l 654 321 q 628 415 640 368 q 603 508 615 461 l 600 508 q 574 417 588 463 q 546 324 561 371 l 453 13 q 436 0 447 0 l 293 0 m 519 985 q 511 990 513 985 q 513 1000 510 994 l 592 1146 q 608 1157 599 1157 l 721 1157 q 731 1151 728 1157 q 728 1139 733 1146 l 624 994 q 607 985 618 985 l 519 985 z "},"Ŵ":{"ha":1193,"x_min":22,"x_max":1171,"o":"m 293 0 q 278 13 281 0 l 26 893 q 40 910 22 910 l 151 910 q 168 897 165 910 l 317 358 q 335 289 326 325 q 351 217 343 253 q 368 149 360 182 l 369 149 q 398 245 383 197 q 428 340 413 293 l 539 706 l 489 878 q 490 890 486 885 q 501 894 494 894 l 614 894 q 631 881 628 894 l 779 332 q 804 240 793 286 q 828 149 815 194 l 829 149 q 844 217 836 181 q 861 289 853 253 q 878 358 869 325 l 1021 897 q 1038 910 1024 910 l 1153 910 q 1165 893 1171 910 l 924 13 q 907 0 921 0 l 760 0 q 743 13 746 0 l 654 321 q 628 415 640 368 q 603 508 615 461 l 600 508 q 574 417 588 463 q 546 324 561 371 l 453 13 q 436 0 447 0 l 293 0 m 417 994 q 400 1004 400 988 l 400 1082 q 410 1097 400 1092 l 588 1176 q 608 1176 597 1182 l 785 1097 q 794 1082 794 1092 l 794 1004 q 778 994 794 988 l 597 1061 l 417 994 z "},"Ẅ":{"ha":1193,"x_min":22,"x_max":1171,"o":"m 293 0 q 278 13 281 0 l 26 893 q 40 910 22 910 l 151 910 q 168 897 165 910 l 317 358 q 335 289 326 325 q 351 217 343 253 q 368 149 360 182 l 369 149 q 398 245 383 197 q 428 340 413 293 l 539 706 l 489 878 q 490 890 486 885 q 501 894 494 894 l 614 894 q 631 881 628 894 l 779 332 q 804 240 793 286 q 828 149 815 194 l 829 149 q 844 217 836 181 q 861 289 853 253 q 878 358 869 325 l 1021 897 q 1038 910 1024 910 l 1153 910 q 1165 893 1171 910 l 924 13 q 907 0 921 0 l 760 0 q 743 13 746 0 l 654 321 q 628 415 640 368 q 603 508 615 461 l 600 508 q 574 417 588 463 q 546 324 561 371 l 453 13 q 436 0 447 0 l 293 0 m 474 986 q 413 1008 432 986 q 394 1063 394 1029 l 394 1079 q 413 1135 394 1114 q 474 1156 432 1156 q 534 1135 515 1156 q 553 1079 553 1114 l 553 1063 q 534 1008 553 1029 q 474 986 515 986 m 719 986 q 659 1008 678 986 q 640 1063 640 1029 l 640 1079 q 659 1135 640 1114 q 719 1156 678 1156 q 780 1135 761 1156 q 799 1079 799 1114 l 799 1063 q 780 1008 799 1029 q 719 986 761 986 z "},"Ẁ":{"ha":1193,"x_min":22,"x_max":1171,"o":"m 293 0 q 278 13 281 0 l 26 893 q 40 910 22 910 l 151 910 q 168 897 165 910 l 317 358 q 335 289 326 325 q 351 217 343 253 q 368 149 360 182 l 369 149 q 398 245 383 197 q 428 340 413 293 l 539 706 l 489 878 q 490 890 486 885 q 501 894 494 894 l 614 894 q 631 881 628 894 l 779 332 q 804 240 793 286 q 828 149 815 194 l 829 149 q 844 217 836 181 q 861 289 853 253 q 878 358 869 325 l 1021 897 q 1038 910 1024 910 l 1153 910 q 1165 893 1171 910 l 924 13 q 907 0 921 0 l 760 0 q 743 13 746 0 l 654 321 q 628 415 640 368 q 603 508 615 461 l 600 508 q 574 417 588 463 q 546 324 561 371 l 453 13 q 436 0 447 0 l 293 0 m 585 985 q 568 994 574 985 l 463 1139 q 460 1151 458 1146 q 469 1157 463 1157 l 583 1157 q 599 1146 594 1157 l 679 1000 q 680 990 682 994 q 671 985 678 985 l 585 985 z "},"X":{"ha":782,"x_min":4,"x_max":778,"o":"m 18 0 q 7 5 10 0 q 8 18 4 10 l 304 468 l 28 892 q 26 905 24 900 q 38 910 28 910 l 171 910 q 188 900 182 910 l 331 678 q 363 625 346 653 q 394 572 379 597 l 396 572 q 428 628 411 600 q 463 683 446 657 l 601 900 q 619 910 608 910 l 747 910 q 759 905 757 910 q 757 892 761 900 l 482 467 l 772 18 q 775 6 778 11 q 764 0 772 0 l 629 0 q 611 10 619 0 l 460 246 q 425 303 443 272 q 390 361 407 333 l 389 361 q 355 305 372 335 q 319 249 338 275 l 168 10 q 150 0 161 0 l 18 0 z "},"Y":{"ha":761,"x_min":10,"x_max":751,"o":"m 325 0 q 310 15 310 0 l 310 313 l 14 892 q 13 905 10 900 q 24 910 17 910 l 151 910 q 168 899 164 910 l 308 608 q 345 531 326 571 q 381 453 364 490 l 382 453 q 419 532 401 493 q 457 613 438 571 l 594 899 q 613 910 600 910 l 738 910 q 748 905 744 910 q 747 892 751 900 l 450 313 l 450 15 q 436 0 450 0 l 325 0 z "},"Ý":{"ha":761,"x_min":10,"x_max":751,"o":"m 325 0 q 310 15 310 0 l 310 313 l 14 892 q 13 905 10 900 q 24 910 17 910 l 151 910 q 168 899 164 910 l 308 608 q 345 531 326 571 q 381 453 364 490 l 382 453 q 419 532 401 493 q 457 613 438 571 l 594 899 q 613 910 600 910 l 738 910 q 748 905 744 910 q 747 892 751 900 l 450 313 l 450 15 q 436 0 450 0 l 325 0 m 304 985 q 296 990 297 985 q 297 1000 294 994 l 376 1146 q 393 1157 383 1157 l 506 1157 q 515 1151 513 1157 q 513 1139 518 1146 l 408 994 q 392 985 403 985 l 304 985 z "},"Ŷ":{"ha":761,"x_min":10,"x_max":751,"o":"m 325 0 q 310 15 310 0 l 310 313 l 14 892 q 13 905 10 900 q 24 910 17 910 l 151 910 q 168 899 164 910 l 308 608 q 345 531 326 571 q 381 453 364 490 l 382 453 q 419 532 401 493 q 457 613 438 571 l 594 899 q 613 910 600 910 l 738 910 q 748 905 744 910 q 747 892 751 900 l 450 313 l 450 15 q 436 0 450 0 l 325 0 m 200 994 q 183 1004 183 988 l 183 1082 q 193 1097 183 1092 l 371 1176 q 392 1176 381 1182 l 568 1097 q 578 1082 578 1092 l 578 1004 q 561 994 578 988 l 381 1061 l 200 994 z "},"Ÿ":{"ha":761,"x_min":10,"x_max":751,"o":"m 325 0 q 310 15 310 0 l 310 313 l 14 892 q 13 905 10 900 q 24 910 17 910 l 151 910 q 168 899 164 910 l 308 608 q 345 531 326 571 q 381 453 364 490 l 382 453 q 419 532 401 493 q 457 613 438 571 l 594 899 q 613 910 600 910 l 738 910 q 748 905 744 910 q 747 892 751 900 l 450 313 l 450 15 q 436 0 450 0 l 325 0 m 258 986 q 198 1008 217 986 q 179 1063 179 1029 l 179 1079 q 198 1135 179 1114 q 258 1156 217 1156 q 319 1135 300 1156 q 338 1079 338 1114 l 338 1063 q 319 1008 338 1029 q 258 986 300 986 m 504 986 q 444 1008 463 986 q 425 1063 425 1029 l 425 1079 q 444 1135 425 1114 q 504 1156 463 1156 q 565 1135 546 1156 q 583 1079 583 1114 l 583 1063 q 565 1008 583 1029 q 504 986 546 986 z "},"Ỳ":{"ha":761,"x_min":10,"x_max":751,"o":"m 325 0 q 310 15 310 0 l 310 313 l 14 892 q 13 905 10 900 q 24 910 17 910 l 151 910 q 168 899 164 910 l 308 608 q 345 531 326 571 q 381 453 364 490 l 382 453 q 419 532 401 493 q 457 613 438 571 l 594 899 q 613 910 600 910 l 738 910 q 748 905 744 910 q 747 892 751 900 l 450 313 l 450 15 q 436 0 450 0 l 325 0 m 368 985 q 351 994 357 985 l 246 1139 q 244 1151 242 1146 q 253 1157 246 1157 l 367 1157 q 382 1146 378 1157 l 463 1000 q 463 990 465 994 q 454 985 461 985 l 368 985 z "},"Z":{"ha":764,"x_min":25,"x_max":735,"o":"m 40 0 q 25 14 25 0 l 25 18 q 32 38 25 26 l 426 649 q 470 717 449 683 q 515 785 492 750 l 515 786 q 437 785 476 785 q 357 785 397 785 l 85 785 q 69 800 69 785 l 69 894 q 85 910 69 910 l 719 910 q 735 896 735 910 l 735 892 q 729 872 735 883 l 339 275 q 290 199 314 236 q 240 125 267 163 l 240 124 q 329 125 285 125 q 418 125 374 125 l 688 125 q 703 110 703 125 l 703 15 q 688 0 703 0 l 40 0 z "},"Ź":{"ha":764,"x_min":25,"x_max":735,"o":"m 40 0 q 25 14 25 0 l 25 18 q 32 38 25 26 l 426 649 q 470 717 449 683 q 515 785 492 750 l 515 786 q 437 785 476 785 q 357 785 397 785 l 85 785 q 69 800 69 785 l 69 894 q 85 910 69 910 l 719 910 q 735 896 735 910 l 735 892 q 729 872 735 883 l 339 275 q 290 199 314 236 q 240 125 267 163 l 240 124 q 329 125 285 125 q 418 125 374 125 l 688 125 q 703 110 703 125 l 703 15 q 688 0 703 0 l 40 0 m 303 985 q 294 990 296 985 q 296 1000 293 994 l 375 1146 q 392 1157 382 1157 l 504 1157 q 514 1151 511 1157 q 511 1139 517 1146 l 407 994 q 390 985 401 985 l 303 985 z "},"Ž":{"ha":764,"x_min":25,"x_max":735,"o":"m 40 0 q 25 14 25 0 l 25 18 q 32 38 25 26 l 426 649 q 470 717 449 683 q 515 785 492 750 l 515 786 q 437 785 476 785 q 357 785 397 785 l 85 785 q 69 800 69 785 l 69 894 q 85 910 69 910 l 719 910 q 735 896 735 910 l 735 892 q 729 872 735 883 l 339 275 q 290 199 314 236 q 240 125 267 163 l 240 124 q 329 125 285 125 q 418 125 374 125 l 688 125 q 703 110 703 125 l 703 15 q 688 0 703 0 l 40 0 m 369 994 l 192 1075 q 182 1089 182 1079 l 182 1168 q 199 1176 182 1183 l 379 1110 l 560 1176 q 576 1168 576 1183 l 576 1089 q 567 1075 576 1079 l 390 994 q 369 994 379 990 z "},"Ż":{"ha":764,"x_min":25,"x_max":735,"o":"m 40 0 q 25 14 25 0 l 25 18 q 32 38 25 26 l 426 649 q 470 717 449 683 q 515 785 492 750 l 515 786 q 437 785 476 785 q 357 785 397 785 l 85 785 q 69 800 69 785 l 69 894 q 85 910 69 910 l 719 910 q 735 896 735 910 l 735 892 q 729 872 735 883 l 339 275 q 290 199 314 236 q 240 125 267 163 l 240 124 q 329 125 285 125 q 418 125 374 125 l 688 125 q 703 110 703 125 l 703 15 q 688 0 703 0 l 40 0 m 379 1006 q 315 1028 336 1006 q 294 1088 294 1051 l 294 1104 q 315 1163 294 1140 q 379 1186 336 1186 q 444 1163 424 1186 q 464 1104 464 1140 l 464 1088 q 444 1028 464 1051 q 379 1006 424 1006 z "},"a":{"ha":693,"x_min":61,"x_max":608,"o":"m 494 0 q 483 6 486 0 q 476 19 479 11 q 470 67 475 32 q 464 132 465 101 l 457 186 l 457 463 q 431 555 457 528 q 342 582 406 582 q 226 500 225 582 q 213 485 226 485 l 106 485 q 89 510 90 485 q 151 647 82 596 q 346 697 221 697 q 535 640 474 697 q 596 464 596 582 l 596 171 q 599 85 596 124 q 606 17 601 46 q 590 0 608 0 l 494 0 m 229 -17 q 104 33 147 -17 q 61 175 61 82 q 89 293 61 247 q 180 364 117 339 q 349 397 243 389 l 479 408 l 478 314 l 353 303 q 231 271 265 296 q 197 188 197 246 q 215 121 197 143 q 271 99 233 99 q 361 128 314 99 q 483 235 408 157 l 486 128 q 398 46 439 78 q 316 -1 357 14 q 229 -17 275 -17 z "},"á":{"ha":693,"x_min":61,"x_max":608,"o":"m 494 0 q 483 6 486 0 q 476 19 479 11 q 470 67 475 32 q 464 132 465 101 l 457 186 l 457 463 q 431 555 457 528 q 342 582 406 582 q 226 500 225 582 q 213 485 226 485 l 106 485 q 89 510 90 485 q 151 647 82 596 q 346 697 221 697 q 535 640 474 697 q 596 464 596 582 l 596 171 q 599 85 596 124 q 606 17 601 46 q 590 0 608 0 l 494 0 m 229 -17 q 104 33 147 -17 q 61 175 61 82 q 89 293 61 247 q 180 364 117 339 q 349 397 243 389 l 479 408 l 478 314 l 353 303 q 231 271 265 296 q 197 188 197 246 q 215 121 197 143 q 271 99 233 99 q 361 128 314 99 q 483 235 408 157 l 486 128 q 398 46 439 78 q 316 -1 357 14 q 229 -17 275 -17 m 263 772 q 254 788 247 772 l 347 960 q 365 969 353 969 l 475 969 q 485 965 483 969 q 482 954 488 960 l 363 782 q 346 772 357 772 l 263 772 z "},"ă":{"ha":693,"x_min":61,"x_max":608,"o":"m 494 0 q 483 6 486 0 q 476 19 479 11 q 470 67 475 32 q 464 132 465 101 l 457 186 l 457 463 q 431 555 457 528 q 342 582 406 582 q 226 500 225 582 q 213 485 226 485 l 106 485 q 89 510 90 485 q 151 647 82 596 q 346 697 221 697 q 535 640 474 697 q 596 464 596 582 l 596 171 q 599 85 596 124 q 606 17 601 46 q 590 0 608 0 l 494 0 m 229 -17 q 104 33 147 -17 q 61 175 61 82 q 89 293 61 247 q 180 364 117 339 q 349 397 243 389 l 479 408 l 478 314 l 353 303 q 231 271 265 296 q 197 188 197 246 q 215 121 197 143 q 271 99 233 99 q 361 128 314 99 q 483 235 408 157 l 486 128 q 398 46 439 78 q 316 -1 357 14 q 229 -17 275 -17 m 342 772 q 260 785 294 772 q 204 815 226 799 q 171 842 182 831 q 165 860 165 847 l 165 942 q 170 955 165 951 q 182 950 175 958 q 244 906 203 931 q 342 881 286 881 q 440 906 399 881 q 501 950 482 931 q 513 955 508 958 q 518 942 518 951 l 518 860 q 517 849 518 854 q 513 842 515 844 q 479 815 501 831 q 423 785 457 799 q 342 772 389 772 z "},"â":{"ha":693,"x_min":61,"x_max":608,"o":"m 494 0 q 483 6 486 0 q 476 19 479 11 q 470 67 475 32 q 464 132 465 101 l 457 186 l 457 463 q 431 555 457 528 q 342 582 406 582 q 226 500 225 582 q 213 485 226 485 l 106 485 q 89 510 90 485 q 151 647 82 596 q 346 697 221 697 q 535 640 474 697 q 596 464 596 582 l 596 171 q 599 85 596 124 q 606 17 601 46 q 590 0 608 0 l 494 0 m 229 -17 q 104 33 147 -17 q 61 175 61 82 q 89 293 61 247 q 180 364 117 339 q 349 397 243 389 l 479 408 l 478 314 l 353 303 q 231 271 265 296 q 197 188 197 246 q 215 121 197 143 q 271 99 233 99 q 361 128 314 99 q 483 235 408 157 l 486 128 q 398 46 439 78 q 316 -1 357 14 q 229 -17 275 -17 m 175 765 q 158 772 158 757 l 158 850 q 168 869 158 864 l 332 963 q 353 963 342 969 l 515 869 q 525 850 525 864 l 525 772 q 508 765 525 757 l 342 849 l 175 765 z "},"ä":{"ha":693,"x_min":61,"x_max":608,"o":"m 494 0 q 483 6 486 0 q 476 19 479 11 q 470 67 475 32 q 464 132 465 101 l 457 186 l 457 463 q 431 555 457 528 q 342 582 406 582 q 226 500 225 582 q 213 485 226 485 l 106 485 q 89 510 90 485 q 151 647 82 596 q 346 697 221 697 q 535 640 474 697 q 596 464 596 582 l 596 171 q 599 85 596 124 q 606 17 601 46 q 590 0 608 0 l 494 0 m 229 -17 q 104 33 147 -17 q 61 175 61 82 q 89 293 61 247 q 180 364 117 339 q 349 397 243 389 l 479 408 l 478 314 l 353 303 q 231 271 265 296 q 197 188 197 246 q 215 121 197 143 q 271 99 233 99 q 361 128 314 99 q 483 235 408 157 l 486 128 q 398 46 439 78 q 316 -1 357 14 q 229 -17 275 -17 m 217 788 q 156 809 175 788 q 138 864 138 831 l 138 881 q 156 936 138 915 q 217 957 175 957 q 277 936 258 957 q 296 881 296 915 l 296 864 q 277 809 296 831 q 217 788 258 788 m 463 788 q 403 809 422 788 q 383 864 383 831 l 383 881 q 403 936 383 915 q 463 957 422 957 q 524 936 504 957 q 543 881 543 915 l 543 864 q 524 809 543 831 q 463 788 504 788 z "},"à":{"ha":693,"x_min":61,"x_max":608,"o":"m 494 0 q 483 6 486 0 q 476 19 479 11 q 470 67 475 32 q 464 132 465 101 l 457 186 l 457 463 q 431 555 457 528 q 342 582 406 582 q 226 500 225 582 q 213 485 226 485 l 106 485 q 89 510 90 485 q 151 647 82 596 q 346 697 221 697 q 535 640 474 697 q 596 464 596 582 l 596 171 q 599 85 596 124 q 606 17 601 46 q 590 0 608 0 l 494 0 m 229 -17 q 104 33 147 -17 q 61 175 61 82 q 89 293 61 247 q 180 364 117 339 q 349 397 243 389 l 479 408 l 478 314 l 353 303 q 231 271 265 296 q 197 188 197 246 q 215 121 197 143 q 271 99 233 99 q 361 128 314 99 q 483 235 408 157 l 486 128 q 398 46 439 78 q 316 -1 357 14 q 229 -17 275 -17 m 335 772 q 318 782 324 772 l 199 954 q 197 965 194 960 q 206 969 199 969 l 315 969 q 333 960 329 969 l 426 788 q 419 772 435 772 l 335 772 z "},"ā":{"ha":693,"x_min":61,"x_max":608,"o":"m 494 0 q 483 6 486 0 q 476 19 479 11 q 470 67 475 32 q 464 132 465 101 l 457 186 l 457 463 q 431 555 457 528 q 342 582 406 582 q 226 500 225 582 q 213 485 226 485 l 106 485 q 89 510 90 485 q 151 647 82 596 q 346 697 221 697 q 535 640 474 697 q 596 464 596 582 l 596 171 q 599 85 596 124 q 606 17 601 46 q 590 0 608 0 l 494 0 m 229 -17 q 104 33 147 -17 q 61 175 61 82 q 89 293 61 247 q 180 364 117 339 q 349 397 243 389 l 479 408 l 478 314 l 353 303 q 231 271 265 296 q 197 188 197 246 q 215 121 197 143 q 271 99 233 99 q 361 128 314 99 q 483 235 408 157 l 486 128 q 398 46 439 78 q 316 -1 357 14 q 229 -17 275 -17 m 201 792 q 186 807 186 792 l 186 888 q 201 903 186 903 l 481 903 q 496 888 496 903 l 496 807 q 481 792 496 792 l 201 792 z "},"ą":{"ha":693,"x_min":61,"x_max":619,"o":"m 494 0 q 483 6 486 0 q 476 19 479 11 q 470 67 475 32 q 464 132 465 101 l 457 186 l 457 463 q 431 555 457 528 q 342 582 406 582 q 226 500 225 582 q 213 485 226 485 l 106 485 q 89 510 90 485 q 151 647 82 596 q 346 697 221 697 q 535 640 474 697 q 596 464 596 582 l 596 171 q 599 85 596 124 q 606 17 601 46 q 590 0 608 0 l 494 0 m 229 -17 q 104 33 147 -17 q 61 175 61 82 q 89 293 61 247 q 180 364 117 339 q 349 397 243 389 l 479 408 l 478 314 l 353 303 q 231 271 265 296 q 197 188 197 246 q 215 121 197 143 q 271 99 233 99 q 361 128 314 99 q 483 235 408 157 l 486 128 q 398 46 439 78 q 316 -1 357 14 q 229 -17 275 -17 m 544 -274 q 438 -242 474 -274 q 403 -160 403 -211 l 403 -144 q 448 -37 403 -85 q 571 35 493 10 l 596 18 l 596 3 q 536 -47 557 -17 q 515 -112 515 -78 l 515 -125 q 569 -171 515 -171 q 589 -171 581 -171 q 607 -169 597 -171 q 619 -181 619 -168 l 619 -253 q 617 -263 619 -260 q 607 -268 615 -267 q 575 -272 592 -271 q 544 -274 558 -274 z "},"å":{"ha":693,"x_min":61,"x_max":608,"o":"m 494 0 q 483 6 486 0 q 476 19 479 11 q 470 67 475 32 q 464 132 465 101 l 457 186 l 457 463 q 431 555 457 528 q 342 582 406 582 q 226 500 225 582 q 213 485 226 485 l 106 485 q 89 510 90 485 q 151 647 82 596 q 346 697 221 697 q 535 640 474 697 q 596 464 596 582 l 596 171 q 599 85 596 124 q 606 17 601 46 q 590 0 608 0 l 494 0 m 229 -17 q 104 33 147 -17 q 61 175 61 82 q 89 293 61 247 q 180 364 117 339 q 349 397 243 389 l 479 408 l 478 314 l 353 303 q 231 271 265 296 q 197 188 197 246 q 215 121 197 143 q 271 99 233 99 q 361 128 314 99 q 483 235 408 157 l 486 128 q 398 46 439 78 q 316 -1 357 14 q 229 -17 275 -17 m 342 767 q 224 803 268 767 q 181 907 181 839 q 224 1010 181 975 q 342 1046 267 1046 q 458 1010 414 1046 q 501 907 501 975 q 458 803 501 839 q 342 767 415 767 m 342 844 q 392 862 376 844 q 407 907 407 879 q 392 952 407 935 q 342 969 376 969 q 290 952 306 969 q 275 907 275 935 q 290 862 275 879 q 342 844 306 844 z "},"ã":{"ha":693,"x_min":61,"x_max":608,"o":"m 494 0 q 483 6 486 0 q 476 19 479 11 q 470 67 475 32 q 464 132 465 101 l 457 186 l 457 463 q 431 555 457 528 q 342 582 406 582 q 226 500 225 582 q 213 485 226 485 l 106 485 q 89 510 90 485 q 151 647 82 596 q 346 697 221 697 q 535 640 474 697 q 596 464 596 582 l 596 171 q 599 85 596 124 q 606 17 601 46 q 590 0 608 0 l 494 0 m 229 -17 q 104 33 147 -17 q 61 175 61 82 q 89 293 61 247 q 180 364 117 339 q 349 397 243 389 l 479 408 l 478 314 l 353 303 q 231 271 265 296 q 197 188 197 246 q 215 121 197 143 q 271 99 233 99 q 361 128 314 99 q 483 235 408 157 l 486 128 q 398 46 439 78 q 316 -1 357 14 q 229 -17 275 -17 m 413 786 q 362 795 385 786 q 317 813 339 804 q 268 822 294 822 q 219 813 244 822 q 176 796 193 803 q 158 804 158 788 l 158 876 q 167 896 158 890 q 208 919 181 907 q 271 932 236 932 q 330 924 307 932 q 372 906 353 915 q 415 896 392 896 q 465 906 439 896 q 507 922 492 915 q 525 914 525 931 l 525 842 q 517 822 525 829 q 476 799 503 811 q 413 786 449 786 z "},"æ":{"ha":1088,"x_min":61,"x_max":1011,"o":"m 225 -17 q 103 33 146 -17 q 61 175 61 82 q 89 295 61 249 q 181 367 117 342 q 349 403 244 393 l 457 413 l 457 463 q 431 555 457 528 q 342 582 406 582 q 254 561 283 582 q 226 500 225 540 q 213 485 226 485 l 106 485 q 89 510 90 485 q 113 608 85 567 q 199 674 142 650 q 333 697 256 697 q 456 674 406 697 q 535 606 507 651 q 626 674 568 650 q 751 697 683 697 q 943 627 875 697 q 1011 431 1011 557 l 1011 328 q 996 313 1011 313 l 590 313 l 590 263 q 624 138 590 175 q 732 100 657 100 q 826 119 792 100 q 860 172 860 139 q 875 194 860 194 l 983 194 q 997 164 997 194 q 925 32 997 81 q 724 -17 853 -17 q 569 17 629 -17 q 482 117 510 50 q 353 16 415 49 q 225 -17 290 -17 m 272 99 q 353 124 311 99 q 460 211 394 150 q 458 244 458 226 q 457 278 457 263 l 457 313 l 353 303 q 231 270 265 294 q 197 188 197 246 q 216 121 197 143 q 272 99 235 99 m 590 414 l 874 414 l 874 417 q 840 540 874 500 q 738 581 807 581 q 628 540 665 581 q 590 415 590 499 l 590 414 z "},"b":{"ha":747,"x_min":97,"x_max":665,"o":"m 376 -17 q 286 -11 328 -17 q 199 2 244 -6 q 97 13 154 10 l 97 933 q 113 949 97 949 l 221 949 q 236 933 236 949 l 236 115 q 299 107 265 111 q 360 103 333 103 q 486 147 446 103 q 526 278 526 190 l 526 428 q 500 540 526 504 q 419 575 474 575 q 328 549 375 575 q 210 460 282 524 l 215 583 q 338 670 279 643 q 460 697 396 697 q 613 635 561 697 q 665 444 665 572 l 665 265 q 594 54 665 125 q 376 -17 522 -17 z "},"c":{"ha":724,"x_min":79,"x_max":649,"o":"m 372 -17 q 154 54 229 -17 q 79 257 79 125 l 79 422 q 156 626 79 556 q 374 697 232 697 q 522 670 461 697 q 616 596 583 643 q 647 486 649 549 q 632 456 646 456 l 525 456 q 511 478 511 456 q 474 551 511 525 q 375 576 438 576 q 257 536 296 576 q 218 410 218 496 l 218 271 q 257 145 218 186 q 374 104 296 104 q 474 132 438 104 q 510 201 510 160 q 524 224 510 224 l 631 224 q 646 210 644 224 q 577 44 647 106 q 372 -17 507 -17 z "},"ć":{"ha":724,"x_min":79,"x_max":649,"o":"m 372 -17 q 154 54 229 -17 q 79 257 79 125 l 79 422 q 156 626 79 556 q 374 697 232 697 q 522 670 461 697 q 616 596 583 643 q 647 486 649 549 q 632 456 646 456 l 525 456 q 511 478 511 456 q 474 551 511 525 q 375 576 438 576 q 257 536 296 576 q 218 410 218 496 l 218 271 q 257 145 218 186 q 374 104 296 104 q 474 132 438 104 q 510 201 510 160 q 524 224 510 224 l 631 224 q 646 210 644 224 q 577 44 647 106 q 372 -17 507 -17 m 283 772 q 275 788 268 772 l 368 960 q 386 969 374 969 l 496 969 q 506 965 504 969 q 503 954 508 960 l 383 782 q 367 772 378 772 l 283 772 z "},"č":{"ha":724,"x_min":79,"x_max":649,"o":"m 372 -17 q 154 54 229 -17 q 79 257 79 125 l 79 422 q 156 626 79 556 q 374 697 232 697 q 522 670 461 697 q 616 596 583 643 q 647 486 649 549 q 632 456 646 456 l 525 456 q 511 478 511 456 q 474 551 511 525 q 375 576 438 576 q 257 536 296 576 q 218 410 218 496 l 218 271 q 257 145 218 186 q 374 104 296 104 q 474 132 438 104 q 510 201 510 160 q 524 224 510 224 l 631 224 q 646 210 644 224 q 577 44 647 106 q 372 -17 507 -17 m 353 765 l 189 858 q 179 878 179 865 l 179 956 q 196 963 179 972 l 363 879 l 529 963 q 546 956 546 972 l 546 878 q 536 858 546 865 l 374 765 q 353 765 363 758 z "},"ç":{"ha":724,"x_min":79,"x_max":649,"o":"m 372 -17 q 154 54 229 -17 q 79 257 79 125 l 79 422 q 156 626 79 556 q 374 697 232 697 q 522 670 461 697 q 616 596 583 643 q 647 486 649 549 q 632 456 646 456 l 525 456 q 511 478 511 456 q 474 551 511 525 q 375 576 438 576 q 257 536 296 576 q 218 410 218 496 l 218 271 q 257 145 218 186 q 374 104 296 104 q 474 132 438 104 q 510 201 510 160 q 524 224 510 224 l 631 224 q 646 210 644 224 q 577 44 647 106 q 372 -17 507 -17 m 349 -274 q 318 -272 333 -274 q 286 -268 303 -271 q 275 -256 275 -267 l 275 -199 q 286 -187 275 -186 q 308 -190 296 -189 q 326 -190 319 -190 q 369 -181 356 -190 q 382 -158 382 -172 l 382 -142 q 370 -115 382 -122 q 336 -107 358 -107 l 304 -107 q 294 -97 294 -107 q 295 -83 294 -90 q 297 -69 296 -75 l 331 36 q 343 46 333 46 l 419 46 q 426 31 432 46 l 400 -54 l 413 -54 q 469 -78 450 -54 q 489 -142 489 -101 l 489 -164 q 455 -247 489 -219 q 349 -274 421 -274 z "},"ċ":{"ha":724,"x_min":79,"x_max":649,"o":"m 372 -17 q 154 54 229 -17 q 79 257 79 125 l 79 422 q 156 626 79 556 q 374 697 232 697 q 522 670 461 697 q 616 596 583 643 q 647 486 649 549 q 632 456 646 456 l 525 456 q 511 478 511 456 q 474 551 511 525 q 375 576 438 576 q 257 536 296 576 q 218 410 218 496 l 218 271 q 257 145 218 186 q 374 104 296 104 q 474 132 438 104 q 510 201 510 160 q 524 224 510 224 l 631 224 q 646 210 644 224 q 577 44 647 106 q 372 -17 507 -17 m 363 788 q 299 810 319 788 q 278 869 278 833 l 278 886 q 299 946 278 924 q 363 968 319 968 q 427 946 407 968 q 447 886 447 924 l 447 869 q 427 810 447 833 q 363 788 407 788 z "},"d":{"ha":756,"x_min":82,"x_max":671,"o":"m 282 -17 q 133 47 185 -17 q 82 236 82 110 l 82 417 q 148 625 82 553 q 332 697 214 697 q 442 683 383 697 q 535 647 501 669 l 540 532 q 449 566 499 554 q 363 578 400 578 q 256 534 292 578 q 221 403 221 490 l 221 240 q 247 138 221 172 q 326 104 274 104 q 392 117 360 104 q 461 159 424 131 q 546 236 499 188 l 547 122 q 461 47 503 78 q 376 -1 419 15 q 282 -17 333 -17 m 557 0 q 539 15 540 0 q 532 67 536 36 q 529 121 528 99 l 519 189 l 519 933 q 535 949 519 949 l 643 949 q 658 933 658 949 l 658 161 q 660 113 658 140 q 663 61 661 86 q 667 19 665 36 q 653 0 671 0 l 557 0 z "},"ð":{"ha":740,"x_min":79,"x_max":661,"o":"m 368 -17 q 152 49 225 -17 q 79 250 79 115 l 79 382 q 138 581 79 515 q 299 646 197 646 q 429 619 368 646 q 533 538 490 593 l 533 408 q 442 494 497 464 q 333 525 388 525 q 248 486 278 525 q 218 365 218 447 l 218 257 q 255 137 218 172 q 369 101 292 101 q 487 147 449 101 q 525 279 525 192 l 525 429 q 517 588 533 517 q 462 715 500 660 q 367 809 424 771 q 236 864 310 847 q 217 874 221 868 q 219 889 214 881 l 265 954 q 277 964 271 963 q 294 963 283 965 q 492 872 410 940 q 617 706 574 804 q 661 493 661 608 l 661 274 q 585 58 661 133 q 368 -17 510 -17 m 268 708 q 250 718 257 703 l 225 769 q 233 786 221 781 l 603 961 q 621 951 614 967 l 644 899 q 636 882 649 888 l 268 708 z "},"ď":{"ha":756,"x_min":82,"x_max":856,"o":"m 282 -17 q 133 47 185 -17 q 82 236 82 110 l 82 417 q 148 625 82 553 q 332 697 214 697 q 442 683 383 697 q 535 647 501 669 l 540 532 q 449 566 499 554 q 363 578 400 578 q 256 534 292 578 q 221 403 221 490 l 221 240 q 247 138 221 172 q 326 104 274 104 q 392 117 360 104 q 461 159 424 131 q 546 236 499 188 l 547 122 q 461 47 503 78 q 376 -1 419 15 q 282 -17 333 -17 m 557 0 q 539 15 540 0 q 532 67 536 36 q 529 121 528 99 l 519 189 l 519 933 q 535 949 519 949 l 643 949 q 658 933 658 949 l 658 161 q 660 113 658 140 q 663 61 661 86 q 667 19 665 36 q 653 0 671 0 l 557 0 m 751 732 q 739 747 736 732 l 758 825 q 728 844 738 832 q 718 879 718 857 l 718 913 q 736 951 718 936 q 785 965 754 965 q 838 951 821 965 q 856 913 856 936 l 856 878 q 853 846 856 861 q 844 814 851 831 l 819 743 q 803 732 815 732 l 751 732 z "},"đ":{"ha":757,"x_min":82,"x_max":765,"o":"m 382 767 q 367 782 367 767 l 367 857 q 382 871 367 871 l 750 871 q 765 857 765 871 l 765 782 q 750 767 765 767 l 658 767 l 382 767 m 282 -17 q 133 47 185 -17 q 82 236 82 110 l 82 417 q 148 625 82 553 q 332 697 214 697 q 442 683 383 697 q 535 647 501 669 l 540 532 q 449 566 499 554 q 363 578 400 578 q 256 534 292 578 q 221 403 221 490 l 221 240 q 247 138 221 172 q 326 104 274 104 q 392 117 360 104 q 461 159 424 131 q 546 236 499 188 l 547 122 q 461 47 503 78 q 376 -1 419 15 q 282 -17 333 -17 m 557 0 q 539 15 540 0 q 532 67 536 36 q 529 121 528 99 l 519 189 l 519 933 q 535 949 519 949 l 643 949 q 658 933 658 949 l 658 161 q 660 113 658 140 q 663 61 661 86 q 667 19 665 36 q 653 0 671 0 l 557 0 z "},"e":{"ha":728,"x_min":79,"x_max":650,"o":"m 367 -17 q 152 47 225 -17 q 79 238 79 111 l 79 422 q 151 627 79 557 q 365 697 224 697 q 578 629 506 697 q 650 431 650 561 l 650 322 q 636 307 650 307 l 218 307 l 218 263 q 254 139 218 178 q 371 100 290 100 q 465 119 432 100 q 499 179 499 139 q 515 194 499 194 l 622 194 q 638 181 635 194 q 571 35 643 88 q 367 -17 499 -17 m 218 413 l 513 413 l 513 419 q 476 542 513 503 q 367 581 440 581 q 255 540 292 581 q 218 419 218 500 l 218 413 z "},"é":{"ha":728,"x_min":79,"x_max":650,"o":"m 367 -17 q 152 47 225 -17 q 79 238 79 111 l 79 422 q 151 627 79 557 q 365 697 224 697 q 578 629 506 697 q 650 431 650 561 l 650 322 q 636 307 650 307 l 218 307 l 218 263 q 254 139 218 178 q 371 100 290 100 q 465 119 432 100 q 499 179 499 139 q 515 194 499 194 l 622 194 q 638 181 635 194 q 571 35 643 88 q 367 -17 499 -17 m 218 413 l 513 413 l 513 419 q 476 542 513 503 q 367 581 440 581 q 255 540 292 581 q 218 419 218 500 l 218 413 m 282 786 q 274 801 267 786 l 367 974 q 385 983 372 983 l 494 983 q 505 978 503 983 q 501 968 507 974 l 382 796 q 365 786 376 786 l 282 786 z "},"ě":{"ha":728,"x_min":79,"x_max":650,"o":"m 367 -17 q 152 47 225 -17 q 79 238 79 111 l 79 422 q 151 627 79 557 q 365 697 224 697 q 578 629 506 697 q 650 431 650 561 l 650 322 q 636 307 650 307 l 218 307 l 218 263 q 254 139 218 178 q 371 100 290 100 q 465 119 432 100 q 499 179 499 139 q 515 194 499 194 l 622 194 q 638 181 635 194 q 571 35 643 88 q 367 -17 499 -17 m 218 413 l 513 413 l 513 419 q 476 542 513 503 q 367 581 440 581 q 255 540 292 581 q 218 419 218 500 l 218 413 m 351 779 l 188 872 q 178 892 178 879 l 178 969 q 194 976 178 986 l 361 893 l 528 976 q 544 969 544 986 l 544 892 q 535 872 544 879 l 372 779 q 351 779 361 772 z "},"ê":{"ha":728,"x_min":79,"x_max":650,"o":"m 367 -17 q 152 47 225 -17 q 79 238 79 111 l 79 422 q 151 627 79 557 q 365 697 224 697 q 578 629 506 697 q 650 431 650 561 l 650 322 q 636 307 650 307 l 218 307 l 218 263 q 254 139 218 178 q 371 100 290 100 q 465 119 432 100 q 499 179 499 139 q 515 194 499 194 l 622 194 q 638 181 635 194 q 571 35 643 88 q 367 -17 499 -17 m 218 413 l 513 413 l 513 419 q 476 542 513 503 q 367 581 440 581 q 255 540 292 581 q 218 419 218 500 l 218 413 m 194 779 q 178 786 178 771 l 178 864 q 188 883 178 878 l 351 976 q 372 976 361 983 l 535 883 q 544 864 544 878 l 544 786 q 528 779 544 771 l 361 863 l 194 779 z "},"ë":{"ha":728,"x_min":79,"x_max":650,"o":"m 367 -17 q 152 47 225 -17 q 79 238 79 111 l 79 422 q 151 627 79 557 q 365 697 224 697 q 578 629 506 697 q 650 431 650 561 l 650 322 q 636 307 650 307 l 218 307 l 218 263 q 254 139 218 178 q 371 100 290 100 q 465 119 432 100 q 499 179 499 139 q 515 194 499 194 l 622 194 q 638 181 635 194 q 571 35 643 88 q 367 -17 499 -17 m 218 413 l 513 413 l 513 419 q 476 542 513 503 q 367 581 440 581 q 255 540 292 581 q 218 419 218 500 l 218 413 m 238 801 q 177 823 196 801 q 158 878 158 844 l 158 894 q 177 950 158 929 q 238 971 196 971 q 298 950 279 971 q 317 894 317 929 l 317 878 q 298 823 317 844 q 238 801 279 801 m 483 801 q 424 823 443 801 q 404 878 404 844 l 404 894 q 424 950 404 929 q 483 971 443 971 q 544 950 525 971 q 564 894 564 929 l 564 878 q 544 823 564 844 q 483 801 525 801 z "},"ė":{"ha":728,"x_min":79,"x_max":650,"o":"m 367 -17 q 152 47 225 -17 q 79 238 79 111 l 79 422 q 151 627 79 557 q 365 697 224 697 q 578 629 506 697 q 650 431 650 561 l 650 322 q 636 307 650 307 l 218 307 l 218 263 q 254 139 218 178 q 371 100 290 100 q 465 119 432 100 q 499 179 499 139 q 515 194 499 194 l 622 194 q 638 181 635 194 q 571 35 643 88 q 367 -17 499 -17 m 218 413 l 513 413 l 513 419 q 476 542 513 503 q 367 581 440 581 q 255 540 292 581 q 218 419 218 500 l 218 413 m 361 801 q 297 824 318 801 q 276 883 276 847 l 276 900 q 297 960 276 938 q 361 982 318 982 q 426 960 406 982 q 446 900 446 938 l 446 883 q 426 824 446 847 q 361 801 406 801 z "},"è":{"ha":728,"x_min":79,"x_max":650,"o":"m 367 -17 q 152 47 225 -17 q 79 238 79 111 l 79 422 q 151 627 79 557 q 365 697 224 697 q 578 629 506 697 q 650 431 650 561 l 650 322 q 636 307 650 307 l 218 307 l 218 263 q 254 139 218 178 q 371 100 290 100 q 465 119 432 100 q 499 179 499 139 q 515 194 499 194 l 622 194 q 638 181 635 194 q 571 35 643 88 q 367 -17 499 -17 m 218 413 l 513 413 l 513 419 q 476 542 513 503 q 367 581 440 581 q 255 540 292 581 q 218 419 218 500 l 218 413 m 356 786 q 339 796 344 786 l 219 968 q 217 978 215 974 q 226 983 219 983 l 336 983 q 354 974 350 983 l 447 801 q 440 786 456 786 l 356 786 z "},"ē":{"ha":728,"x_min":79,"x_max":650,"o":"m 367 -17 q 152 47 225 -17 q 79 238 79 111 l 79 422 q 151 627 79 557 q 365 697 224 697 q 578 629 506 697 q 650 431 650 561 l 650 322 q 636 307 650 307 l 218 307 l 218 263 q 254 139 218 178 q 371 100 290 100 q 465 119 432 100 q 499 179 499 139 q 515 194 499 194 l 622 194 q 638 181 635 194 q 571 35 643 88 q 367 -17 499 -17 m 218 413 l 513 413 l 513 419 q 476 542 513 503 q 367 581 440 581 q 255 540 292 581 q 218 419 218 500 l 218 413 m 221 806 q 206 821 206 806 l 206 901 q 221 917 206 917 l 500 917 q 515 901 515 917 l 515 821 q 500 806 515 806 l 221 806 z "},"ę":{"ha":728,"x_min":79,"x_max":650,"o":"m 367 -17 q 152 47 225 -17 q 79 238 79 111 l 79 422 q 151 627 79 557 q 365 697 224 697 q 578 629 506 697 q 650 431 650 561 l 650 322 q 636 307 650 307 l 218 307 l 218 263 q 254 139 218 178 q 371 100 290 100 q 465 119 432 100 q 499 179 499 139 q 515 194 499 194 l 622 194 q 638 181 635 194 q 571 35 643 88 q 367 -17 499 -17 m 218 413 l 513 413 l 513 419 q 476 542 513 503 q 367 581 440 581 q 255 540 292 581 q 218 419 218 500 l 218 413 m 456 -272 q 349 -241 385 -272 q 314 -158 314 -210 l 314 -143 q 359 -36 314 -83 q 482 36 404 11 l 507 19 l 507 4 q 447 -46 468 -15 q 426 -111 426 -76 l 426 -124 q 481 -169 426 -169 q 500 -169 492 -169 q 518 -168 508 -169 q 531 -179 531 -167 l 531 -251 q 528 -262 531 -258 q 518 -267 526 -265 q 486 -271 503 -269 q 456 -272 469 -272 z "},"f":{"ha":518,"x_min":25,"x_max":533,"o":"m 161 0 q 150 4 154 0 q 146 15 146 8 l 146 563 l 40 563 q 30 567 35 563 q 25 578 25 572 l 25 665 q 30 676 25 672 q 40 681 35 681 l 146 681 l 146 746 q 207 909 146 853 q 378 965 268 965 q 450 959 414 965 q 510 943 486 953 q 533 921 533 935 l 533 835 q 527 823 533 826 q 503 828 521 819 q 451 842 481 836 q 396 849 421 849 q 313 822 340 849 q 285 740 285 794 l 285 681 l 475 681 q 490 665 490 681 l 490 578 q 487 567 490 572 q 476 563 483 563 l 285 563 l 285 15 q 281 4 285 8 q 269 0 276 0 l 161 0 z "},"g":{"ha":719,"x_min":43,"x_max":679,"o":"m 354 -274 q 116 -230 189 -274 q 43 -99 43 -186 q 69 -2 43 -44 q 151 67 96 40 l 258 28 q 203 -10 221 17 q 185 -72 185 -36 q 224 -142 185 -122 q 360 -161 263 -161 q 503 -141 464 -161 q 542 -68 542 -121 q 524 -13 542 -31 q 467 6 507 4 l 211 21 q 128 54 164 24 q 93 149 93 85 q 114 224 93 193 q 186 292 135 256 l 272 247 q 229 219 242 236 q 217 181 217 201 q 232 149 217 158 q 279 136 247 139 l 507 122 q 637 69 594 117 q 679 -71 679 21 q 601 -226 679 -178 q 354 -274 524 -274 m 365 221 q 168 279 232 221 q 104 458 104 338 q 169 638 104 579 q 369 697 233 697 q 565 638 501 697 q 628 457 628 579 q 565 278 628 336 q 365 221 501 221 m 365 335 q 465 363 438 335 q 492 457 492 390 q 464 555 492 526 q 365 583 436 583 q 268 555 296 583 q 240 457 240 526 q 268 363 240 390 q 365 335 296 335 m 542 619 l 435 663 q 447 769 440 725 q 461 843 454 813 q 478 860 465 860 l 576 860 q 588 844 593 860 q 564 751 574 800 q 542 619 554 701 z "},"ğ":{"ha":719,"x_min":43,"x_max":679,"o":"m 354 -274 q 116 -230 189 -274 q 43 -99 43 -186 q 69 -2 43 -44 q 151 67 96 40 l 258 28 q 203 -10 221 17 q 185 -72 185 -36 q 224 -142 185 -122 q 360 -161 263 -161 q 503 -141 464 -161 q 542 -68 542 -121 q 524 -13 542 -31 q 467 6 507 4 l 211 21 q 128 54 164 24 q 93 149 93 85 q 114 224 93 193 q 186 292 135 256 l 272 247 q 229 219 242 236 q 217 181 217 201 q 232 149 217 158 q 279 136 247 139 l 507 122 q 637 69 594 117 q 679 -71 679 21 q 601 -226 679 -178 q 354 -274 524 -274 m 365 221 q 168 279 232 221 q 104 458 104 338 q 169 638 104 579 q 369 697 233 697 q 565 638 501 697 q 628 457 628 579 q 565 278 628 336 q 365 221 501 221 m 365 335 q 465 363 438 335 q 492 457 492 390 q 464 555 492 526 q 365 583 436 583 q 268 555 296 583 q 240 457 240 526 q 268 363 240 390 q 365 335 296 335 m 371 772 q 290 785 324 772 q 233 815 256 799 q 200 842 211 831 q 194 860 194 847 l 194 942 q 199 955 194 951 q 211 950 204 958 q 274 906 232 931 q 371 881 315 881 q 469 906 428 881 q 531 950 511 931 q 542 955 538 958 q 547 942 547 951 l 547 860 q 546 849 547 854 q 542 842 544 844 q 508 815 531 831 q 452 785 486 799 q 371 772 418 772 z "},"ģ":{"ha":719,"x_min":43,"x_max":679,"o":"m 354 -274 q 116 -230 189 -274 q 43 -99 43 -186 q 69 -2 43 -44 q 151 67 96 40 l 258 28 q 203 -10 221 17 q 185 -72 185 -36 q 224 -142 185 -122 q 360 -161 263 -161 q 503 -141 464 -161 q 542 -68 542 -121 q 524 -13 542 -31 q 467 6 507 4 l 211 21 q 128 54 164 24 q 93 149 93 85 q 114 224 93 193 q 186 292 135 256 l 272 247 q 229 219 242 236 q 217 181 217 201 q 232 149 217 158 q 279 136 247 139 l 507 122 q 637 69 594 117 q 679 -71 679 21 q 601 -226 679 -178 q 354 -274 524 -274 m 365 221 q 168 279 232 221 q 104 458 104 338 q 169 638 104 579 q 369 697 233 697 q 565 638 501 697 q 628 457 628 579 q 565 278 628 336 q 365 221 501 221 m 365 335 q 465 363 438 335 q 492 457 492 390 q 464 555 492 526 q 365 583 436 583 q 268 555 296 583 q 240 457 240 526 q 268 363 240 390 q 365 335 296 335 m 374 779 q 317 796 335 779 q 299 843 299 813 l 299 868 q 301 904 299 888 q 310 939 304 921 l 339 1026 q 354 1035 343 1035 l 413 1035 q 422 1021 425 1035 l 400 928 q 432 906 422 921 q 442 867 442 890 l 442 843 q 423 796 442 813 q 374 779 404 779 z "},"ġ":{"ha":719,"x_min":43,"x_max":679,"o":"m 354 -274 q 116 -230 189 -274 q 43 -99 43 -186 q 69 -2 43 -44 q 151 67 96 40 l 258 28 q 203 -10 221 17 q 185 -72 185 -36 q 224 -142 185 -122 q 360 -161 263 -161 q 503 -141 464 -161 q 542 -68 542 -121 q 524 -13 542 -31 q 467 6 507 4 l 211 21 q 128 54 164 24 q 93 149 93 85 q 114 224 93 193 q 186 292 135 256 l 272 247 q 229 219 242 236 q 217 181 217 201 q 232 149 217 158 q 279 136 247 139 l 507 122 q 637 69 594 117 q 679 -71 679 21 q 601 -226 679 -178 q 354 -274 524 -274 m 365 221 q 168 279 232 221 q 104 458 104 338 q 169 638 104 579 q 369 697 233 697 q 565 638 501 697 q 628 457 628 579 q 565 278 628 336 q 365 221 501 221 m 365 335 q 465 363 438 335 q 492 457 492 390 q 464 555 492 526 q 365 583 436 583 q 268 555 296 583 q 240 457 240 526 q 268 363 240 390 q 365 335 296 335 m 371 788 q 307 810 328 788 q 286 869 286 833 l 286 886 q 307 946 286 924 q 371 968 328 968 q 435 946 415 968 q 456 886 456 924 l 456 869 q 435 810 456 833 q 371 788 415 788 z "},"h":{"ha":774,"x_min":97,"x_max":676,"o":"m 553 0 q 538 15 538 0 l 538 451 q 512 545 538 515 q 433 575 486 575 q 327 543 381 575 q 214 446 274 511 l 213 561 q 297 637 256 607 q 381 682 338 667 q 474 697 424 697 q 625 640 574 697 q 676 467 676 582 l 676 15 q 663 0 676 0 l 553 0 m 113 0 q 97 15 97 0 l 97 933 q 113 949 97 949 l 221 949 q 236 933 236 949 l 236 15 q 221 0 236 0 l 113 0 z "},"ħ":{"ha":776,"x_min":-8,"x_max":679,"o":"m 7 767 q -8 782 -8 767 l -8 857 q 7 871 -8 871 l 375 871 q 390 857 390 871 l 390 782 q 375 767 390 767 l 99 767 l 7 767 m 556 0 q 540 15 540 0 l 540 451 q 515 545 540 515 q 436 575 489 575 q 330 543 383 575 q 217 446 276 511 l 214 561 q 298 637 257 607 q 383 682 339 667 q 476 697 426 697 q 628 640 576 697 q 679 467 679 582 l 679 15 q 664 0 679 0 l 556 0 m 114 0 q 99 15 99 0 l 99 933 q 114 949 99 949 l 224 949 q 238 933 238 949 l 238 15 q 224 0 238 0 l 114 0 z "},"i":{"ha":333,"x_min":82,"x_max":251,"o":"m 113 0 q 97 15 97 0 l 97 665 q 113 681 97 681 l 221 681 q 236 665 236 681 l 236 15 q 221 0 236 0 l 113 0 m 167 788 q 103 810 124 788 q 82 869 82 833 l 82 886 q 103 946 82 924 q 167 968 124 968 q 231 946 211 968 q 251 886 251 924 l 251 869 q 231 810 251 833 q 167 788 211 788 z "},"ı":{"ha":333,"x_min":97,"x_max":236,"o":"m 113 0 q 97 15 97 0 l 97 665 q 113 681 97 681 l 221 681 q 236 665 236 681 l 236 15 q 221 0 236 0 l 113 0 z "},"í":{"ha":333,"x_min":72,"x_max":313,"o":"m 113 0 q 97 15 97 0 l 97 665 q 113 681 97 681 l 221 681 q 236 665 236 681 l 236 15 q 221 0 236 0 l 113 0 m 88 772 q 79 788 72 772 l 172 960 q 190 969 178 969 l 300 969 q 310 965 308 969 q 307 954 313 960 l 188 782 q 171 772 182 772 l 88 772 z "},"î":{"ha":333,"x_min":-17,"x_max":350,"o":"m 113 0 q 97 15 97 0 l 97 665 q 113 681 97 681 l 221 681 q 236 665 236 681 l 236 15 q 221 0 236 0 l 113 0 m 0 765 q -17 772 -17 757 l -17 850 q -7 869 -17 864 l 157 963 q 178 963 167 969 l 340 869 q 350 850 350 864 l 350 772 q 333 765 350 757 l 167 849 l 0 765 z "},"ï":{"ha":333,"x_min":-36,"x_max":369,"o":"m 113 0 q 97 15 97 0 l 97 665 q 113 681 97 681 l 221 681 q 236 665 236 681 l 236 15 q 221 0 236 0 l 113 0 m 43 788 q -17 809 1 788 q -36 864 -36 831 l -36 881 q -17 936 -36 915 q 43 957 1 957 q 103 936 85 957 q 122 881 122 915 l 122 864 q 103 809 122 831 q 43 788 85 788 m 289 788 q 229 809 249 788 q 210 864 210 831 l 210 881 q 229 936 210 915 q 289 957 249 957 q 350 936 331 957 q 369 881 369 915 l 369 864 q 350 809 369 831 q 289 788 331 788 z "},"ì":{"ha":333,"x_min":19,"x_max":260,"o":"m 113 0 q 97 15 97 0 l 97 665 q 113 681 97 681 l 221 681 q 236 665 236 681 l 236 15 q 221 0 236 0 l 113 0 m 160 772 q 143 782 149 772 l 24 954 q 22 965 19 960 q 31 969 24 969 l 140 969 q 158 960 154 969 l 251 788 q 244 772 260 772 l 160 772 z "},"ĳ":{"ha":667,"x_min":82,"x_max":585,"o":"m 113 0 q 97 15 97 0 l 97 665 q 113 681 97 681 l 221 681 q 236 665 236 681 l 236 15 q 221 0 236 0 l 113 0 m 167 788 q 103 810 124 788 q 82 869 82 833 l 82 886 q 103 946 82 924 q 167 968 124 968 q 231 946 211 968 q 251 886 251 924 l 251 869 q 231 810 251 833 q 167 788 211 788 m 400 -264 q 381 -260 389 -271 l 315 -181 q 312 -169 311 -174 q 319 -160 313 -164 q 379 -99 354 -135 q 417 -15 404 -62 q 431 97 431 33 l 431 665 q 435 676 431 672 q 446 681 439 681 l 554 681 q 565 676 561 681 q 569 665 569 672 l 569 92 q 552 -61 569 6 q 497 -178 535 -128 q 400 -264 460 -228 m 500 788 q 436 810 457 788 q 415 869 415 833 l 415 886 q 436 946 415 924 q 500 968 457 968 q 565 946 544 968 q 585 886 585 924 l 585 869 q 565 810 585 833 q 500 788 544 788 z "},"ī":{"ha":333,"x_min":11,"x_max":321,"o":"m 113 0 q 97 15 97 0 l 97 665 q 113 681 97 681 l 221 681 q 236 665 236 681 l 236 15 q 221 0 236 0 l 113 0 m 26 792 q 11 807 11 792 l 11 888 q 26 903 11 903 l 306 903 q 321 888 321 903 l 321 807 q 306 792 321 792 l 26 792 z "},"į":{"ha":333,"x_min":25,"x_max":251,"o":"m 113 0 q 97 15 97 0 l 97 665 q 113 681 97 681 l 221 681 q 236 665 236 681 l 236 15 q 221 0 236 0 l 113 0 m 167 788 q 103 810 124 788 q 82 869 82 833 l 82 886 q 103 946 82 924 q 167 968 124 968 q 231 946 211 968 q 251 886 251 924 l 251 869 q 231 810 251 833 q 167 788 211 788 m 167 -274 q 60 -242 96 -274 q 25 -160 25 -211 l 25 -144 q 70 -37 25 -85 q 193 35 115 10 l 218 18 l 218 3 q 158 -47 179 -17 q 138 -112 138 -78 l 138 -125 q 192 -171 138 -171 q 211 -171 203 -171 q 229 -169 219 -171 q 242 -181 242 -168 l 242 -253 q 240 -263 242 -260 q 229 -268 238 -267 q 197 -272 214 -271 q 167 -274 181 -274 z "},"j":{"ha":333,"x_min":-22,"x_max":253,"o":"m 67 -264 q 47 -260 56 -271 l -18 -181 q -22 -169 -22 -174 q -14 -160 -21 -164 q 46 -99 21 -135 q 84 -15 71 -62 q 97 97 97 33 l 97 665 q 101 676 97 672 q 113 681 106 681 l 221 681 q 232 676 228 681 q 236 665 236 672 l 236 92 q 219 -61 236 6 q 164 -178 201 -128 q 67 -264 126 -228 m 168 788 q 104 810 125 788 q 83 869 83 833 l 83 886 q 104 946 83 924 q 168 968 125 968 q 233 946 213 968 q 253 886 253 924 l 253 869 q 233 810 253 833 q 168 788 213 788 z "},"ȷ":{"ha":333,"x_min":-22,"x_max":236,"o":"m 67 -264 q 47 -260 56 -271 l -18 -181 q -22 -169 -22 -174 q -14 -160 -21 -164 q 46 -99 21 -135 q 84 -15 71 -62 q 97 97 97 33 l 97 665 q 101 676 97 672 q 113 681 106 681 l 221 681 q 232 676 228 681 q 236 665 236 672 l 236 92 q 219 -61 236 6 q 164 -178 201 -128 q 67 -264 126 -228 z "},"k":{"ha":697,"x_min":97,"x_max":679,"o":"m 113 0 q 97 15 97 0 l 97 933 q 113 949 97 949 l 221 949 q 236 933 236 949 l 236 583 q 235 488 236 536 q 233 392 235 440 l 236 392 q 285 450 260 421 q 336 507 310 479 l 486 672 q 503 681 492 681 l 646 681 q 658 675 656 681 q 654 663 661 669 l 424 418 l 674 18 q 676 6 679 11 q 664 0 672 0 l 535 0 q 517 10 524 0 l 325 318 l 236 226 l 236 15 q 221 0 236 0 l 113 0 z "},"ķ":{"ha":697,"x_min":97,"x_max":679,"o":"m 113 0 q 97 15 97 0 l 97 933 q 113 949 97 949 l 221 949 q 236 933 236 949 l 236 583 q 235 488 236 536 q 233 392 235 440 l 236 392 q 285 450 260 421 q 336 507 310 479 l 486 672 q 503 681 492 681 l 646 681 q 658 675 656 681 q 654 663 661 669 l 424 418 l 674 18 q 676 6 679 11 q 664 0 672 0 l 535 0 q 517 10 524 0 l 325 318 l 236 226 l 236 15 q 221 0 236 0 l 113 0 m 317 -333 q 307 -319 306 -333 l 328 -226 q 297 -203 307 -218 q 288 -165 288 -189 l 288 -140 q 306 -94 288 -111 q 356 -78 325 -78 q 413 -94 394 -78 q 431 -140 431 -111 l 431 -167 q 428 -202 431 -185 q 418 -237 425 -219 l 390 -324 q 375 -333 386 -333 l 317 -333 z "},"ĸ":{"ha":697,"x_min":97,"x_max":679,"o":"m 113 0 q 97 15 97 0 l 97 665 q 113 681 97 681 l 221 681 q 236 665 236 681 l 236 583 q 235 488 236 536 q 233 392 235 440 l 236 392 q 285 450 260 421 q 336 507 310 479 l 486 672 q 503 681 492 681 l 646 681 q 658 675 656 681 q 654 663 661 669 l 424 418 l 674 18 q 676 6 679 11 q 664 0 672 0 l 535 0 q 517 10 524 0 l 325 318 l 236 226 l 236 15 q 221 0 236 0 l 113 0 z "},"l":{"ha":333,"x_min":97,"x_max":236,"o":"m 113 0 q 97 15 97 0 l 97 933 q 113 949 97 949 l 221 949 q 236 933 236 949 l 236 15 q 221 0 236 0 l 113 0 z "},"ĺ":{"ha":333,"x_min":81,"x_max":303,"o":"m 113 0 q 97 15 97 0 l 97 933 q 113 949 97 949 l 221 949 q 236 933 236 949 l 236 15 q 221 0 236 0 l 113 0 m 90 1024 q 82 1028 83 1024 q 83 1039 81 1033 l 163 1185 q 179 1196 169 1196 l 292 1196 q 301 1190 299 1196 q 299 1178 304 1185 l 194 1033 q 178 1024 189 1024 l 90 1024 z "},"ľ":{"ha":333,"x_min":97,"x_max":433,"o":"m 113 0 q 97 15 97 0 l 97 933 q 113 949 97 949 l 221 949 q 236 933 236 949 l 236 15 q 221 0 236 0 l 113 0 m 329 732 q 317 747 314 732 l 336 825 q 306 844 315 832 q 296 879 296 857 l 296 913 q 314 951 296 936 q 363 965 332 965 q 416 951 399 965 q 433 913 433 936 l 433 878 q 431 846 433 861 q 422 814 429 831 l 397 743 q 381 732 393 732 l 329 732 z "},"ļ":{"ha":333,"x_min":96,"x_max":238,"o":"m 113 0 q 97 15 97 0 l 97 933 q 113 949 97 949 l 221 949 q 236 933 236 949 l 236 15 q 221 0 236 0 l 113 0 m 125 -333 q 115 -319 114 -333 l 136 -226 q 106 -203 115 -218 q 96 -165 96 -189 l 96 -140 q 115 -94 96 -111 q 164 -78 133 -78 q 221 -94 203 -78 q 239 -140 239 -111 l 239 -167 q 236 -202 239 -185 q 226 -237 233 -219 l 199 -324 q 183 -333 194 -333 l 125 -333 z "},"ł":{"ha":335,"x_min":-10,"x_max":344,"o":"m 8 460 q -5 460 0 457 q -10 471 -10 464 l -10 557 q 3 574 -10 569 l 326 717 q 340 716 335 719 q 344 706 344 713 l 344 619 q 332 603 344 607 l 99 500 l 8 460 m 114 0 q 99 15 99 0 l 99 933 q 114 949 99 949 l 222 949 q 238 933 238 949 l 238 15 q 222 0 238 0 l 114 0 z "},"m":{"ha":1171,"x_min":85,"x_max":1074,"o":"m 113 0 q 97 15 97 0 l 97 508 q 95 588 97 547 q 88 663 93 629 q 104 681 85 681 l 201 681 q 217 669 215 681 q 224 626 219 650 q 229 578 228 603 q 344 667 289 638 q 465 697 399 697 q 579 665 536 697 q 640 571 622 633 q 758 666 701 635 q 883 697 815 697 q 1026 640 978 697 q 1074 468 1074 582 l 1074 15 q 1058 0 1074 0 l 950 0 q 935 15 935 0 l 935 451 q 912 544 935 514 q 840 575 889 575 q 755 549 799 575 q 654 469 711 524 l 654 15 q 640 0 654 0 l 531 0 q 515 15 515 0 l 515 451 q 493 544 515 514 q 422 575 471 575 q 335 549 379 575 q 236 469 292 524 l 236 15 q 221 0 236 0 l 113 0 z "},"n":{"ha":774,"x_min":85,"x_max":676,"o":"m 553 0 q 538 15 538 0 l 538 451 q 512 545 538 515 q 432 575 486 575 q 331 545 381 575 q 211 446 281 515 l 208 558 q 294 636 253 606 q 380 682 336 667 q 472 697 424 697 q 624 640 572 697 q 676 467 676 582 l 676 15 q 663 0 676 0 l 553 0 m 113 0 q 97 15 97 0 l 97 508 q 94 591 97 547 q 88 661 90 635 q 103 681 85 681 l 201 681 q 218 667 215 681 q 224 632 221 654 q 229 585 226 610 q 232 542 232 560 l 236 497 l 236 15 q 221 0 236 0 l 113 0 z "},"ń":{"ha":774,"x_min":85,"x_max":676,"o":"m 553 0 q 538 15 538 0 l 538 451 q 512 545 538 515 q 432 575 486 575 q 331 545 381 575 q 211 446 281 515 l 208 558 q 294 636 253 606 q 380 682 336 667 q 472 697 424 697 q 624 640 572 697 q 676 467 676 582 l 676 15 q 663 0 676 0 l 553 0 m 113 0 q 97 15 97 0 l 97 508 q 94 591 97 547 q 88 661 90 635 q 103 681 85 681 l 201 681 q 218 667 215 681 q 224 632 221 654 q 229 585 226 610 q 232 542 232 560 l 236 497 l 236 15 q 221 0 236 0 l 113 0 m 311 772 q 303 788 296 772 l 396 960 q 414 969 401 969 l 524 969 q 534 965 532 969 q 531 954 536 960 l 411 782 q 394 772 406 772 l 311 772 z "},"ň":{"ha":774,"x_min":85,"x_max":676,"o":"m 553 0 q 538 15 538 0 l 538 451 q 512 545 538 515 q 432 575 486 575 q 331 545 381 575 q 211 446 281 515 l 208 558 q 294 636 253 606 q 380 682 336 667 q 472 697 424 697 q 624 640 572 697 q 676 467 676 582 l 676 15 q 663 0 676 0 l 553 0 m 113 0 q 97 15 97 0 l 97 508 q 94 591 97 547 q 88 661 90 635 q 103 681 85 681 l 201 681 q 218 667 215 681 q 224 632 221 654 q 229 585 226 610 q 232 542 232 560 l 236 497 l 236 15 q 221 0 236 0 l 113 0 m 381 765 l 217 858 q 207 878 207 865 l 207 956 q 224 963 207 972 l 390 879 l 557 963 q 574 956 574 972 l 574 878 q 564 858 574 865 l 401 765 q 381 765 390 758 z "},"ņ":{"ha":774,"x_min":85,"x_max":676,"o":"m 553 0 q 538 15 538 0 l 538 451 q 512 545 538 515 q 432 575 486 575 q 331 545 381 575 q 211 446 281 515 l 208 558 q 294 636 253 606 q 380 682 336 667 q 472 697 424 697 q 624 640 572 697 q 676 467 676 582 l 676 15 q 663 0 676 0 l 553 0 m 113 0 q 97 15 97 0 l 97 508 q 94 591 97 547 q 88 661 90 635 q 103 681 85 681 l 201 681 q 218 667 215 681 q 224 632 221 654 q 229 585 226 610 q 232 542 232 560 l 236 497 l 236 15 q 221 0 236 0 l 113 0 m 354 -333 q 344 -319 343 -333 l 365 -226 q 335 -203 344 -218 q 325 -165 325 -189 l 325 -140 q 344 -94 325 -111 q 393 -78 363 -78 q 450 -94 432 -78 q 468 -140 468 -111 l 468 -167 q 465 -202 468 -185 q 456 -237 463 -219 l 428 -324 q 413 -333 424 -333 l 354 -333 z "},"ŋ":{"ha":774,"x_min":85,"x_max":676,"o":"m 508 -264 q 488 -260 497 -271 l 422 -181 q 419 -169 418 -174 q 426 -160 421 -164 q 488 -98 464 -133 q 525 -15 513 -62 q 538 97 538 33 l 538 451 q 512 545 538 515 q 432 575 486 575 q 342 551 386 575 q 236 469 297 526 l 236 15 q 221 0 236 0 l 113 0 q 97 15 97 0 l 97 508 q 94 591 97 547 q 88 661 90 635 q 103 681 85 681 l 201 681 q 218 667 215 681 q 224 628 221 653 q 229 579 228 604 q 347 668 290 639 q 472 697 403 697 q 624 640 572 697 q 676 467 676 582 l 676 92 q 658 -63 676 4 q 603 -181 640 -131 q 508 -264 567 -231 z "},"ñ":{"ha":774,"x_min":85,"x_max":676,"o":"m 553 0 q 538 15 538 0 l 538 451 q 512 545 538 515 q 432 575 486 575 q 331 545 381 575 q 211 446 281 515 l 208 558 q 294 636 253 606 q 380 682 336 667 q 472 697 424 697 q 624 640 572 697 q 676 467 676 582 l 676 15 q 663 0 676 0 l 553 0 m 113 0 q 97 15 97 0 l 97 508 q 94 591 97 547 q 88 661 90 635 q 103 681 85 681 l 201 681 q 218 667 215 681 q 224 632 221 654 q 229 585 226 610 q 232 542 232 560 l 236 497 l 236 15 q 221 0 236 0 l 113 0 m 461 786 q 410 795 433 786 q 365 813 388 804 q 317 822 343 822 q 267 813 293 822 q 225 796 242 803 q 207 804 207 788 l 207 876 q 215 896 207 890 q 257 919 229 907 q 319 932 285 932 q 378 924 356 932 q 421 906 401 915 q 464 896 440 896 q 514 906 488 896 q 556 922 540 915 q 574 914 574 931 l 574 842 q 565 822 574 829 q 524 799 551 811 q 461 786 497 786 z "},"o":{"ha":749,"x_min":79,"x_max":669,"o":"m 375 -17 q 156 53 232 -17 q 79 263 79 122 l 79 418 q 155 628 79 558 q 375 697 231 697 q 594 628 518 697 q 669 418 669 558 l 669 263 q 594 53 669 122 q 375 -17 519 -17 m 375 104 q 494 146 457 104 q 531 275 531 188 l 531 406 q 494 534 531 492 q 375 576 457 576 q 255 534 292 576 q 218 406 218 492 l 218 275 q 255 146 218 188 q 375 104 292 104 z "},"ó":{"ha":749,"x_min":79,"x_max":669,"o":"m 375 -17 q 156 53 232 -17 q 79 263 79 122 l 79 418 q 155 628 79 558 q 375 697 231 697 q 594 628 518 697 q 669 418 669 558 l 669 263 q 594 53 669 122 q 375 -17 519 -17 m 375 104 q 494 146 457 104 q 531 275 531 188 l 531 406 q 494 534 531 492 q 375 576 457 576 q 255 534 292 576 q 218 406 218 492 l 218 275 q 255 146 218 188 q 375 104 292 104 m 296 772 q 288 788 281 772 l 381 960 q 399 969 386 969 l 508 969 q 519 965 517 969 q 515 954 521 960 l 396 782 q 379 772 390 772 l 296 772 z "},"ô":{"ha":749,"x_min":79,"x_max":669,"o":"m 375 -17 q 156 53 232 -17 q 79 263 79 122 l 79 418 q 155 628 79 558 q 375 697 231 697 q 594 628 518 697 q 669 418 669 558 l 669 263 q 594 53 669 122 q 375 -17 519 -17 m 375 104 q 494 146 457 104 q 531 275 531 188 l 531 406 q 494 534 531 492 q 375 576 457 576 q 255 534 292 576 q 218 406 218 492 l 218 275 q 255 146 218 188 q 375 104 292 104 m 208 765 q 192 772 192 757 l 192 850 q 201 869 192 864 l 365 963 q 386 963 375 969 l 549 869 q 558 850 558 864 l 558 772 q 542 765 558 757 l 375 849 l 208 765 z "},"ö":{"ha":749,"x_min":79,"x_max":669,"o":"m 375 -17 q 156 53 232 -17 q 79 263 79 122 l 79 418 q 155 628 79 558 q 375 697 231 697 q 594 628 518 697 q 669 418 669 558 l 669 263 q 594 53 669 122 q 375 -17 519 -17 m 375 104 q 494 146 457 104 q 531 275 531 188 l 531 406 q 494 534 531 492 q 375 576 457 576 q 255 534 292 576 q 218 406 218 492 l 218 275 q 255 146 218 188 q 375 104 292 104 m 250 788 q 190 809 208 788 q 171 864 171 831 l 171 881 q 190 936 171 915 q 250 957 208 957 q 310 936 292 957 q 329 881 329 915 l 329 864 q 310 809 329 831 q 250 788 292 788 m 496 788 q 436 809 456 788 q 417 864 417 831 l 417 881 q 436 936 417 915 q 496 957 456 957 q 557 936 538 957 q 576 881 576 915 l 576 864 q 557 809 576 831 q 496 788 538 788 z "},"ò":{"ha":749,"x_min":79,"x_max":669,"o":"m 375 -17 q 156 53 232 -17 q 79 263 79 122 l 79 418 q 155 628 79 558 q 375 697 231 697 q 594 628 518 697 q 669 418 669 558 l 669 263 q 594 53 669 122 q 375 -17 519 -17 m 375 104 q 494 146 457 104 q 531 275 531 188 l 531 406 q 494 534 531 492 q 375 576 457 576 q 255 534 292 576 q 218 406 218 492 l 218 275 q 255 146 218 188 q 375 104 292 104 m 368 772 q 351 782 357 772 l 232 954 q 230 965 228 960 q 239 969 232 969 l 349 969 q 367 960 363 969 l 460 788 q 453 772 468 772 l 368 772 z "},"ő":{"ha":749,"x_min":79,"x_max":669,"o":"m 375 -17 q 156 53 232 -17 q 79 263 79 122 l 79 418 q 155 628 79 558 q 375 697 231 697 q 594 628 518 697 q 669 418 669 558 l 669 263 q 594 53 669 122 q 375 -17 519 -17 m 375 104 q 494 146 457 104 q 531 275 531 188 l 531 406 q 494 534 531 492 q 375 576 457 576 q 255 534 292 576 q 218 406 218 492 l 218 275 q 255 146 218 188 q 375 104 292 104 m 215 772 q 206 789 199 772 l 279 963 q 296 974 283 974 l 401 974 q 408 956 418 974 l 317 783 q 299 772 310 772 l 215 772 m 415 772 q 406 789 399 772 l 479 963 q 496 974 483 974 l 601 974 q 608 956 619 974 l 517 783 q 500 772 510 772 l 415 772 z "},"ō":{"ha":749,"x_min":79,"x_max":669,"o":"m 375 -17 q 156 53 232 -17 q 79 263 79 122 l 79 418 q 155 628 79 558 q 375 697 231 697 q 594 628 518 697 q 669 418 669 558 l 669 263 q 594 53 669 122 q 375 -17 519 -17 m 375 104 q 494 146 457 104 q 531 275 531 188 l 531 406 q 494 534 531 492 q 375 576 457 576 q 255 534 292 576 q 218 406 218 492 l 218 275 q 255 146 218 188 q 375 104 292 104 m 235 792 q 219 807 219 792 l 219 888 q 235 903 219 903 l 514 903 q 529 888 529 903 l 529 807 q 514 792 529 792 l 235 792 z "},"ø":{"ha":749,"x_min":8,"x_max":742,"o":"m 24 -71 q 11 -65 14 -71 q 14 -53 8 -60 l 144 122 l 185 165 l 488 574 l 531 643 l 603 740 q 622 750 611 750 l 726 750 q 738 745 735 750 q 735 732 742 740 l 613 568 l 554 500 l 265 111 l 225 43 l 146 -62 q 126 -71 140 -71 l 24 -71 m 375 -17 q 156 53 232 -17 q 79 263 79 122 l 79 418 q 155 628 79 558 q 375 697 231 697 q 594 628 518 697 q 669 418 669 558 l 669 263 q 594 53 669 122 q 375 -17 519 -17 m 375 104 q 494 146 457 104 q 531 275 531 188 l 531 406 q 494 534 531 492 q 375 576 457 576 q 255 534 292 576 q 218 406 218 492 l 218 275 q 255 146 218 188 q 375 104 292 104 z "},"õ":{"ha":749,"x_min":79,"x_max":669,"o":"m 375 -17 q 156 53 232 -17 q 79 263 79 122 l 79 418 q 155 628 79 558 q 375 697 231 697 q 594 628 518 697 q 669 418 669 558 l 669 263 q 594 53 669 122 q 375 -17 519 -17 m 375 104 q 494 146 457 104 q 531 275 531 188 l 531 406 q 494 534 531 492 q 375 576 457 576 q 255 534 292 576 q 218 406 218 492 l 218 275 q 255 146 218 188 q 375 104 292 104 m 446 786 q 395 795 418 786 q 350 813 372 804 q 301 822 328 822 q 252 813 278 822 q 210 796 226 803 q 192 804 192 788 l 192 876 q 200 896 192 890 q 242 919 214 907 q 304 932 269 932 q 363 924 340 932 q 406 906 386 915 q 449 896 425 896 q 499 906 472 896 q 540 922 525 915 q 558 914 558 931 l 558 842 q 550 822 558 829 q 509 799 536 811 q 446 786 482 786 z "},"œ":{"ha":1168,"x_min":79,"x_max":1090,"o":"m 363 -17 q 153 54 226 -17 q 79 258 79 125 l 79 422 q 153 627 79 557 q 361 697 226 697 q 499 672 442 697 q 588 592 556 646 q 683 671 622 644 q 818 697 743 697 q 1020 628 950 697 q 1090 431 1090 560 l 1090 322 q 1076 307 1090 307 l 657 307 l 657 263 q 693 139 657 178 q 811 100 729 100 q 906 120 872 100 q 939 174 939 140 q 956 194 939 194 l 1063 194 q 1078 176 1078 194 q 1006 34 1078 85 q 808 -17 935 -17 q 677 6 731 -17 q 583 86 624 29 q 490 6 543 29 q 363 -17 438 -17 m 369 104 q 483 145 446 104 q 519 271 519 186 l 519 410 q 483 535 519 494 q 369 576 446 576 q 256 535 293 576 q 218 410 218 494 l 218 271 q 256 145 218 186 q 369 104 293 104 m 657 413 l 953 413 l 953 418 q 917 540 953 500 q 807 581 881 581 q 694 540 731 581 q 657 417 657 499 l 657 413 z "},"p":{"ha":749,"x_min":86,"x_max":665,"o":"m 418 -17 q 311 -3 368 -17 q 218 33 254 10 l 215 147 q 299 115 253 126 q 383 103 344 103 q 492 147 458 103 q 526 278 526 190 l 526 428 q 500 540 526 504 q 419 575 474 575 q 326 548 374 575 q 208 456 279 521 l 204 572 q 289 642 249 614 q 371 683 329 669 q 460 697 413 697 q 613 635 561 697 q 665 444 665 572 l 665 263 q 602 54 665 125 q 418 -17 539 -17 m 113 -257 q 97 -242 97 -257 l 97 519 q 94 593 97 554 q 88 663 92 632 q 103 681 86 681 l 201 681 q 218 667 217 681 q 224 638 221 656 q 228 602 226 619 q 229 576 229 585 l 236 503 l 236 -242 q 221 -257 236 -257 l 113 -257 z "},"þ":{"ha":749,"x_min":97,"x_max":665,"o":"m 113 -257 q 97 -242 97 -257 l 97 933 q 113 949 97 949 l 221 949 q 236 933 236 949 l 236 601 q 346 674 293 650 q 460 697 399 697 q 613 635 561 697 q 665 444 665 572 l 665 263 q 602 54 665 125 q 418 -17 539 -17 q 323 -6 374 -17 q 236 24 272 6 l 236 -242 q 221 -257 236 -257 l 113 -257 m 383 103 q 492 147 458 103 q 526 278 526 190 l 526 428 q 500 540 526 504 q 419 575 474 575 q 338 553 379 575 q 236 481 296 532 l 236 136 q 310 111 271 119 q 383 103 350 103 z "},"q":{"ha":754,"x_min":82,"x_max":657,"o":"m 533 -257 q 518 -242 518 -257 l 518 564 q 449 574 486 569 q 382 578 413 578 q 259 536 297 578 q 221 403 221 494 l 221 253 q 246 140 221 175 q 326 104 271 104 q 421 129 374 104 q 538 215 468 154 l 533 94 q 413 10 472 36 q 286 -17 353 -17 q 132 46 182 -17 q 82 236 82 108 l 82 415 q 153 627 82 557 q 371 697 225 697 q 469 690 425 697 q 558 675 513 683 q 657 663 603 667 l 657 -242 q 642 -257 657 -257 l 533 -257 z "},"r":{"ha":500,"x_min":85,"x_max":483,"o":"m 113 0 q 97 15 97 0 l 97 513 q 95 590 97 553 q 88 664 93 626 q 103 681 85 681 l 201 681 q 218 667 217 681 q 226 608 224 642 q 229 551 229 575 l 236 475 l 236 15 q 221 0 236 0 l 113 0 m 221 424 l 215 550 q 282 626 244 593 q 358 678 319 658 q 431 697 397 697 q 468 693 454 697 q 481 676 479 689 q 483 612 483 646 q 478 547 482 578 q 458 535 475 531 q 436 539 449 538 q 410 540 424 540 q 343 526 376 540 q 278 485 310 511 q 221 424 247 460 z "},"ŕ":{"ha":500,"x_min":85,"x_max":483,"o":"m 113 0 q 97 15 97 0 l 97 513 q 95 590 97 553 q 88 664 93 626 q 103 681 85 681 l 201 681 q 218 667 217 681 q 226 608 224 642 q 229 551 229 575 l 236 475 l 236 15 q 221 0 236 0 l 113 0 m 221 424 l 215 550 q 282 626 244 593 q 358 678 319 658 q 431 697 397 697 q 468 693 454 697 q 481 676 479 689 q 483 612 483 646 q 478 547 482 578 q 458 535 475 531 q 436 539 449 538 q 410 540 424 540 q 343 526 376 540 q 278 485 310 511 q 221 424 247 460 m 210 772 q 201 788 194 772 l 294 960 q 313 969 300 969 l 422 969 q 433 965 431 969 q 429 954 435 960 l 310 782 q 293 772 304 772 l 210 772 z "},"ř":{"ha":500,"x_min":85,"x_max":483,"o":"m 113 0 q 97 15 97 0 l 97 513 q 95 590 97 553 q 88 664 93 626 q 103 681 85 681 l 201 681 q 218 667 217 681 q 226 608 224 642 q 229 551 229 575 l 236 475 l 236 15 q 221 0 236 0 l 113 0 m 221 424 l 215 550 q 282 626 244 593 q 358 678 319 658 q 431 697 397 697 q 468 693 454 697 q 481 676 479 689 q 483 612 483 646 q 478 547 482 578 q 458 535 475 531 q 436 539 449 538 q 410 540 424 540 q 343 526 376 540 q 278 485 310 511 q 221 424 247 460 m 279 765 l 115 858 q 106 878 106 865 l 106 956 q 122 963 106 972 l 289 879 l 456 963 q 472 956 472 972 l 472 878 q 463 858 472 865 l 300 765 q 279 765 289 758 z "},"ŗ":{"ha":500,"x_min":85,"x_max":483,"o":"m 113 0 q 97 15 97 0 l 97 513 q 95 590 97 553 q 88 664 93 626 q 103 681 85 681 l 201 681 q 218 667 217 681 q 226 608 224 642 q 229 551 229 575 l 236 475 l 236 15 q 221 0 236 0 l 113 0 m 221 424 l 215 550 q 282 626 244 593 q 358 678 319 658 q 431 697 397 697 q 468 693 454 697 q 481 676 479 689 q 483 612 483 646 q 478 547 482 578 q 458 535 475 531 q 436 539 449 538 q 410 540 424 540 q 343 526 376 540 q 278 485 310 511 q 221 424 247 460 m 128 -333 q 118 -319 117 -333 l 139 -226 q 108 -203 118 -218 q 99 -165 99 -189 l 99 -140 q 117 -94 99 -111 q 167 -78 136 -78 q 224 -94 206 -78 q 242 -140 242 -111 l 242 -167 q 239 -202 242 -185 q 229 -237 236 -219 l 201 -324 q 186 -333 197 -333 l 128 -333 z "},"s":{"ha":649,"x_min":67,"x_max":590,"o":"m 325 -17 q 131 38 194 -17 q 69 204 67 93 q 85 218 69 218 l 192 218 q 204 204 204 218 q 233 122 204 147 q 326 96 263 96 q 420 117 389 96 q 451 178 451 138 q 433 228 451 208 q 374 265 414 247 l 215 332 q 109 403 140 363 q 78 510 78 444 q 138 650 78 603 q 318 697 197 697 q 509 647 443 697 q 575 504 575 597 q 560 490 575 490 l 453 490 q 438 513 438 490 q 408 566 438 547 q 324 585 378 585 q 243 566 269 585 q 217 510 217 547 q 232 467 217 482 q 293 432 247 453 l 451 367 q 558 294 525 336 q 590 185 590 251 q 522 35 590 88 q 325 -17 454 -17 z "},"ś":{"ha":649,"x_min":67,"x_max":590,"o":"m 325 -17 q 131 38 194 -17 q 69 204 67 93 q 85 218 69 218 l 192 218 q 204 204 204 218 q 233 122 204 147 q 326 96 263 96 q 420 117 389 96 q 451 178 451 138 q 433 228 451 208 q 374 265 414 247 l 215 332 q 109 403 140 363 q 78 510 78 444 q 138 650 78 603 q 318 697 197 697 q 509 647 443 697 q 575 504 575 597 q 560 490 575 490 l 453 490 q 438 513 438 490 q 408 566 438 547 q 324 585 378 585 q 243 566 269 585 q 217 510 217 547 q 232 467 217 482 q 293 432 247 453 l 451 367 q 558 294 525 336 q 590 185 590 251 q 522 35 590 88 q 325 -17 454 -17 m 240 772 q 232 788 225 772 l 325 960 q 343 969 331 969 l 453 969 q 463 965 461 969 q 460 954 465 960 l 340 782 q 324 772 335 772 l 240 772 z "},"š":{"ha":649,"x_min":67,"x_max":590,"o":"m 325 -17 q 131 38 194 -17 q 69 204 67 93 q 85 218 69 218 l 192 218 q 204 204 204 218 q 233 122 204 147 q 326 96 263 96 q 420 117 389 96 q 451 178 451 138 q 433 228 451 208 q 374 265 414 247 l 215 332 q 109 403 140 363 q 78 510 78 444 q 138 650 78 603 q 318 697 197 697 q 509 647 443 697 q 575 504 575 597 q 560 490 575 490 l 453 490 q 438 513 438 490 q 408 566 438 547 q 324 585 378 585 q 243 566 269 585 q 217 510 217 547 q 232 467 217 482 q 293 432 247 453 l 451 367 q 558 294 525 336 q 590 185 590 251 q 522 35 590 88 q 325 -17 454 -17 m 310 765 l 146 858 q 136 878 136 865 l 136 956 q 153 963 136 972 l 319 879 l 486 963 q 503 956 503 972 l 503 878 q 493 858 503 865 l 331 765 q 310 765 319 758 z "},"ş":{"ha":649,"x_min":67,"x_max":590,"o":"m 325 -17 q 131 38 194 -17 q 69 204 67 93 q 85 218 69 218 l 192 218 q 204 204 204 218 q 233 122 204 147 q 326 96 263 96 q 420 117 389 96 q 451 178 451 138 q 433 228 451 208 q 374 265 414 247 l 215 332 q 109 403 140 363 q 78 510 78 444 q 138 650 78 603 q 318 697 197 697 q 509 647 443 697 q 575 504 575 597 q 560 490 575 490 l 453 490 q 438 513 438 490 q 408 566 438 547 q 324 585 378 585 q 243 566 269 585 q 217 510 217 547 q 232 467 217 482 q 293 432 247 453 l 451 367 q 558 294 525 336 q 590 185 590 251 q 522 35 590 88 q 325 -17 454 -17 m 311 -274 q 281 -272 296 -274 q 249 -268 265 -271 q 238 -256 238 -267 l 238 -199 q 249 -187 238 -186 q 270 -190 258 -189 q 289 -190 282 -190 q 331 -181 318 -190 q 344 -158 344 -172 l 344 -142 q 333 -115 344 -122 q 299 -107 321 -107 l 267 -107 q 257 -97 257 -107 q 258 -83 257 -90 q 260 -69 258 -75 l 293 36 q 306 46 296 46 l 382 46 q 389 31 394 46 l 363 -54 l 375 -54 q 432 -78 413 -54 q 451 -142 451 -101 l 451 -164 q 417 -247 451 -219 q 311 -274 383 -274 z "},"ș":{"ha":649,"x_min":67,"x_max":590,"o":"m 325 -17 q 131 38 194 -17 q 69 204 67 93 q 85 218 69 218 l 192 218 q 204 204 204 218 q 233 122 204 147 q 326 96 263 96 q 420 117 389 96 q 451 178 451 138 q 433 228 451 208 q 374 265 414 247 l 215 332 q 109 403 140 363 q 78 510 78 444 q 138 650 78 603 q 318 697 197 697 q 509 647 443 697 q 575 504 575 597 q 560 490 575 490 l 453 490 q 438 513 438 490 q 408 566 438 547 q 324 585 378 585 q 243 566 269 585 q 217 510 217 547 q 232 467 217 482 q 293 432 247 453 l 451 367 q 558 294 525 336 q 590 185 590 251 q 522 35 590 88 q 325 -17 454 -17 m 303 -333 q 293 -319 292 -333 l 314 -226 q 283 -203 293 -218 q 274 -165 274 -189 l 274 -140 q 292 -94 274 -111 q 342 -78 311 -78 q 399 -94 381 -78 q 417 -140 417 -111 l 417 -167 q 414 -202 417 -185 q 404 -237 411 -219 l 376 -324 q 361 -333 372 -333 l 303 -333 z "},"ß":{"ha":763,"x_min":97,"x_max":721,"o":"m 490 -17 q 373 1 418 -17 q 306 58 328 19 q 286 156 285 97 q 303 169 288 169 l 399 169 q 413 154 413 169 q 432 111 413 126 q 490 96 451 96 q 560 117 536 96 q 583 179 583 138 q 560 256 583 225 q 501 312 536 288 q 432 362 467 336 q 374 421 397 388 q 350 503 350 454 q 369 576 350 546 q 413 631 388 606 q 456 686 438 657 q 475 757 475 715 q 447 827 475 803 q 363 851 418 851 q 267 815 297 851 q 236 703 236 779 l 236 15 q 221 0 236 0 l 113 0 q 97 15 97 0 l 97 692 q 163 899 97 833 q 363 965 228 965 q 498 942 442 965 q 584 875 554 919 q 614 767 614 831 q 595 675 614 711 q 552 613 576 639 q 509 567 528 588 q 490 519 490 546 q 514 468 490 492 q 572 419 538 444 q 640 361 606 393 q 698 285 675 329 q 721 178 721 242 q 664 33 721 83 q 490 -17 607 -17 z "},"t":{"ha":540,"x_min":25,"x_max":499,"o":"m 350 -17 q 229 8 274 -17 q 165 83 185 32 q 144 210 144 133 l 144 563 l 39 563 q 25 578 25 563 l 25 665 q 39 681 25 681 l 149 681 l 165 847 q 182 861 167 861 l 267 861 q 282 847 282 861 l 283 681 l 482 681 q 497 665 497 681 l 497 578 q 482 563 497 563 l 283 563 l 283 215 q 305 128 283 154 q 379 103 326 103 q 433 109 406 103 q 481 125 460 115 q 499 114 499 132 l 499 24 q 488 7 499 11 q 427 -10 461 -3 q 350 -17 393 -17 z "},"ŧ":{"ha":540,"x_min":25,"x_max":499,"o":"m 53 353 q 38 367 38 353 l 38 444 q 53 460 38 460 l 144 460 l 283 460 l 463 460 q 478 444 478 460 l 478 367 q 463 353 478 353 l 53 353 m 350 -17 q 229 8 274 -17 q 165 83 185 32 q 144 210 144 133 l 144 563 l 39 563 q 25 578 25 563 l 25 665 q 39 681 25 681 l 149 681 l 165 847 q 182 861 167 861 l 267 861 q 282 847 282 861 l 283 681 l 482 681 q 497 665 497 681 l 497 578 q 482 563 497 563 l 283 563 l 283 215 q 305 128 283 154 q 379 103 326 103 q 433 109 406 103 q 481 125 460 115 q 499 114 499 132 l 499 24 q 488 7 499 11 q 427 -10 461 -3 q 350 -17 393 -17 z "},"ť":{"ha":551,"x_min":25,"x_max":499,"o":"m 350 -17 q 229 8 274 -17 q 165 83 185 32 q 144 210 144 133 l 144 563 l 39 563 q 25 578 25 563 l 25 665 q 39 681 25 681 l 149 681 l 165 847 q 182 861 167 861 l 267 861 q 282 847 282 861 l 283 681 l 482 681 q 497 665 497 681 l 497 578 q 482 563 497 563 l 283 563 l 283 215 q 305 128 283 154 q 379 103 326 103 q 433 109 406 103 q 481 125 460 115 q 499 114 499 132 l 499 24 q 488 7 499 11 q 427 -10 461 -3 q 350 -17 393 -17 m 390 732 q 378 747 375 732 l 397 825 q 367 844 376 832 q 357 879 357 857 l 357 913 q 375 951 357 936 q 424 965 393 965 q 477 951 460 965 q 494 913 494 936 l 494 878 q 492 846 494 861 q 483 814 490 831 l 458 743 q 442 732 454 732 l 390 732 z "},"ţ":{"ha":540,"x_min":25,"x_max":499,"o":"m 350 -17 q 229 8 274 -17 q 165 83 185 32 q 144 210 144 133 l 144 563 l 39 563 q 25 578 25 563 l 25 665 q 39 681 25 681 l 149 681 l 165 847 q 182 861 167 861 l 267 861 q 282 847 282 861 l 283 681 l 482 681 q 497 665 497 681 l 497 578 q 482 563 497 563 l 283 563 l 283 215 q 305 128 283 154 q 379 103 326 103 q 433 109 406 103 q 481 125 460 115 q 499 114 499 132 l 499 24 q 488 7 499 11 q 427 -10 461 -3 q 350 -17 393 -17 m 301 -274 q 271 -272 286 -274 q 239 -268 256 -271 q 228 -256 228 -267 l 228 -199 q 239 -187 228 -186 q 260 -190 249 -189 q 279 -190 272 -190 q 322 -181 308 -190 q 335 -158 335 -172 l 335 -142 q 323 -115 335 -122 q 289 -107 311 -107 l 257 -107 q 247 -97 247 -107 q 248 -83 247 -90 q 250 -69 249 -75 l 283 36 q 296 46 286 46 l 372 46 q 379 31 385 46 l 353 -54 l 365 -54 q 422 -78 403 -54 q 442 -142 442 -101 l 442 -164 q 408 -247 442 -219 q 301 -274 374 -274 z "},"ț":{"ha":540,"x_min":25,"x_max":499,"o":"m 350 -17 q 229 8 274 -17 q 165 83 185 32 q 144 210 144 133 l 144 563 l 39 563 q 25 578 25 563 l 25 665 q 39 681 25 681 l 149 681 l 165 847 q 182 861 167 861 l 267 861 q 282 847 282 861 l 283 681 l 482 681 q 497 665 497 681 l 497 578 q 482 563 497 563 l 283 563 l 283 215 q 305 128 283 154 q 379 103 326 103 q 433 109 406 103 q 481 125 460 115 q 499 114 499 132 l 499 24 q 488 7 499 11 q 427 -10 461 -3 q 350 -17 393 -17 m 292 -333 q 282 -319 281 -333 l 303 -226 q 272 -203 282 -218 q 263 -165 263 -189 l 263 -140 q 281 -94 263 -111 q 331 -78 300 -78 q 388 -94 369 -78 q 406 -140 406 -111 l 406 -167 q 403 -202 406 -185 q 393 -237 400 -219 l 365 -324 q 350 -333 361 -333 l 292 -333 z "},"u":{"ha":756,"x_min":97,"x_max":671,"o":"m 282 -17 q 144 42 192 -17 q 97 214 97 101 l 97 665 q 113 681 97 681 l 221 681 q 236 665 236 681 l 236 229 q 258 135 236 165 q 328 104 281 104 q 427 135 378 104 q 546 238 476 167 l 546 121 q 461 47 504 78 q 374 0 418 17 q 282 -17 329 -17 m 558 0 q 540 14 542 0 q 533 68 536 40 q 529 125 531 96 l 519 189 l 519 665 q 535 681 519 681 l 643 681 q 658 665 658 681 l 658 171 q 660 92 658 132 q 668 15 663 53 q 651 0 671 0 l 558 0 z "},"ú":{"ha":756,"x_min":97,"x_max":671,"o":"m 282 -17 q 144 42 192 -17 q 97 214 97 101 l 97 665 q 113 681 97 681 l 221 681 q 236 665 236 681 l 236 229 q 258 135 236 165 q 328 104 281 104 q 427 135 378 104 q 546 238 476 167 l 546 121 q 461 47 504 78 q 374 0 418 17 q 282 -17 329 -17 m 558 0 q 540 14 542 0 q 533 68 536 40 q 529 125 531 96 l 519 189 l 519 665 q 535 681 519 681 l 643 681 q 658 665 658 681 l 658 171 q 660 92 658 132 q 668 15 663 53 q 651 0 671 0 l 558 0 m 299 772 q 290 788 283 772 l 383 960 q 401 969 389 969 l 511 969 q 522 965 519 969 q 518 954 524 960 l 399 782 q 382 772 393 772 l 299 772 z "},"û":{"ha":756,"x_min":97,"x_max":671,"o":"m 282 -17 q 144 42 192 -17 q 97 214 97 101 l 97 665 q 113 681 97 681 l 221 681 q 236 665 236 681 l 236 229 q 258 135 236 165 q 328 104 281 104 q 427 135 378 104 q 546 238 476 167 l 546 121 q 461 47 504 78 q 374 0 418 17 q 282 -17 329 -17 m 558 0 q 540 14 542 0 q 533 68 536 40 q 529 125 531 96 l 519 189 l 519 665 q 535 681 519 681 l 643 681 q 658 665 658 681 l 658 171 q 660 92 658 132 q 668 15 663 53 q 651 0 671 0 l 558 0 m 211 765 q 194 772 194 757 l 194 850 q 204 869 194 864 l 368 963 q 389 963 378 969 l 551 869 q 561 850 561 864 l 561 772 q 544 765 561 757 l 378 849 l 211 765 z "},"ü":{"ha":756,"x_min":97,"x_max":671,"o":"m 282 -17 q 144 42 192 -17 q 97 214 97 101 l 97 665 q 113 681 97 681 l 221 681 q 236 665 236 681 l 236 229 q 258 135 236 165 q 328 104 281 104 q 427 135 378 104 q 546 238 476 167 l 546 121 q 461 47 504 78 q 374 0 418 17 q 282 -17 329 -17 m 558 0 q 540 14 542 0 q 533 68 536 40 q 529 125 531 96 l 519 189 l 519 665 q 535 681 519 681 l 643 681 q 658 665 658 681 l 658 171 q 660 92 658 132 q 668 15 663 53 q 651 0 671 0 l 558 0 m 254 788 q 194 809 213 788 q 175 864 175 831 l 175 881 q 194 936 175 915 q 254 957 213 957 q 315 936 296 957 q 333 881 333 915 l 333 864 q 315 809 333 831 q 254 788 296 788 m 500 788 q 440 809 460 788 q 421 864 421 831 l 421 881 q 440 936 421 915 q 500 957 460 957 q 561 936 542 957 q 581 881 581 915 l 581 864 q 561 809 581 831 q 500 788 542 788 z "},"ù":{"ha":756,"x_min":97,"x_max":671,"o":"m 282 -17 q 144 42 192 -17 q 97 214 97 101 l 97 665 q 113 681 97 681 l 221 681 q 236 665 236 681 l 236 229 q 258 135 236 165 q 328 104 281 104 q 427 135 378 104 q 546 238 476 167 l 546 121 q 461 47 504 78 q 374 0 418 17 q 282 -17 329 -17 m 558 0 q 540 14 542 0 q 533 68 536 40 q 529 125 531 96 l 519 189 l 519 665 q 535 681 519 681 l 643 681 q 658 665 658 681 l 658 171 q 660 92 658 132 q 668 15 663 53 q 651 0 671 0 l 558 0 m 371 772 q 354 782 360 772 l 235 954 q 233 965 231 960 q 242 969 235 969 l 351 969 q 369 960 365 969 l 463 788 q 456 772 471 772 l 371 772 z "},"ű":{"ha":756,"x_min":97,"x_max":671,"o":"m 282 -17 q 144 42 192 -17 q 97 214 97 101 l 97 665 q 113 681 97 681 l 221 681 q 236 665 236 681 l 236 229 q 258 135 236 165 q 328 104 281 104 q 427 135 378 104 q 546 238 476 167 l 546 121 q 461 47 504 78 q 374 0 418 17 q 282 -17 329 -17 m 558 0 q 540 14 542 0 q 533 68 536 40 q 529 125 531 96 l 519 189 l 519 665 q 535 681 519 681 l 643 681 q 658 665 658 681 l 658 171 q 660 92 658 132 q 668 15 663 53 q 651 0 671 0 l 558 0 m 218 772 q 208 789 201 772 l 282 963 q 299 974 286 974 l 404 974 q 411 956 421 974 l 319 783 q 301 772 313 772 l 218 772 m 418 772 q 408 789 401 772 l 482 963 q 499 974 486 974 l 604 974 q 611 956 622 974 l 519 783 q 503 772 513 772 l 418 772 z "},"ū":{"ha":756,"x_min":97,"x_max":671,"o":"m 282 -17 q 144 42 192 -17 q 97 214 97 101 l 97 665 q 113 681 97 681 l 221 681 q 236 665 236 681 l 236 229 q 258 135 236 165 q 328 104 281 104 q 427 135 378 104 q 546 238 476 167 l 546 121 q 461 47 504 78 q 374 0 418 17 q 282 -17 329 -17 m 558 0 q 540 14 542 0 q 533 68 536 40 q 529 125 531 96 l 519 189 l 519 665 q 535 681 519 681 l 643 681 q 658 665 658 681 l 658 171 q 660 92 658 132 q 668 15 663 53 q 651 0 671 0 l 558 0 m 238 792 q 222 807 222 792 l 222 888 q 238 903 222 903 l 517 903 q 532 888 532 903 l 532 807 q 517 792 532 792 l 238 792 z "},"ų":{"ha":756,"x_min":97,"x_max":682,"o":"m 282 -17 q 144 42 192 -17 q 97 214 97 101 l 97 665 q 113 681 97 681 l 221 681 q 236 665 236 681 l 236 229 q 258 135 236 165 q 328 104 281 104 q 427 135 378 104 q 546 238 476 167 l 546 121 q 461 47 504 78 q 374 0 418 17 q 282 -17 329 -17 m 558 0 q 540 14 542 0 q 533 68 536 40 q 529 125 531 96 l 519 189 l 519 665 q 535 681 519 681 l 643 681 q 658 665 658 681 l 658 171 q 660 92 658 132 q 668 15 663 53 q 651 0 671 0 l 558 0 m 607 -274 q 501 -242 536 -274 q 465 -160 465 -211 l 465 -144 q 510 -37 465 -85 q 633 35 556 10 l 658 18 l 658 3 q 599 -47 619 -17 q 578 -112 578 -78 l 578 -125 q 632 -171 578 -171 q 651 -171 643 -171 q 669 -169 660 -171 q 682 -181 682 -168 l 682 -253 q 680 -263 682 -260 q 669 -268 678 -267 q 638 -272 654 -271 q 607 -274 621 -274 z "},"ů":{"ha":756,"x_min":97,"x_max":671,"o":"m 282 -17 q 144 42 192 -17 q 97 214 97 101 l 97 665 q 113 681 97 681 l 221 681 q 236 665 236 681 l 236 229 q 258 135 236 165 q 328 104 281 104 q 427 135 378 104 q 546 238 476 167 l 546 121 q 461 47 504 78 q 374 0 418 17 q 282 -17 329 -17 m 558 0 q 540 14 542 0 q 533 68 536 40 q 529 125 531 96 l 519 189 l 519 665 q 535 681 519 681 l 643 681 q 658 665 658 681 l 658 171 q 660 92 658 132 q 668 15 663 53 q 651 0 671 0 l 558 0 m 378 767 q 260 803 304 767 q 217 907 217 839 q 260 1010 217 975 q 378 1046 303 1046 q 494 1010 450 1046 q 538 907 538 975 q 494 803 538 839 q 378 767 451 767 m 378 844 q 428 862 413 844 q 443 907 443 879 q 428 952 443 935 q 378 969 413 969 q 326 952 342 969 q 311 907 311 935 q 326 862 311 879 q 378 844 342 844 z "},"v":{"ha":700,"x_min":28,"x_max":672,"o":"m 275 0 q 257 13 261 0 l 33 664 q 44 681 28 681 l 161 681 q 179 668 175 681 l 293 300 q 322 206 307 253 q 349 110 336 158 l 351 110 q 378 205 364 158 q 407 299 393 251 l 521 668 q 539 681 525 681 l 656 681 q 667 664 672 681 l 442 13 q 424 0 438 0 l 275 0 z "},"w":{"ha":1010,"x_min":31,"x_max":981,"o":"m 254 0 q 238 13 242 0 l 35 664 q 47 681 31 681 l 163 681 q 179 667 175 681 l 281 304 q 303 215 292 260 q 326 125 315 169 l 329 125 q 356 211 343 168 q 383 299 369 254 l 450 511 l 411 650 q 424 667 407 667 l 528 667 q 544 654 540 667 l 638 299 q 659 211 649 254 q 681 125 669 168 l 683 125 q 706 215 694 169 q 729 303 717 260 l 831 667 q 847 681 835 681 l 964 681 q 975 664 981 681 l 772 13 q 756 0 768 0 l 617 0 q 600 13 604 0 l 561 143 q 535 239 547 190 q 510 346 524 288 l 507 346 q 481 240 494 288 q 451 147 467 193 l 408 13 q 392 0 404 0 l 254 0 z "},"ẃ":{"ha":1010,"x_min":31,"x_max":981,"o":"m 254 0 q 238 13 242 0 l 35 664 q 47 681 31 681 l 163 681 q 179 667 175 681 l 281 304 q 303 215 292 260 q 326 125 315 169 l 329 125 q 356 211 343 168 q 383 299 369 254 l 450 511 l 411 650 q 424 667 407 667 l 528 667 q 544 654 540 667 l 638 299 q 659 211 649 254 q 681 125 669 168 l 683 125 q 706 215 694 169 q 729 303 717 260 l 831 667 q 847 681 835 681 l 964 681 q 975 664 981 681 l 772 13 q 756 0 768 0 l 617 0 q 600 13 604 0 l 561 143 q 535 239 547 190 q 510 346 524 288 l 507 346 q 481 240 494 288 q 451 147 467 193 l 408 13 q 392 0 404 0 l 254 0 m 426 772 q 418 788 411 772 l 511 960 q 529 969 517 969 l 639 969 q 649 965 647 969 q 646 954 651 960 l 526 782 q 510 772 521 772 l 426 772 z "},"ŵ":{"ha":1010,"x_min":31,"x_max":981,"o":"m 254 0 q 238 13 242 0 l 35 664 q 47 681 31 681 l 163 681 q 179 667 175 681 l 281 304 q 303 215 292 260 q 326 125 315 169 l 329 125 q 356 211 343 168 q 383 299 369 254 l 450 511 l 411 650 q 424 667 407 667 l 528 667 q 544 654 540 667 l 638 299 q 659 211 649 254 q 681 125 669 168 l 683 125 q 706 215 694 169 q 729 303 717 260 l 831 667 q 847 681 835 681 l 964 681 q 975 664 981 681 l 772 13 q 756 0 768 0 l 617 0 q 600 13 604 0 l 561 143 q 535 239 547 190 q 510 346 524 288 l 507 346 q 481 240 494 288 q 451 147 467 193 l 408 13 q 392 0 404 0 l 254 0 m 339 765 q 322 772 322 757 l 322 850 q 332 869 322 864 l 496 963 q 517 963 506 969 l 679 869 q 689 850 689 864 l 689 772 q 672 765 689 757 l 506 849 l 339 765 z "},"ẅ":{"ha":1010,"x_min":31,"x_max":981,"o":"m 254 0 q 238 13 242 0 l 35 664 q 47 681 31 681 l 163 681 q 179 667 175 681 l 281 304 q 303 215 292 260 q 326 125 315 169 l 329 125 q 356 211 343 168 q 383 299 369 254 l 450 511 l 411 650 q 424 667 407 667 l 528 667 q 544 654 540 667 l 638 299 q 659 211 649 254 q 681 125 669 168 l 683 125 q 706 215 694 169 q 729 303 717 260 l 831 667 q 847 681 835 681 l 964 681 q 975 664 981 681 l 772 13 q 756 0 768 0 l 617 0 q 600 13 604 0 l 561 143 q 535 239 547 190 q 510 346 524 288 l 507 346 q 481 240 494 288 q 451 147 467 193 l 408 13 q 392 0 404 0 l 254 0 m 381 788 q 320 809 339 788 q 301 864 301 831 l 301 881 q 320 936 301 915 q 381 957 339 957 q 441 936 422 957 q 460 881 460 915 l 460 864 q 441 809 460 831 q 381 788 422 788 m 626 788 q 567 809 586 788 q 547 864 547 831 l 547 881 q 567 936 547 915 q 626 957 586 957 q 688 936 668 957 q 707 881 707 915 l 707 864 q 688 809 707 831 q 626 788 668 788 z "},"ẁ":{"ha":1010,"x_min":31,"x_max":981,"o":"m 254 0 q 238 13 242 0 l 35 664 q 47 681 31 681 l 163 681 q 179 667 175 681 l 281 304 q 303 215 292 260 q 326 125 315 169 l 329 125 q 356 211 343 168 q 383 299 369 254 l 450 511 l 411 650 q 424 667 407 667 l 528 667 q 544 654 540 667 l 638 299 q 659 211 649 254 q 681 125 669 168 l 683 125 q 706 215 694 169 q 729 303 717 260 l 831 667 q 847 681 835 681 l 964 681 q 975 664 981 681 l 772 13 q 756 0 768 0 l 617 0 q 600 13 604 0 l 561 143 q 535 239 547 190 q 510 346 524 288 l 507 346 q 481 240 494 288 q 451 147 467 193 l 408 13 q 392 0 404 0 l 254 0 m 499 772 q 482 782 488 772 l 363 954 q 360 965 358 960 q 369 969 363 969 l 479 969 q 497 960 493 969 l 590 788 q 583 772 599 772 l 499 772 z "},"x":{"ha":679,"x_min":10,"x_max":669,"o":"m 25 0 q 13 6 17 0 q 17 18 10 11 l 253 350 l 32 663 q 29 675 26 669 q 42 681 32 681 l 171 681 q 188 671 182 681 l 276 542 q 308 492 292 518 q 339 442 325 465 l 340 442 q 376 495 358 468 q 411 549 394 522 l 494 671 q 513 681 501 681 l 635 681 q 647 675 644 681 q 644 663 650 669 l 424 354 l 664 18 q 667 6 669 11 q 654 0 664 0 l 525 0 q 508 10 514 0 l 424 131 q 381 195 403 163 q 338 260 360 228 l 336 260 q 296 195 317 228 q 254 131 275 163 l 171 10 q 153 0 165 0 l 25 0 z "},"y":{"ha":700,"x_min":24,"x_max":678,"o":"m 200 -257 q 189 -239 182 -257 l 286 7 l 31 663 q 42 681 24 681 l 160 681 q 176 668 172 681 l 290 356 q 322 265 307 313 q 350 172 336 218 l 353 172 q 383 265 367 218 q 414 356 399 311 l 528 668 q 544 681 532 681 l 658 681 q 671 663 678 681 l 325 -244 q 308 -257 319 -257 l 200 -257 z "},"ý":{"ha":700,"x_min":24,"x_max":678,"o":"m 200 -257 q 189 -239 182 -257 l 286 7 l 31 663 q 42 681 24 681 l 160 681 q 176 668 172 681 l 290 356 q 322 265 307 313 q 350 172 336 218 l 353 172 q 383 265 367 218 q 414 356 399 311 l 528 668 q 544 681 532 681 l 658 681 q 671 663 678 681 l 325 -244 q 308 -257 319 -257 l 200 -257 m 268 772 q 260 788 253 772 l 353 960 q 371 969 358 969 l 481 969 q 491 965 489 969 q 488 954 493 960 l 368 782 q 351 772 363 772 l 268 772 z "},"ŷ":{"ha":700,"x_min":24,"x_max":678,"o":"m 200 -257 q 189 -239 182 -257 l 286 7 l 31 663 q 42 681 24 681 l 160 681 q 176 668 172 681 l 290 356 q 322 265 307 313 q 350 172 336 218 l 353 172 q 383 265 367 218 q 414 356 399 311 l 528 668 q 544 681 532 681 l 658 681 q 671 663 678 681 l 325 -244 q 308 -257 319 -257 l 200 -257 m 181 765 q 164 772 164 757 l 164 850 q 174 869 164 864 l 338 963 q 358 963 347 969 l 521 869 q 531 850 531 864 l 531 772 q 514 765 531 757 l 347 849 l 181 765 z "},"ÿ":{"ha":700,"x_min":24,"x_max":678,"o":"m 200 -257 q 189 -239 182 -257 l 286 7 l 31 663 q 42 681 24 681 l 160 681 q 176 668 172 681 l 290 356 q 322 265 307 313 q 350 172 336 218 l 353 172 q 383 265 367 218 q 414 356 399 311 l 528 668 q 544 681 532 681 l 658 681 q 671 663 678 681 l 325 -244 q 308 -257 319 -257 l 200 -257 m 224 788 q 163 809 182 788 q 144 864 144 831 l 144 881 q 163 936 144 915 q 224 957 182 957 q 284 936 265 957 q 303 881 303 915 l 303 864 q 284 809 303 831 q 224 788 265 788 m 469 788 q 410 809 429 788 q 390 864 390 831 l 390 881 q 410 936 390 915 q 469 957 429 957 q 531 936 511 957 q 550 881 550 915 l 550 864 q 531 809 550 831 q 469 788 511 788 z "},"ỳ":{"ha":700,"x_min":24,"x_max":678,"o":"m 200 -257 q 189 -239 182 -257 l 286 7 l 31 663 q 42 681 24 681 l 160 681 q 176 668 172 681 l 290 356 q 322 265 307 313 q 350 172 336 218 l 353 172 q 383 265 367 218 q 414 356 399 311 l 528 668 q 544 681 532 681 l 658 681 q 671 663 678 681 l 325 -244 q 308 -257 319 -257 l 200 -257 m 342 772 q 325 782 331 772 l 206 954 q 203 965 201 960 q 213 969 206 969 l 322 969 q 340 960 336 969 l 433 788 q 426 772 442 772 l 342 772 z "},"z":{"ha":650,"x_min":31,"x_max":618,"o":"m 46 0 q 31 14 31 0 l 31 17 q 36 36 31 29 l 324 446 q 364 503 343 474 q 406 561 385 533 l 406 563 q 328 563 367 563 q 251 563 290 563 l 79 563 q 64 578 64 563 l 64 665 q 79 681 64 681 l 603 681 q 618 667 618 681 l 618 663 q 617 652 618 657 q 611 640 615 647 l 333 247 q 290 183 311 215 q 243 119 268 151 l 243 118 q 315 118 281 118 q 383 118 349 118 l 586 118 q 600 103 600 118 l 600 15 q 586 0 600 0 l 46 0 z "},"ź":{"ha":650,"x_min":31,"x_max":618,"o":"m 46 0 q 31 14 31 0 l 31 17 q 36 36 31 29 l 324 446 q 364 503 343 474 q 406 561 385 533 l 406 563 q 328 563 367 563 q 251 563 290 563 l 79 563 q 64 578 64 563 l 64 665 q 79 681 64 681 l 603 681 q 618 667 618 681 l 618 663 q 617 652 618 657 q 611 640 615 647 l 333 247 q 290 183 311 215 q 243 119 268 151 l 243 118 q 315 118 281 118 q 383 118 349 118 l 586 118 q 600 103 600 118 l 600 15 q 586 0 600 0 l 46 0 m 261 772 q 253 788 246 772 l 346 960 q 364 969 351 969 l 474 969 q 484 965 482 969 q 481 954 486 960 l 361 782 q 344 772 356 772 l 261 772 z "},"ž":{"ha":650,"x_min":31,"x_max":618,"o":"m 46 0 q 31 14 31 0 l 31 17 q 36 36 31 29 l 324 446 q 364 503 343 474 q 406 561 385 533 l 406 563 q 328 563 367 563 q 251 563 290 563 l 79 563 q 64 578 64 563 l 64 665 q 79 681 64 681 l 603 681 q 618 667 618 681 l 618 663 q 617 652 618 657 q 611 640 615 647 l 333 247 q 290 183 311 215 q 243 119 268 151 l 243 118 q 315 118 281 118 q 383 118 349 118 l 586 118 q 600 103 600 118 l 600 15 q 586 0 600 0 l 46 0 m 331 765 l 167 858 q 157 878 157 865 l 157 956 q 174 963 157 972 l 340 879 l 507 963 q 524 956 524 972 l 524 878 q 514 858 524 865 l 351 765 q 331 765 340 758 z "},"ż":{"ha":650,"x_min":31,"x_max":618,"o":"m 46 0 q 31 14 31 0 l 31 17 q 36 36 31 29 l 324 446 q 364 503 343 474 q 406 561 385 533 l 406 563 q 328 563 367 563 q 251 563 290 563 l 79 563 q 64 578 64 563 l 64 665 q 79 681 64 681 l 603 681 q 618 667 618 681 l 618 663 q 617 652 618 657 q 611 640 615 647 l 333 247 q 290 183 311 215 q 243 119 268 151 l 243 118 q 315 118 281 118 q 383 118 349 118 l 586 118 q 600 103 600 118 l 600 15 q 586 0 600 0 l 46 0 m 340 788 q 276 810 297 788 q 256 869 256 833 l 256 886 q 276 946 256 924 q 340 968 297 968 q 405 946 385 968 q 425 886 425 924 l 425 869 q 405 810 425 833 q 340 788 385 788 z "},"ﬀ":{"ha":1038,"x_min":25,"x_max":1053,"o":"m 161 0 q 150 4 154 0 q 146 15 146 8 l 146 563 l 40 563 q 30 567 35 563 q 25 578 25 572 l 25 665 q 30 676 25 672 q 40 681 35 681 l 146 681 l 146 746 q 207 909 146 853 q 378 965 268 965 q 450 959 414 965 q 510 943 486 953 q 533 921 533 935 l 533 835 q 527 823 533 826 q 503 828 521 819 q 451 842 481 836 q 396 849 421 849 q 313 822 340 849 q 285 740 285 794 l 285 681 l 475 681 q 490 665 490 681 l 490 578 q 487 567 490 572 q 476 563 483 563 l 285 563 l 285 15 q 281 4 285 8 q 269 0 276 0 l 161 0 m 679 0 q 668 4 672 0 q 664 15 664 8 l 664 563 l 558 563 q 548 567 553 563 q 543 578 543 572 l 543 665 q 548 676 543 672 q 558 681 553 681 l 664 681 l 664 746 q 725 909 664 853 q 896 965 786 965 q 968 959 932 965 q 1028 943 1004 953 q 1051 921 1051 935 l 1051 835 q 1045 823 1051 826 q 1021 828 1039 819 q 969 842 999 836 q 914 849 939 849 q 831 822 858 849 q 803 740 803 794 l 803 681 l 993 681 q 1008 665 1008 681 l 1008 578 q 1005 567 1008 572 q 994 563 1001 563 l 803 563 l 803 15 q 799 4 803 8 q 788 0 794 0 l 679 0 z "},"ﬁ":{"ha":797,"x_min":25,"x_max":700,"o":"m 161 0 q 150 4 154 0 q 146 15 146 8 l 146 563 l 40 563 q 30 567 35 563 q 25 578 25 572 l 25 665 q 30 676 25 672 q 40 681 35 681 l 146 681 l 146 739 q 208 910 146 854 q 401 965 271 965 q 485 960 440 965 q 557 950 529 956 q 571 933 571 949 l 571 849 q 553 835 571 832 q 481 848 517 843 q 410 853 446 853 q 316 828 347 853 q 285 754 285 804 l 285 681 l 685 681 q 700 665 700 681 l 700 15 q 685 0 700 0 l 576 0 q 561 15 561 0 l 561 563 l 285 563 l 285 15 q 281 4 285 8 q 269 0 276 0 l 161 0 z "},"ﬂ":{"ha":797,"x_min":25,"x_max":700,"o":"m 161 0 q 150 4 154 0 q 146 15 146 8 l 146 563 l 40 563 q 30 567 35 563 q 25 578 25 572 l 25 665 q 30 676 25 672 q 40 681 35 681 l 146 681 l 146 739 q 211 913 146 860 q 401 965 276 965 q 503 958 454 965 q 581 946 551 950 l 685 949 q 700 933 700 949 l 700 15 q 685 0 700 0 l 576 0 q 561 15 561 0 l 561 836 q 485 847 525 842 q 410 853 446 853 q 317 828 349 853 q 285 754 285 804 l 285 681 l 414 681 q 426 676 422 681 q 429 665 429 672 l 429 578 q 426 567 429 572 q 414 563 422 563 l 285 563 l 285 15 q 281 4 285 8 q 269 0 276 0 l 161 0 z "},"ª":{"ha":551,"x_min":74,"x_max":478,"o":"m 199 442 q 108 476 142 442 q 74 575 74 510 q 123 688 74 653 q 283 732 172 722 l 356 739 l 356 763 q 339 817 356 800 q 278 833 322 833 q 203 788 201 833 q 188 772 203 772 l 114 772 q 97 792 99 772 q 142 889 92 851 q 282 926 193 926 q 419 885 374 926 q 465 761 465 844 l 465 572 q 467 514 465 539 q 471 468 469 489 q 457 451 474 451 l 385 451 q 373 457 376 451 q 368 468 369 463 q 365 489 367 475 q 361 518 364 503 q 281 460 319 479 q 199 442 242 442 m 97 268 q 82 283 82 268 l 82 356 q 97 369 82 369 l 464 369 q 478 356 478 369 l 478 283 q 464 268 478 268 l 97 268 m 229 531 q 286 548 253 531 q 356 599 319 565 l 356 665 l 288 658 q 204 636 228 653 q 181 585 181 619 q 193 543 181 556 q 229 531 206 531 z "},"º":{"ha":560,"x_min":74,"x_max":486,"o":"m 278 442 q 128 497 182 442 q 74 650 74 553 l 74 718 q 128 871 74 815 q 278 926 182 926 q 431 871 375 926 q 486 718 486 815 l 486 650 q 431 497 486 553 q 278 442 375 442 m 97 268 q 83 283 83 268 l 83 356 q 97 369 83 369 l 460 369 q 475 356 475 369 l 475 283 q 460 268 475 268 l 97 268 m 278 542 q 351 569 325 542 q 376 644 376 597 l 376 724 q 351 800 376 774 q 278 826 325 826 q 207 800 232 826 q 182 724 182 774 l 182 644 q 207 569 182 596 q 278 542 232 542 z "},"А":{"ha":794,"x_min":-4,"x_max":799,"o":"m 13 0 q 0 17 -4 0 l 304 897 q 321 910 308 910 l 469 910 q 488 897 483 910 l 794 17 q 782 0 799 0 l 663 0 q 644 13 649 0 l 450 613 q 422 699 436 656 q 394 786 408 743 l 392 786 q 365 701 379 743 q 338 615 351 658 l 146 13 q 128 0 142 0 l 13 0 m 183 203 l 214 321 l 574 321 l 606 203 l 183 203 z "},"Б":{"ha":796,"x_min":111,"x_max":736,"o":"m 126 0 q 111 15 111 0 l 111 894 q 126 910 111 910 l 624 910 q 639 894 639 910 l 639 800 q 624 785 639 785 l 251 785 l 251 563 l 397 563 q 651 494 567 563 q 736 290 736 426 q 649 74 736 149 q 392 0 563 0 l 126 0 m 251 117 l 388 117 q 545 159 493 117 q 597 290 597 201 q 548 412 597 375 q 390 449 499 449 l 251 449 l 251 117 z "},"В":{"ha":806,"x_min":111,"x_max":747,"o":"m 126 0 q 111 15 111 0 l 111 894 q 126 910 111 910 l 386 910 q 628 853 547 910 q 708 683 708 797 q 672 560 708 607 q 556 483 636 513 l 556 481 q 699 406 650 463 q 747 254 747 349 q 660 62 747 124 q 386 0 574 0 l 126 0 m 251 119 l 388 119 q 556 153 506 119 q 607 264 607 186 q 556 378 607 342 q 392 414 504 414 l 251 414 l 251 119 m 251 524 l 381 524 q 523 557 478 524 q 568 661 568 590 q 522 762 568 732 q 369 792 476 792 l 251 792 l 251 524 z "},"Г":{"ha":661,"x_min":111,"x_max":622,"o":"m 125 0 q 111 15 111 0 l 111 894 q 126 910 111 910 l 608 910 q 622 894 622 910 l 622 800 q 608 785 622 785 l 251 785 l 251 15 q 236 0 251 0 l 125 0 z "},"Ѓ":{"ha":661,"x_min":111,"x_max":622,"o":"m 125 0 q 111 15 111 0 l 111 894 q 126 910 111 910 l 608 910 q 622 894 622 910 l 622 800 q 608 785 622 785 l 251 785 l 251 15 q 236 0 251 0 l 125 0 m 304 985 q 296 990 297 985 q 297 1000 294 994 l 376 1146 q 393 1157 383 1157 l 506 1157 q 515 1151 513 1157 q 513 1139 518 1146 l 408 994 q 392 985 403 985 l 304 985 z "},"Ґ":{"ha":661,"x_min":111,"x_max":622,"o":"m 125 0 q 111 15 111 0 l 111 894 q 126 910 111 910 l 608 910 q 622 894 622 910 l 622 800 q 608 785 622 785 l 251 785 l 251 15 q 236 0 251 0 l 125 0 m 488 804 l 488 1088 q 492 1098 488 1094 q 503 1101 496 1101 l 608 1101 q 619 1098 615 1101 q 622 1088 622 1094 l 622 804 l 488 804 z "},"Д":{"ha":853,"x_min":0,"x_max":853,"o":"m 188 22 l 46 25 l 332 897 q 350 910 338 910 l 499 910 q 517 897 513 910 l 806 25 l 658 22 l 496 551 q 459 669 478 610 q 422 786 440 728 l 421 786 q 385 667 403 726 q 349 546 367 607 l 188 22 m 15 -185 q 4 -180 8 -185 q 0 -169 0 -175 l 0 111 q 4 122 0 118 q 15 126 8 126 l 838 126 q 849 122 844 126 q 853 111 853 118 l 853 -169 q 849 -180 853 -175 q 838 -185 844 -185 l 729 -185 q 718 -180 722 -185 q 714 -169 714 -175 l 714 0 l 139 0 l 139 -169 q 135 -180 139 -175 q 124 -185 131 -185 l 15 -185 z "},"Е":{"ha":744,"x_min":111,"x_max":651,"o":"m 126 0 q 111 15 111 0 l 111 894 q 126 910 111 910 l 638 910 q 651 894 651 910 l 651 800 q 638 785 651 785 l 251 785 l 251 521 l 604 521 q 618 507 618 521 l 618 417 q 604 401 618 401 l 251 401 l 251 125 l 638 125 q 651 110 651 125 l 651 15 q 638 0 651 0 l 126 0 z "},"Ѐ":{"ha":744,"x_min":111,"x_max":651,"o":"m 126 0 q 111 15 111 0 l 111 894 q 126 910 111 910 l 638 910 q 651 894 651 910 l 651 800 q 638 785 651 785 l 251 785 l 251 521 l 604 521 q 618 507 618 521 l 618 417 q 604 401 618 401 l 251 401 l 251 125 l 638 125 q 651 110 651 125 l 651 15 q 638 0 651 0 l 126 0 m 375 985 q 358 994 364 985 l 253 1139 q 251 1151 249 1146 q 260 1157 253 1157 l 374 1157 q 389 1146 385 1157 l 469 1000 q 470 990 472 994 q 461 985 468 985 l 375 985 z "},"Ё":{"ha":744,"x_min":111,"x_max":651,"o":"m 126 0 q 111 15 111 0 l 111 894 q 126 910 111 910 l 638 910 q 651 894 651 910 l 651 800 q 638 785 651 785 l 251 785 l 251 521 l 604 521 q 618 507 618 521 l 618 417 q 604 401 618 401 l 251 401 l 251 125 l 638 125 q 651 110 651 125 l 651 15 q 638 0 651 0 l 126 0 m 264 986 q 203 1008 222 986 q 185 1063 185 1029 l 185 1079 q 203 1135 185 1114 q 264 1156 222 1156 q 324 1135 306 1156 q 343 1079 343 1114 l 343 1063 q 324 1008 343 1029 q 264 986 306 986 m 510 986 q 449 1008 468 986 q 431 1063 431 1029 l 431 1079 q 449 1135 431 1114 q 510 1156 468 1156 q 570 1135 551 1156 q 589 1079 589 1114 l 589 1063 q 570 1008 589 1029 q 510 986 551 986 z "},"Ж":{"ha":1207,"x_min":35,"x_max":1172,"o":"m 50 0 q 39 5 43 0 q 39 18 35 10 l 281 469 l 57 892 q 56 905 51 900 q 68 910 60 910 l 188 910 q 199 908 193 910 q 206 900 204 906 l 403 521 l 535 521 l 535 894 q 549 910 535 910 l 657 910 q 672 894 672 910 l 672 521 l 807 521 l 1006 900 q 1013 908 1008 906 q 1024 910 1017 910 l 1139 910 q 1150 905 1146 910 q 1150 892 1154 900 l 925 469 l 1167 18 q 1168 5 1172 10 q 1156 0 1164 0 l 1026 0 q 1008 10 1015 0 l 804 399 l 672 399 l 672 15 q 657 0 672 0 l 549 0 q 535 15 535 0 l 535 399 l 400 399 l 196 10 q 178 0 190 0 l 50 0 z "},"З":{"ha":808,"x_min":68,"x_max":738,"o":"m 379 -17 q 145 44 222 -17 q 71 228 68 104 q 76 242 71 238 q 86 246 81 246 l 192 246 q 206 233 206 246 q 246 135 206 165 q 379 104 286 104 q 544 142 492 104 q 597 261 597 179 q 549 367 597 333 q 390 400 500 400 l 254 400 q 239 415 239 400 l 239 503 q 254 518 239 518 l 365 518 q 517 553 469 518 q 564 665 564 589 q 520 772 564 739 q 381 806 476 806 q 253 776 293 806 q 214 679 214 746 q 200 664 214 664 l 93 664 q 83 669 88 664 q 78 682 79 674 q 154 864 76 801 q 390 926 232 926 q 626 867 547 926 q 704 689 704 807 q 663 551 704 608 q 547 472 621 494 l 547 469 q 690 399 643 451 q 738 260 738 346 q 649 56 738 128 q 379 -17 560 -17 z "},"И":{"ha":918,"x_min":111,"x_max":807,"o":"m 125 0 q 111 15 111 0 l 111 894 q 125 910 111 910 l 232 910 q 247 894 247 910 l 247 489 q 246 356 247 410 q 242 263 244 301 q 236 189 239 224 l 240 189 q 278 261 258 224 q 328 353 297 299 q 408 489 358 407 l 653 899 q 671 910 660 910 l 793 910 q 807 894 807 910 l 807 15 q 793 0 807 0 l 686 0 q 671 15 671 0 l 671 404 q 674 586 671 504 q 682 721 678 668 l 679 721 q 642 650 663 688 q 589 555 622 613 q 499 404 556 497 l 265 11 q 247 0 258 0 l 125 0 z "},"Й":{"ha":918,"x_min":111,"x_max":807,"o":"m 125 0 q 111 15 111 0 l 111 894 q 125 910 111 910 l 232 910 q 247 894 247 910 l 247 489 q 246 356 247 410 q 242 263 244 301 q 236 189 239 224 l 240 189 q 278 261 258 224 q 328 353 297 299 q 408 489 358 407 l 653 899 q 671 910 660 910 l 793 910 q 807 894 807 910 l 807 15 q 793 0 807 0 l 686 0 q 671 15 671 0 l 671 404 q 674 586 671 504 q 682 721 678 668 l 679 721 q 642 650 663 688 q 589 555 622 613 q 499 404 556 497 l 265 11 q 247 0 258 0 l 125 0 m 460 992 q 344 1014 396 992 q 274 1051 293 1036 q 265 1068 265 1058 l 265 1151 q 270 1164 265 1161 q 282 1163 275 1167 q 357 1123 308 1146 q 460 1100 406 1100 q 561 1123 513 1100 q 636 1163 610 1146 q 648 1164 643 1167 q 653 1151 653 1161 l 653 1068 q 644 1051 653 1058 q 574 1014 625 1036 q 460 992 522 992 z "},"Ѝ":{"ha":918,"x_min":111,"x_max":807,"o":"m 125 0 q 111 15 111 0 l 111 894 q 125 910 111 910 l 232 910 q 247 894 247 910 l 247 489 q 246 356 247 410 q 242 263 244 301 q 236 189 239 224 l 240 189 q 278 261 258 224 q 328 353 297 299 q 408 489 358 407 l 653 899 q 671 910 660 910 l 793 910 q 807 894 807 910 l 807 15 q 793 0 807 0 l 686 0 q 671 15 671 0 l 671 404 q 674 586 671 504 q 682 721 678 668 l 679 721 q 642 650 663 688 q 589 555 622 613 q 499 404 556 497 l 265 11 q 247 0 258 0 l 125 0 m 447 985 q 431 994 436 985 l 325 1139 q 323 1151 321 1146 q 332 1157 325 1157 l 446 1157 q 461 1146 457 1157 l 542 1000 q 542 990 544 994 q 533 985 540 985 l 447 985 z "},"К":{"ha":819,"x_min":111,"x_max":824,"o":"m 126 0 q 111 15 111 0 l 111 894 q 126 910 111 910 l 236 910 q 251 894 251 910 l 251 521 l 358 521 l 638 901 q 657 910 644 910 l 781 910 q 793 905 790 910 q 790 892 796 900 l 481 475 l 818 18 q 820 6 824 11 q 808 0 817 0 l 672 0 q 653 10 661 0 l 364 397 l 251 397 l 251 15 q 236 0 251 0 l 126 0 z "},"Ќ":{"ha":819,"x_min":111,"x_max":824,"o":"m 126 0 q 111 15 111 0 l 111 894 q 126 910 111 910 l 236 910 q 251 894 251 910 l 251 521 l 358 521 l 638 901 q 657 910 644 910 l 781 910 q 793 905 790 910 q 790 892 796 900 l 481 475 l 818 18 q 820 6 824 11 q 808 0 817 0 l 672 0 q 653 10 661 0 l 364 397 l 251 397 l 251 15 q 236 0 251 0 l 126 0 m 336 985 q 328 990 329 985 q 329 1000 326 994 l 408 1146 q 425 1157 415 1157 l 538 1157 q 547 1151 544 1157 q 544 1139 550 1146 l 440 994 q 424 985 435 985 l 336 985 z "},"Л":{"ha":786,"x_min":-4,"x_max":790,"o":"m 13 0 q 0 17 -4 0 l 300 897 q 317 910 304 910 l 465 910 q 483 897 479 910 l 786 17 q 774 0 790 0 l 654 0 q 636 13 640 0 l 444 613 q 417 699 431 656 q 390 786 403 743 l 388 786 q 363 700 375 743 q 336 614 350 657 l 146 13 q 128 0 142 0 l 13 0 z "},"М":{"ha":1078,"x_min":90,"x_max":988,"o":"m 106 0 q 90 15 90 0 l 110 894 q 125 910 110 910 l 286 910 q 303 899 297 910 l 540 371 l 775 899 q 792 910 781 910 l 954 910 q 968 894 968 910 l 988 15 q 974 0 988 0 l 865 0 q 851 15 851 0 l 838 524 q 839 629 836 576 q 843 735 842 682 l 839 735 q 795 631 818 683 q 747 526 772 578 l 557 119 q 540 110 553 110 l 536 110 q 519 119 525 110 l 328 532 q 283 633 304 582 q 240 735 261 685 l 238 735 q 241 632 240 685 q 240 528 242 579 l 228 15 q 213 0 228 0 l 106 0 z "},"Н":{"ha":922,"x_min":111,"x_max":811,"o":"m 126 0 q 111 15 111 0 l 111 894 q 126 910 111 910 l 236 910 q 251 894 251 910 l 251 528 l 671 528 l 671 894 q 686 910 671 910 l 797 910 q 811 894 811 910 l 811 15 q 797 0 811 0 l 686 0 q 671 15 671 0 l 671 406 l 251 406 l 251 15 q 236 0 251 0 l 126 0 z "},"О":{"ha":897,"x_min":94,"x_max":803,"o":"m 449 -17 q 183 70 271 -17 q 94 317 94 157 l 94 593 q 183 840 94 754 q 449 926 271 926 q 715 840 626 926 q 803 593 803 754 l 803 317 q 715 70 803 157 q 449 -17 626 -17 m 449 107 q 608 162 554 107 q 663 321 663 217 l 663 589 q 608 749 663 694 q 449 803 554 803 q 290 749 344 803 q 235 589 235 694 l 235 321 q 290 162 235 217 q 449 107 344 107 z "},"П":{"ha":921,"x_min":111,"x_max":810,"o":"m 126 0 q 111 15 111 0 l 111 894 q 126 910 111 910 l 794 910 q 810 894 810 910 l 810 15 q 794 0 810 0 l 685 0 q 669 15 669 0 l 669 785 l 251 785 l 251 15 q 236 0 251 0 l 126 0 z "},"Р":{"ha":765,"x_min":111,"x_max":714,"o":"m 126 0 q 111 15 111 0 l 111 894 q 126 910 111 910 l 369 910 q 628 836 543 910 q 714 621 714 763 q 627 406 714 479 q 369 332 540 332 l 251 332 l 251 15 q 236 0 251 0 l 126 0 m 251 450 l 367 450 q 524 490 474 450 q 574 617 574 531 q 523 749 574 708 q 365 790 472 790 l 251 790 l 251 450 z "},"С":{"ha":886,"x_min":94,"x_max":810,"o":"m 447 -17 q 185 69 275 -17 q 94 317 94 154 l 94 592 q 185 841 94 756 q 449 926 276 926 q 644 889 561 926 q 769 781 728 851 q 796 614 810 711 q 792 600 794 606 q 781 594 789 594 l 669 594 q 656 610 654 594 q 607 753 660 701 q 450 804 554 804 q 290 750 346 804 q 235 592 235 696 l 235 318 q 290 160 235 214 q 450 106 346 106 q 610 158 556 106 q 656 300 665 210 q 669 315 654 315 l 779 315 q 796 296 793 315 q 763 131 804 201 q 640 22 722 61 q 447 -17 558 -17 z "},"Т":{"ha":749,"x_min":44,"x_max":706,"o":"m 319 0 q 304 15 304 0 l 304 785 l 60 785 q 44 800 44 785 l 44 894 q 60 910 44 910 l 690 910 q 706 894 706 910 l 706 800 q 690 785 706 785 l 444 785 l 444 15 q 429 0 444 0 l 319 0 z "},"У":{"ha":776,"x_min":28,"x_max":767,"o":"m 189 0 q 177 5 181 0 q 178 18 174 10 l 325 317 l 31 892 q 31 905 28 900 q 42 910 33 910 l 167 910 q 183 899 179 910 l 333 593 q 366 525 350 558 q 396 456 382 492 l 399 456 q 430 526 414 492 q 463 593 446 560 l 614 899 q 632 910 618 910 l 753 910 q 763 905 760 910 q 763 892 767 900 l 317 11 q 299 0 313 0 l 189 0 z "},"Ў":{"ha":776,"x_min":28,"x_max":767,"o":"m 189 0 q 177 5 181 0 q 178 18 174 10 l 325 317 l 31 892 q 31 905 28 900 q 42 910 33 910 l 167 910 q 183 899 179 910 l 333 593 q 366 525 350 558 q 396 456 382 492 l 399 456 q 430 526 414 492 q 463 593 446 560 l 614 899 q 632 910 618 910 l 753 910 q 763 905 760 910 q 763 892 767 900 l 317 11 q 299 0 313 0 l 189 0 m 397 992 q 282 1014 333 992 q 211 1051 231 1036 q 203 1068 203 1058 l 203 1151 q 208 1164 203 1161 q 219 1163 213 1167 q 294 1123 246 1146 q 397 1100 343 1100 q 499 1123 450 1100 q 574 1163 547 1146 q 585 1164 581 1167 q 590 1151 590 1161 l 590 1068 q 582 1051 590 1058 q 511 1014 563 1036 q 397 992 460 992 z "},"Ф":{"ha":1163,"x_min":94,"x_max":1068,"o":"m 524 -17 q 295 21 392 -17 q 147 136 199 58 q 94 336 94 214 l 94 572 q 147 774 94 696 q 298 888 200 851 q 528 925 396 925 l 635 925 q 864 888 767 925 q 1015 774 961 851 q 1068 572 1068 696 l 1068 336 q 1015 136 1068 214 q 866 21 963 58 q 639 -17 769 -17 l 524 -17 m 524 103 l 638 103 q 796 128 731 103 q 895 206 861 153 q 929 346 929 260 l 929 563 q 895 702 929 649 q 796 781 861 756 q 638 806 731 806 l 524 806 q 367 781 432 806 q 267 702 301 756 q 233 563 233 649 l 233 346 q 267 206 233 260 q 367 128 301 153 q 524 103 432 103 m 525 -100 q 510 -86 510 -100 l 510 33 l 514 58 l 514 851 l 510 876 l 510 996 q 525 1010 510 1010 l 636 1010 q 650 996 650 1010 l 650 876 l 647 851 l 647 58 l 650 33 l 650 -86 q 636 -100 650 -100 l 525 -100 z "},"Х":{"ha":782,"x_min":4,"x_max":778,"o":"m 18 0 q 7 5 10 0 q 8 18 4 10 l 304 468 l 28 892 q 26 905 24 900 q 38 910 28 910 l 171 910 q 188 900 182 910 l 331 678 q 363 625 346 653 q 394 572 379 597 l 396 572 q 428 628 411 600 q 463 683 446 657 l 601 900 q 619 910 608 910 l 747 910 q 759 905 757 910 q 757 892 761 900 l 482 467 l 772 18 q 775 6 778 11 q 764 0 772 0 l 629 0 q 611 10 619 0 l 460 246 q 425 303 443 272 q 390 361 407 333 l 389 361 q 355 305 372 335 q 319 249 338 275 l 168 10 q 150 0 161 0 l 18 0 z "},"Ч":{"ha":879,"x_min":97,"x_max":769,"o":"m 350 292 q 161 353 225 292 q 97 553 97 415 l 97 894 q 113 910 97 910 l 222 910 q 238 894 238 910 l 238 575 q 272 451 238 488 q 386 415 307 415 q 522 443 456 415 q 647 519 589 471 l 647 394 q 556 341 606 364 q 455 305 507 318 q 350 292 403 292 m 643 0 q 629 15 629 0 l 629 894 q 643 910 629 910 l 754 910 q 769 894 769 910 l 769 15 q 754 0 769 0 l 643 0 z "},"Ц":{"ha":918,"x_min":111,"x_max":886,"o":"m 763 -185 q 752 -180 757 -185 q 747 -169 747 -175 l 747 0 l 126 0 q 111 15 111 0 l 111 894 q 126 910 111 910 l 236 910 q 251 894 251 910 l 251 126 l 650 126 l 650 894 q 665 910 650 910 l 776 910 q 790 894 790 910 l 790 126 l 872 126 q 883 122 879 126 q 886 111 886 118 l 886 -169 q 883 -180 886 -175 q 872 -185 879 -185 l 763 -185 z "},"Ш":{"ha":1242,"x_min":111,"x_max":1131,"o":"m 126 0 q 111 15 111 0 l 111 894 q 126 910 111 910 l 236 910 q 251 894 251 910 l 251 126 l 551 126 l 551 894 q 567 910 551 910 l 675 910 q 690 894 690 910 l 690 126 l 990 126 l 990 894 q 1006 910 990 910 l 1115 910 q 1131 894 1131 910 l 1131 15 q 1115 0 1131 0 l 126 0 z "},"Щ":{"ha":1256,"x_min":111,"x_max":1225,"o":"m 1100 -185 q 1090 -180 1094 -185 q 1086 -169 1086 -175 l 1086 0 l 126 0 q 111 15 111 0 l 111 894 q 126 910 111 910 l 236 910 q 251 894 251 910 l 251 126 l 551 126 l 551 894 q 567 910 551 910 l 675 910 q 690 894 690 910 l 690 126 l 990 126 l 990 894 q 1006 910 990 910 l 1115 910 q 1131 894 1131 910 l 1131 126 l 1210 126 q 1221 122 1217 126 q 1225 111 1225 118 l 1225 -169 q 1221 -180 1225 -175 q 1210 -185 1217 -185 l 1100 -185 z "},"Џ":{"ha":921,"x_min":111,"x_max":810,"o":"m 407 -185 q 396 -180 400 -185 q 392 -169 392 -175 l 392 0 l 126 0 q 111 15 111 0 l 111 894 q 126 910 111 910 l 236 910 q 251 894 251 910 l 251 126 l 669 126 l 669 894 q 685 910 669 910 l 794 910 q 810 894 810 910 l 810 15 q 806 4 810 8 q 794 0 801 0 l 531 0 l 531 -169 q 526 -180 531 -175 q 515 -185 522 -185 l 407 -185 z "},"Ь":{"ha":788,"x_min":111,"x_max":735,"o":"m 126 0 q 111 15 111 0 l 111 894 q 126 910 111 910 l 236 910 q 251 894 251 910 l 251 579 l 394 579 q 651 510 567 579 q 735 301 735 440 q 648 77 735 154 q 389 0 561 0 l 126 0 m 251 119 l 385 119 q 542 165 490 119 q 594 301 594 210 q 547 425 594 388 q 389 463 499 463 l 251 463 l 251 119 z "},"Ъ":{"ha":919,"x_min":44,"x_max":868,"o":"m 258 0 q 243 15 243 0 l 243 785 l 60 785 q 44 800 44 785 l 44 894 q 60 910 44 910 l 368 910 q 383 894 383 910 l 383 579 l 528 579 q 784 510 700 579 q 868 301 868 440 q 781 77 868 154 q 522 0 694 0 l 258 0 m 383 119 l 518 119 q 676 165 624 119 q 728 301 728 210 q 679 425 728 388 q 521 463 631 463 l 383 463 l 383 119 z "},"Ы":{"ha":1150,"x_min":111,"x_max":1039,"o":"m 126 0 q 111 15 111 0 l 111 894 q 126 910 111 910 l 236 910 q 251 894 251 910 l 251 579 l 394 579 q 651 510 567 579 q 735 301 735 440 q 648 77 735 154 q 389 0 561 0 l 126 0 m 251 119 l 385 119 q 542 165 490 119 q 594 301 594 210 q 547 425 594 388 q 389 463 499 463 l 251 463 l 251 119 m 914 0 q 899 15 899 0 l 899 894 q 914 910 899 910 l 1024 910 q 1039 894 1039 910 l 1039 15 q 1024 0 1039 0 l 914 0 z "},"Љ":{"ha":1219,"x_min":-4,"x_max":1167,"o":"m 13 0 q 0 17 -4 0 l 300 897 q 317 910 304 910 l 465 910 q 483 897 479 910 l 593 579 l 825 579 q 1083 510 999 579 q 1167 301 1167 440 q 1080 77 1167 154 q 821 0 993 0 l 654 0 q 636 13 640 0 l 444 613 q 417 699 431 656 q 390 786 403 743 l 388 786 q 363 700 375 743 q 336 614 350 657 l 146 13 q 128 0 142 0 l 13 0 m 751 119 l 817 119 q 974 165 922 119 q 1026 301 1026 210 q 978 425 1026 388 q 821 463 929 463 l 632 463 l 751 119 z "},"Њ":{"ha":1347,"x_min":111,"x_max":1296,"o":"m 126 0 q 111 15 111 0 l 111 894 q 126 910 111 910 l 236 910 q 251 894 251 910 l 251 560 l 671 560 l 671 894 q 686 910 671 910 l 796 910 q 811 894 811 910 l 811 560 l 957 560 q 1210 490 1124 560 q 1296 289 1296 419 q 1207 76 1296 151 q 953 0 1118 0 l 686 0 q 671 15 671 0 l 671 440 l 251 440 l 251 15 q 236 0 251 0 l 126 0 m 811 119 l 949 119 q 1103 163 1050 119 q 1156 288 1156 206 q 1106 403 1156 367 q 951 440 1056 440 l 811 440 l 811 119 z "},"Ѕ":{"ha":792,"x_min":57,"x_max":721,"o":"m 386 -17 q 136 55 215 -17 q 67 247 57 126 q 85 271 68 271 l 192 271 q 208 250 208 271 q 254 139 208 174 q 396 104 300 104 q 534 136 488 104 q 581 233 581 168 q 570 288 581 265 q 533 329 560 311 q 464 365 507 347 l 260 450 q 155 511 194 478 q 98 588 115 544 q 81 686 81 631 q 159 864 82 803 q 385 925 236 925 q 562 896 488 925 q 673 810 636 867 q 703 669 710 753 q 686 644 700 644 l 578 644 q 567 650 571 644 q 565 669 564 656 q 521 769 569 733 q 382 806 472 806 q 263 777 303 806 q 221 692 222 749 q 232 639 221 661 q 269 597 243 617 q 342 558 296 578 l 543 474 q 648 414 608 447 q 704 338 688 381 q 721 233 721 294 q 640 49 721 115 q 386 -17 560 -17 z "},"Є":{"ha":853,"x_min":94,"x_max":767,"o":"m 446 -17 q 178 53 263 -17 q 94 278 94 124 l 94 631 q 174 856 94 786 q 419 926 253 926 q 613 898 535 926 q 728 816 692 869 q 756 686 765 763 q 739 658 751 658 l 629 658 q 615 685 615 658 q 595 752 615 726 q 534 791 575 778 q 428 804 493 804 q 279 769 324 804 q 235 653 235 735 l 235 522 l 581 522 q 594 507 594 522 l 594 415 q 581 400 594 400 l 235 400 l 235 261 q 281 142 235 178 q 438 106 328 106 q 547 119 506 106 q 607 158 588 132 q 626 224 626 185 q 639 250 626 250 l 750 251 q 760 243 757 251 q 765 214 764 235 q 733 85 767 138 q 628 8 699 33 q 446 -17 557 -17 z "},"Э":{"ha":847,"x_min":82,"x_max":754,"o":"m 400 -17 q 219 8 290 -17 q 115 85 149 33 q 83 214 82 138 q 87 243 83 235 q 97 251 90 251 l 208 250 q 222 224 222 250 q 241 158 222 185 q 301 119 260 132 q 410 106 343 106 q 567 142 521 106 q 614 265 614 178 l 614 400 l 268 400 q 253 415 253 400 l 253 507 q 268 522 253 522 l 614 522 l 614 647 q 569 769 614 733 q 419 804 525 804 q 314 791 356 804 q 252 752 272 778 q 232 685 232 726 q 219 658 232 658 l 108 658 q 92 686 96 658 q 124 815 88 761 q 238 898 161 869 q 429 926 315 926 q 675 856 596 926 q 754 631 754 786 l 754 279 q 669 53 754 124 q 400 -17 583 -17 z "},"І":{"ha":363,"x_min":111,"x_max":251,"o":"m 126 0 q 111 15 111 0 l 111 894 q 126 910 111 910 l 236 910 q 251 894 251 910 l 251 15 q 236 0 251 0 l 126 0 z "},"Ї":{"ha":363,"x_min":-19,"x_max":383,"o":"m 126 0 q 111 15 111 0 l 111 894 q 126 910 111 910 l 236 910 q 251 894 251 910 l 251 15 q 236 0 251 0 l 126 0 m 60 986 q -1 1008 18 986 q -19 1063 -19 1029 l -19 1079 q -1 1135 -19 1114 q 60 1156 18 1156 q 120 1135 101 1156 q 139 1079 139 1114 l 139 1063 q 120 1008 139 1029 q 60 986 101 986 m 306 986 q 245 1008 264 986 q 226 1063 226 1029 l 226 1079 q 245 1135 226 1114 q 306 1156 264 1156 q 366 1135 347 1156 q 385 1079 385 1114 l 385 1063 q 366 1008 385 1029 q 306 986 347 986 z "},"Ј":{"ha":376,"x_min":-15,"x_max":265,"o":"m 51 -201 q 18 -193 22 -207 l -10 -97 q 14 -75 -15 -82 q 97 -12 69 -61 q 125 121 125 38 l 125 894 q 140 910 125 910 l 250 910 q 265 894 265 910 l 265 128 q 211 -97 265 -15 q 51 -201 157 -178 z "},"Ћ":{"ha":1029,"x_min":44,"x_max":932,"o":"m 319 0 q 304 15 304 0 l 304 785 l 60 785 q 44 800 44 785 l 44 894 q 60 910 44 910 l 715 910 q 731 894 731 910 l 731 800 q 715 785 731 785 l 444 785 l 444 500 q 569 581 503 553 q 707 608 635 608 q 874 547 817 608 q 932 367 932 485 l 932 15 q 918 0 932 0 l 807 0 q 793 15 793 0 l 793 344 q 761 451 793 415 q 663 486 729 486 q 556 460 608 486 q 444 379 504 433 l 444 15 q 429 0 444 0 l 319 0 z "},"Ю":{"ha":1218,"x_min":111,"x_max":1124,"o":"m 786 -17 q 535 71 622 -17 q 449 317 449 158 l 449 593 q 535 839 449 751 q 786 926 622 926 q 1037 839 950 926 q 1124 593 1124 751 l 1124 317 q 1037 71 1124 158 q 786 -17 950 -17 m 126 0 q 111 15 111 0 l 111 894 q 126 910 111 910 l 236 910 q 251 894 251 910 l 251 528 l 500 528 l 500 407 l 251 407 l 251 15 q 236 0 251 0 l 126 0 m 786 106 q 934 160 885 106 q 983 317 983 215 l 983 593 q 934 749 983 694 q 786 804 885 804 q 639 749 689 804 q 589 593 589 694 l 589 317 q 639 160 589 215 q 786 106 689 106 z "},"Я":{"ha":846,"x_min":40,"x_max":736,"o":"m 56 0 q 43 6 46 0 q 44 18 40 11 l 185 261 q 224 329 204 294 q 265 396 244 364 l 265 399 q 143 487 185 425 q 101 640 101 549 q 138 789 101 729 q 248 879 174 849 q 433 910 322 910 l 721 910 q 736 894 736 910 l 736 15 q 721 0 736 0 l 610 0 q 596 15 596 0 l 596 376 l 403 376 l 199 10 q 181 0 193 0 l 56 0 m 443 488 l 596 488 l 596 790 l 436 790 q 288 752 333 790 q 242 631 242 714 q 262 547 242 578 q 326 501 282 515 q 443 488 369 488 z "},"Ђ":{"ha":1029,"x_min":44,"x_max":932,"o":"m 692 -15 q 671 -15 676 -17 q 663 -7 665 -14 l 635 89 q 635 103 632 97 q 656 111 638 108 q 758 162 722 122 q 793 272 793 201 l 793 346 q 762 451 793 417 q 667 486 731 486 q 558 460 611 486 q 444 379 506 433 l 444 15 q 429 0 444 0 l 319 0 q 304 15 304 0 l 304 785 l 60 785 q 44 800 44 785 l 44 894 q 60 910 44 910 l 714 910 q 728 894 728 910 l 728 800 q 714 785 728 785 l 444 785 l 444 500 q 569 581 503 553 q 708 608 636 608 q 874 547 817 608 q 932 367 932 485 l 932 275 q 869 74 932 150 q 692 -15 806 -1 z "},"Ӏ":{"ha":363,"x_min":111,"x_max":251,"o":"m 126 0 q 111 15 111 0 l 111 894 q 126 910 111 910 l 236 910 q 251 894 251 910 l 251 15 q 236 0 251 0 l 126 0 z "},"Ӣ":{"ha":918,"x_min":111,"x_max":807,"o":"m 125 0 q 111 15 111 0 l 111 894 q 125 910 111 910 l 232 910 q 247 894 247 910 l 247 489 q 246 356 247 410 q 242 263 244 301 q 236 189 239 224 l 240 189 q 278 261 258 224 q 328 353 297 299 q 408 489 358 407 l 653 899 q 671 910 660 910 l 793 910 q 807 894 807 910 l 807 15 q 793 0 807 0 l 686 0 q 671 15 671 0 l 671 404 q 674 586 671 504 q 682 721 678 668 l 679 721 q 642 650 663 688 q 589 555 622 613 q 499 404 556 497 l 265 11 q 247 0 258 0 l 125 0 m 304 996 q 289 1010 289 996 l 289 1092 q 304 1107 289 1107 l 611 1107 q 626 1092 626 1107 l 626 1010 q 611 996 626 996 l 304 996 z "},"Ӯ":{"ha":776,"x_min":28,"x_max":767,"o":"m 189 0 q 177 5 181 0 q 178 18 174 10 l 325 317 l 31 892 q 31 905 28 900 q 42 910 33 910 l 167 910 q 183 899 179 910 l 333 593 q 366 525 350 558 q 396 456 382 492 l 399 456 q 430 526 414 492 q 463 593 446 560 l 614 899 q 632 910 618 910 l 753 910 q 763 905 760 910 q 763 892 767 900 l 317 11 q 299 0 313 0 l 189 0 m 243 996 q 228 1010 228 996 l 228 1092 q 243 1107 228 1107 l 550 1107 q 565 1092 565 1107 l 565 1010 q 550 996 565 996 l 243 996 z "},"а":{"ha":693,"x_min":61,"x_max":608,"o":"m 494 0 q 483 6 486 0 q 476 19 479 11 q 470 67 475 32 q 464 132 465 101 l 457 186 l 457 463 q 431 555 457 528 q 342 582 406 582 q 226 500 225 582 q 213 485 226 485 l 106 485 q 89 510 90 485 q 151 647 82 596 q 346 697 221 697 q 535 640 474 697 q 596 464 596 582 l 596 171 q 599 85 596 124 q 606 17 601 46 q 590 0 608 0 l 494 0 m 229 -17 q 104 33 147 -17 q 61 175 61 82 q 89 293 61 247 q 180 364 117 339 q 349 397 243 389 l 479 408 l 478 314 l 353 303 q 231 271 265 296 q 197 188 197 246 q 215 121 197 143 q 271 99 233 99 q 361 128 314 99 q 483 235 408 157 l 486 128 q 398 46 439 78 q 316 -1 357 14 q 229 -17 275 -17 z "},"б":{"ha":758,"x_min":96,"x_max":675,"o":"m 383 -17 q 168 52 240 -17 q 96 258 96 121 l 96 571 q 135 766 96 699 q 239 869 174 833 q 321 902 278 890 q 408 924 364 914 q 491 946 451 933 q 563 979 531 958 q 582 971 576 989 l 610 878 q 604 858 613 865 q 525 822 572 833 q 425 802 478 811 q 325 771 372 793 q 256 706 276 749 q 235 601 235 664 l 235 271 q 269 145 235 186 q 386 104 304 104 q 501 147 467 104 q 536 269 536 190 l 536 390 q 506 492 536 461 q 422 524 476 524 q 312 490 367 524 q 219 400 257 457 l 221 524 q 285 588 249 561 q 366 630 322 614 q 460 646 410 646 q 617 587 558 646 q 675 408 675 528 l 675 258 q 601 53 675 124 q 383 -17 526 -17 z "},"в":{"ha":753,"x_min":96,"x_max":669,"o":"m 374 -17 q 165 51 235 -17 q 96 257 96 119 l 96 710 q 126 849 96 793 q 219 935 157 906 q 374 965 281 965 q 562 914 500 965 q 624 760 624 863 q 593 630 624 685 q 511 551 563 575 l 511 550 q 633 481 596 536 q 669 336 669 426 l 669 269 q 593 56 669 129 q 374 -17 517 -17 m 376 104 q 493 147 456 104 q 531 272 531 189 l 531 342 q 501 437 531 407 q 410 467 472 467 q 359 463 388 467 q 299 453 331 460 q 233 436 268 446 l 233 268 q 267 144 233 183 q 376 104 301 104 m 233 539 l 335 561 q 446 613 404 575 q 488 728 488 651 q 458 819 488 790 q 367 849 429 849 q 267 815 301 849 q 233 718 233 782 l 233 539 z "},"г":{"ha":667,"x_min":64,"x_max":607,"o":"m 321 -17 q 131 22 196 -17 q 65 160 67 61 q 99 285 64 238 q 211 363 135 333 l 368 422 q 434 461 417 440 q 451 514 451 482 q 424 568 451 553 q 338 583 397 583 q 244 565 275 583 q 213 508 213 546 q 199 488 213 488 l 93 488 q 76 508 79 488 q 135 644 68 592 q 338 697 203 697 q 525 652 460 697 q 590 515 590 607 q 556 399 590 443 q 444 326 522 356 l 285 267 q 221 226 239 250 q 204 165 203 203 q 235 108 206 122 q 329 96 265 94 q 432 117 397 97 q 467 182 467 138 q 479 201 467 201 l 585 201 q 595 199 592 201 q 600 182 599 196 q 542 38 607 92 q 321 -17 478 -17 z "},"ѓ":{"ha":667,"x_min":64,"x_max":607,"o":"m 321 -17 q 131 22 196 -17 q 65 160 67 61 q 99 285 64 238 q 211 363 135 333 l 368 422 q 434 461 417 440 q 451 514 451 482 q 424 568 451 553 q 338 583 397 583 q 244 565 275 583 q 213 508 213 546 q 199 488 213 488 l 93 488 q 76 508 79 488 q 135 644 68 592 q 338 697 203 697 q 525 652 460 697 q 590 515 590 607 q 556 399 590 443 q 444 326 522 356 l 285 267 q 221 226 239 250 q 204 165 203 203 q 235 108 206 122 q 329 96 265 94 q 432 117 397 97 q 467 182 467 138 q 479 201 467 201 l 585 201 q 595 199 592 201 q 600 182 599 196 q 542 38 607 92 q 321 -17 478 -17 m 254 772 q 246 788 239 772 l 339 960 q 357 969 344 969 l 467 969 q 477 965 475 969 q 474 954 479 960 l 354 782 q 338 772 349 772 l 254 772 z "},"ґ":{"ha":600,"x_min":13,"x_max":613,"o":"m 128 -17 q 78 -14 100 -17 q 25 1 56 -11 q 13 18 13 6 l 14 106 q 19 115 14 113 q 32 115 24 118 q 69 103 50 107 q 101 99 88 99 q 136 115 125 99 q 151 189 147 132 l 167 428 q 223 623 175 557 q 385 689 271 689 q 456 703 433 689 q 486 739 479 717 q 490 768 490 753 q 490 794 490 783 q 507 806 490 806 l 600 806 q 613 788 613 806 q 606 699 613 736 q 579 638 599 661 q 525 595 558 611 q 422 576 492 579 q 338 539 363 575 q 306 415 313 503 l 289 201 q 242 33 281 83 q 128 -17 204 -17 z "},"д":{"ha":751,"x_min":79,"x_max":654,"o":"m 367 -274 q 167 -224 238 -274 q 104 -93 97 -174 q 121 -71 106 -71 l 228 -71 q 242 -90 242 -71 q 275 -141 242 -122 q 368 -160 308 -160 q 481 -126 447 -160 q 515 -18 515 -92 l 515 25 q 515 70 515 47 q 517 115 515 93 l 515 115 q 403 42 457 65 q 288 19 349 19 q 131 82 183 19 q 79 272 79 144 l 79 415 q 149 627 79 557 q 363 697 218 697 q 463 690 417 697 q 554 675 508 683 q 654 663 600 667 l 654 -6 q 621 -153 654 -93 q 523 -243 588 -212 q 367 -274 458 -274 m 326 140 q 413 162 369 140 q 515 235 456 183 l 515 564 q 444 574 483 569 q 374 578 404 578 q 255 536 292 578 q 218 403 218 494 l 218 289 q 244 176 218 211 q 326 140 271 140 z "},"е":{"ha":728,"x_min":79,"x_max":650,"o":"m 367 -17 q 152 47 225 -17 q 79 238 79 111 l 79 422 q 151 627 79 557 q 365 697 224 697 q 578 629 506 697 q 650 431 650 561 l 650 322 q 636 307 650 307 l 218 307 l 218 263 q 254 139 218 178 q 371 100 290 100 q 465 119 432 100 q 499 179 499 139 q 515 194 499 194 l 622 194 q 638 181 635 194 q 571 35 643 88 q 367 -17 499 -17 m 218 413 l 513 413 l 513 419 q 476 542 513 503 q 367 581 440 581 q 255 540 292 581 q 218 419 218 500 l 218 413 z "},"ѐ":{"ha":728,"x_min":79,"x_max":650,"o":"m 367 -17 q 152 47 225 -17 q 79 238 79 111 l 79 422 q 151 627 79 557 q 365 697 224 697 q 578 629 506 697 q 650 431 650 561 l 650 322 q 636 307 650 307 l 218 307 l 218 263 q 254 139 218 178 q 371 100 290 100 q 465 119 432 100 q 499 179 499 139 q 515 194 499 194 l 622 194 q 638 181 635 194 q 571 35 643 88 q 367 -17 499 -17 m 218 413 l 513 413 l 513 419 q 476 542 513 503 q 367 581 440 581 q 255 540 292 581 q 218 419 218 500 l 218 413 m 356 786 q 339 796 344 786 l 219 968 q 217 978 215 974 q 226 983 219 983 l 336 983 q 354 974 350 983 l 447 801 q 440 786 456 786 l 356 786 z "},"ё":{"ha":728,"x_min":79,"x_max":650,"o":"m 367 -17 q 152 47 225 -17 q 79 238 79 111 l 79 422 q 151 627 79 557 q 365 697 224 697 q 578 629 506 697 q 650 431 650 561 l 650 322 q 636 307 650 307 l 218 307 l 218 263 q 254 139 218 178 q 371 100 290 100 q 465 119 432 100 q 499 179 499 139 q 515 194 499 194 l 622 194 q 638 181 635 194 q 571 35 643 88 q 367 -17 499 -17 m 218 413 l 513 413 l 513 419 q 476 542 513 503 q 367 581 440 581 q 255 540 292 581 q 218 419 218 500 l 218 413 m 238 801 q 177 823 196 801 q 158 878 158 844 l 158 894 q 177 950 158 929 q 238 971 196 971 q 298 950 279 971 q 317 894 317 929 l 317 878 q 298 823 317 844 q 238 801 279 801 m 483 801 q 424 823 443 801 q 404 878 404 844 l 404 894 q 424 950 404 929 q 483 971 443 971 q 544 950 525 971 q 564 894 564 929 l 564 878 q 544 823 564 844 q 483 801 525 801 z "},"ж":{"ha":1000,"x_min":19,"x_max":981,"o":"m 33 0 q 22 6 25 0 q 24 18 19 11 l 231 375 l 46 663 q 44 675 42 669 q 56 681 46 681 l 178 681 q 197 671 192 681 l 347 417 l 431 417 l 431 933 q 446 949 431 949 l 554 949 q 569 933 569 949 l 569 417 l 653 417 l 803 671 q 822 681 808 681 l 944 681 q 956 675 954 681 q 953 663 958 669 l 769 375 l 976 18 q 978 6 981 11 q 965 0 975 0 l 839 0 q 822 8 828 0 l 656 307 l 569 307 l 569 15 q 554 0 569 0 l 446 0 q 431 15 431 0 l 431 307 l 342 307 l 176 8 q 158 0 171 0 l 33 0 z "},"з":{"ha":665,"x_min":38,"x_max":594,"o":"m 304 -274 q 157 -248 218 -274 q 67 -176 96 -222 q 46 -68 38 -131 q 53 -49 49 -54 q 64 -44 57 -44 l 169 -44 q 183 -67 183 -44 q 214 -135 182 -110 q 306 -160 246 -160 q 418 -124 381 -160 q 456 -21 456 -89 l 456 57 q 417 148 456 118 q 296 178 378 178 l 185 178 q 174 182 178 178 q 169 192 169 186 l 169 278 q 174 290 169 286 q 185 293 178 293 l 283 293 q 395 331 356 293 q 435 432 435 368 l 435 464 q 403 555 435 525 q 306 585 372 585 q 221 564 250 585 q 192 506 192 543 q 189 490 192 496 q 178 485 186 485 l 72 485 q 53 510 54 485 q 79 608 49 567 q 172 674 110 650 q 319 697 235 697 q 506 644 443 697 q 569 485 569 590 l 569 435 q 538 324 569 374 q 450 247 507 274 l 450 246 q 559 179 524 229 q 594 61 594 129 l 594 -8 q 562 -151 594 -92 q 465 -242 529 -211 q 304 -274 400 -274 z "},"и":{"ha":756,"x_min":97,"x_max":671,"o":"m 282 -17 q 144 42 192 -17 q 97 214 97 101 l 97 665 q 113 681 97 681 l 221 681 q 236 665 236 681 l 236 229 q 258 135 236 165 q 328 104 281 104 q 427 135 378 104 q 546 238 476 167 l 546 121 q 461 47 504 78 q 374 0 418 17 q 282 -17 329 -17 m 558 0 q 540 14 542 0 q 533 68 536 40 q 529 125 531 96 l 519 189 l 519 665 q 535 681 519 681 l 643 681 q 658 665 658 681 l 658 171 q 660 92 658 132 q 668 15 663 53 q 651 0 671 0 l 558 0 z "},"й":{"ha":756,"x_min":97,"x_max":671,"o":"m 282 -17 q 144 42 192 -17 q 97 214 97 101 l 97 665 q 113 681 97 681 l 221 681 q 236 665 236 681 l 236 229 q 258 135 236 165 q 328 104 281 104 q 427 135 378 104 q 546 238 476 167 l 546 121 q 461 47 504 78 q 374 0 418 17 q 282 -17 329 -17 m 558 0 q 540 14 542 0 q 533 68 536 40 q 529 125 531 96 l 519 189 l 519 665 q 535 681 519 681 l 643 681 q 658 665 658 681 l 658 171 q 660 92 658 132 q 668 15 663 53 q 651 0 671 0 l 558 0 m 378 772 q 297 785 331 772 q 240 815 263 799 q 207 842 218 831 q 201 860 201 847 l 201 942 q 206 955 201 951 q 218 950 211 958 q 281 906 239 931 q 378 881 322 881 q 476 906 435 881 q 538 950 518 931 q 549 955 544 958 q 554 942 554 951 l 554 860 q 553 849 554 854 q 549 842 551 844 q 515 815 538 831 q 459 785 493 799 q 378 772 425 772 z "},"ѝ":{"ha":756,"x_min":97,"x_max":671,"o":"m 282 -17 q 144 42 192 -17 q 97 214 97 101 l 97 665 q 113 681 97 681 l 221 681 q 236 665 236 681 l 236 229 q 258 135 236 165 q 328 104 281 104 q 427 135 378 104 q 546 238 476 167 l 546 121 q 461 47 504 78 q 374 0 418 17 q 282 -17 329 -17 m 558 0 q 540 14 542 0 q 533 68 536 40 q 529 125 531 96 l 519 189 l 519 665 q 535 681 519 681 l 643 681 q 658 665 658 681 l 658 171 q 660 92 658 132 q 668 15 663 53 q 651 0 671 0 l 558 0 m 371 772 q 354 782 360 772 l 235 954 q 233 965 231 960 q 242 969 235 969 l 351 969 q 369 960 365 969 l 463 788 q 456 772 471 772 l 371 772 z "},"к":{"ha":690,"x_min":97,"x_max":688,"o":"m 683 18 q 685 6 688 11 q 674 0 682 0 l 543 0 q 525 8 531 0 l 326 306 l 236 306 l 236 15 q 221 0 236 0 l 113 0 q 97 15 97 0 l 97 933 q 113 949 97 949 l 221 949 q 236 933 236 949 l 236 418 l 325 418 l 507 671 q 526 681 514 681 l 651 681 q 664 675 661 681 q 661 663 667 669 l 446 374 l 683 18 z "},"ќ":{"ha":690,"x_min":97,"x_max":688,"o":"m 683 18 q 685 6 688 11 q 674 0 682 0 l 543 0 q 525 8 531 0 l 326 306 l 236 306 l 236 15 q 221 0 236 0 l 113 0 q 97 15 97 0 l 97 933 q 113 949 97 949 l 221 949 q 236 933 236 949 l 236 418 l 325 418 l 507 671 q 526 681 514 681 l 651 681 q 664 675 661 681 q 661 663 667 669 l 446 374 l 683 18 m 321 772 q 313 788 306 772 l 406 960 q 424 969 411 969 l 533 969 q 544 965 542 969 q 540 954 546 960 l 421 782 q 404 772 415 772 l 321 772 z "},"л":{"ha":647,"x_min":0,"x_max":647,"o":"m 18 0 q 7 18 0 0 l 242 661 q 265 681 249 681 l 382 681 q 406 661 399 681 l 640 18 q 629 0 647 0 l 513 0 q 496 13 500 0 l 378 368 q 350 448 364 408 q 325 528 336 488 l 322 528 q 298 447 311 486 q 271 365 285 407 l 151 13 q 135 0 147 0 l 18 0 z "},"м":{"ha":878,"x_min":85,"x_max":792,"o":"m 100 0 q 85 15 85 0 l 97 665 q 113 681 97 681 l 226 681 q 243 668 238 681 l 439 285 l 633 668 q 650 681 640 681 l 765 681 q 781 665 781 681 l 792 15 q 776 0 792 0 l 675 0 q 660 15 660 0 l 657 318 q 658 366 657 338 q 662 425 660 394 q 665 481 664 456 l 661 481 q 631 413 647 446 q 601 356 615 381 l 453 88 q 439 81 447 81 q 431 82 435 81 q 425 88 428 83 l 275 356 q 247 413 261 381 q 215 481 232 446 l 211 481 q 215 425 214 456 q 218 366 217 394 q 219 318 219 338 l 217 15 q 203 0 217 0 l 100 0 z "},"н":{"ha":757,"x_min":97,"x_max":661,"o":"m 536 0 q 522 15 522 0 l 522 665 q 536 681 522 681 l 646 681 q 661 665 661 681 l 661 15 q 646 0 661 0 l 536 0 m 113 0 q 97 15 97 0 l 97 665 q 113 681 97 681 l 221 681 q 236 665 236 681 l 236 15 q 221 0 236 0 l 113 0 m 215 288 l 215 406 l 549 406 l 549 288 l 215 288 z "},"о":{"ha":749,"x_min":79,"x_max":669,"o":"m 375 -17 q 156 53 232 -17 q 79 263 79 122 l 79 418 q 155 628 79 558 q 375 697 231 697 q 594 628 518 697 q 669 418 669 558 l 669 263 q 594 53 669 122 q 375 -17 519 -17 m 375 104 q 494 146 457 104 q 531 275 531 188 l 531 406 q 494 534 531 492 q 375 576 457 576 q 255 534 292 576 q 218 406 218 492 l 218 275 q 255 146 218 188 q 375 104 292 104 z "},"п":{"ha":774,"x_min":85,"x_max":676,"o":"m 553 0 q 538 15 538 0 l 538 451 q 512 545 538 515 q 432 575 486 575 q 331 545 381 575 q 211 446 281 515 l 208 558 q 294 636 253 606 q 380 682 336 667 q 472 697 424 697 q 624 640 572 697 q 676 467 676 582 l 676 15 q 663 0 676 0 l 553 0 m 113 0 q 97 15 97 0 l 97 508 q 94 591 97 547 q 88 661 90 635 q 103 681 85 681 l 201 681 q 218 667 215 681 q 224 632 221 654 q 229 585 226 610 q 232 542 232 560 l 236 497 l 236 15 q 221 0 236 0 l 113 0 z "},"р":{"ha":749,"x_min":86,"x_max":665,"o":"m 418 -17 q 311 -3 368 -17 q 218 33 254 10 l 215 147 q 299 115 253 126 q 383 103 344 103 q 492 147 458 103 q 526 278 526 190 l 526 428 q 500 540 526 504 q 419 575 474 575 q 326 548 374 575 q 208 456 279 521 l 204 572 q 289 642 249 614 q 371 683 329 669 q 460 697 413 697 q 613 635 561 697 q 665 444 665 572 l 665 263 q 602 54 665 125 q 418 -17 539 -17 m 113 -257 q 97 -242 97 -257 l 97 519 q 94 593 97 554 q 88 663 92 632 q 103 681 86 681 l 201 681 q 218 667 217 681 q 224 638 221 656 q 228 602 226 619 q 229 576 229 585 l 236 503 l 236 -242 q 221 -257 236 -257 l 113 -257 z "},"с":{"ha":724,"x_min":79,"x_max":649,"o":"m 372 -17 q 154 54 229 -17 q 79 257 79 125 l 79 422 q 156 626 79 556 q 374 697 232 697 q 522 670 461 697 q 616 596 583 643 q 647 486 649 549 q 632 456 646 456 l 525 456 q 511 478 511 456 q 474 551 511 525 q 375 576 438 576 q 257 536 296 576 q 218 410 218 496 l 218 271 q 257 145 218 186 q 374 104 296 104 q 474 132 438 104 q 510 201 510 160 q 524 224 510 224 l 631 224 q 646 210 644 224 q 577 44 647 106 q 372 -17 507 -17 z "},"т":{"ha":1171,"x_min":85,"x_max":1074,"o":"m 113 0 q 97 15 97 0 l 97 508 q 95 588 97 547 q 88 663 93 629 q 104 681 85 681 l 201 681 q 217 669 215 681 q 224 626 219 650 q 229 578 228 603 q 344 667 289 638 q 465 697 399 697 q 579 665 536 697 q 640 571 622 633 q 758 666 701 635 q 883 697 815 697 q 1026 640 978 697 q 1074 468 1074 582 l 1074 15 q 1058 0 1074 0 l 950 0 q 935 15 935 0 l 935 451 q 912 544 935 514 q 840 575 889 575 q 755 549 799 575 q 654 469 711 524 l 654 15 q 640 0 654 0 l 531 0 q 515 15 515 0 l 515 451 q 493 544 515 514 q 422 575 471 575 q 335 549 379 575 q 236 469 292 524 l 236 15 q 221 0 236 0 l 113 0 z "},"у":{"ha":700,"x_min":24,"x_max":678,"o":"m 200 -257 q 189 -239 182 -257 l 286 7 l 31 663 q 42 681 24 681 l 160 681 q 176 668 172 681 l 290 356 q 322 265 307 313 q 350 172 336 218 l 353 172 q 383 265 367 218 q 414 356 399 311 l 528 668 q 544 681 532 681 l 658 681 q 671 663 678 681 l 325 -244 q 308 -257 319 -257 l 200 -257 z "},"ў":{"ha":700,"x_min":24,"x_max":678,"o":"m 200 -257 q 189 -239 182 -257 l 286 7 l 31 663 q 42 681 24 681 l 160 681 q 176 668 172 681 l 290 356 q 322 265 307 313 q 350 172 336 218 l 353 172 q 383 265 367 218 q 414 356 399 311 l 528 668 q 544 681 532 681 l 658 681 q 671 663 678 681 l 325 -244 q 308 -257 319 -257 l 200 -257 m 347 772 q 266 785 300 772 q 210 815 232 799 q 176 842 188 831 q 171 860 171 847 l 171 942 q 176 955 171 951 q 188 950 181 958 q 250 906 208 931 q 347 881 292 881 q 446 906 404 881 q 507 950 488 931 q 519 955 514 958 q 524 942 524 951 l 524 860 q 522 849 524 854 q 518 842 521 844 q 485 815 507 831 q 428 785 463 799 q 347 772 394 772 z "},"ф":{"ha":982,"x_min":79,"x_max":901,"o":"m 400 -17 q 160 51 242 -17 q 79 256 79 119 l 79 425 q 160 629 79 561 q 400 697 242 697 l 581 697 q 821 629 740 697 q 901 425 901 561 l 901 256 q 821 51 901 119 q 581 -17 740 -17 l 400 -17 m 392 100 l 590 100 q 720 142 676 100 q 764 268 764 183 l 764 413 q 720 540 764 500 q 590 581 676 581 l 392 581 q 262 540 306 581 q 218 413 218 500 l 218 268 q 262 142 218 183 q 392 100 306 100 m 436 -257 q 421 -242 421 -257 l 421 18 l 424 51 l 424 621 l 421 664 l 421 935 q 436 950 421 950 l 544 950 q 560 935 560 950 l 560 661 l 558 617 l 558 57 l 560 21 l 560 -242 q 544 -257 560 -257 l 436 -257 z "},"х":{"ha":679,"x_min":10,"x_max":669,"o":"m 25 0 q 13 6 17 0 q 17 18 10 11 l 253 350 l 32 663 q 29 675 26 669 q 42 681 32 681 l 171 681 q 188 671 182 681 l 276 542 q 308 492 292 518 q 339 442 325 465 l 340 442 q 376 495 358 468 q 411 549 394 522 l 494 671 q 513 681 501 681 l 635 681 q 647 675 644 681 q 644 663 650 669 l 424 354 l 664 18 q 667 6 669 11 q 654 0 664 0 l 525 0 q 508 10 514 0 l 424 131 q 381 195 403 163 q 338 260 360 228 l 336 260 q 296 195 317 228 q 254 131 275 163 l 171 10 q 153 0 165 0 l 25 0 z "},"ч":{"ha":728,"x_min":76,"x_max":631,"o":"m 507 0 q 492 15 492 0 l 492 289 q 382 215 440 243 q 263 186 324 186 q 124 243 171 186 q 76 408 76 300 l 76 665 q 92 681 76 681 l 200 681 q 215 665 215 681 l 215 438 q 238 338 215 371 q 306 304 260 304 q 403 333 356 304 q 492 406 450 361 l 492 665 q 507 681 492 681 l 615 681 q 631 665 631 681 l 631 15 q 615 0 631 0 l 507 0 z "},"ц":{"ha":769,"x_min":97,"x_max":754,"o":"m 640 -168 q 629 -164 633 -168 q 625 -153 625 -160 l 625 0 l 567 0 l 658 118 l 740 118 q 751 114 747 118 q 754 103 754 110 l 754 -153 q 751 -164 754 -160 q 740 -168 747 -168 l 640 -168 m 282 -17 q 144 42 192 -17 q 97 214 97 101 l 97 665 q 113 681 97 681 l 221 681 q 236 665 236 681 l 236 229 q 258 135 236 165 q 328 104 281 104 q 427 135 378 104 q 546 238 476 167 l 546 121 q 461 47 504 78 q 374 0 418 17 q 282 -17 329 -17 m 558 0 q 540 14 542 0 q 533 68 536 40 q 529 125 531 96 l 519 189 l 519 665 q 535 681 519 681 l 643 681 q 658 665 658 681 l 658 171 q 660 92 658 132 q 668 15 663 53 q 651 0 671 0 l 558 0 z "},"ш":{"ha":1154,"x_min":97,"x_max":1069,"o":"m 282 -17 q 144 41 192 -17 q 97 213 97 99 l 97 665 q 113 681 97 681 l 221 681 q 236 665 236 681 l 236 229 q 258 135 236 167 q 325 104 279 104 q 408 131 365 104 q 507 211 451 157 l 507 665 q 522 681 507 681 l 632 681 q 646 665 646 681 l 646 229 q 668 135 646 167 q 736 104 690 104 q 819 131 776 104 q 918 211 863 157 l 918 665 q 933 681 918 681 l 1042 681 q 1057 665 1057 681 l 1057 171 q 1059 92 1057 132 q 1067 18 1061 51 q 1050 0 1069 0 l 951 0 q 938 11 939 0 q 931 54 935 31 q 925 103 928 78 q 811 13 865 43 q 693 -17 757 -17 q 582 15 624 -17 q 522 108 540 47 q 404 15 460 46 q 282 -17 349 -17 z "},"щ":{"ha":1169,"x_min":97,"x_max":1156,"o":"m 1040 -168 q 1029 -164 1033 -168 q 1025 -153 1025 -160 l 1025 0 l 967 0 l 1058 118 l 1140 118 q 1151 114 1147 118 q 1156 103 1156 110 l 1156 -153 q 1151 -164 1156 -160 q 1140 -168 1147 -168 l 1040 -168 m 282 -17 q 144 41 192 -17 q 97 213 97 99 l 97 665 q 113 681 97 681 l 221 681 q 236 665 236 681 l 236 229 q 258 135 236 167 q 325 104 279 104 q 408 131 365 104 q 507 211 451 157 l 507 665 q 522 681 507 681 l 632 681 q 646 665 646 681 l 646 229 q 668 135 646 167 q 736 104 690 104 q 819 131 776 104 q 918 211 863 157 l 918 665 q 933 681 918 681 l 1042 681 q 1057 665 1057 681 l 1057 171 q 1059 92 1057 132 q 1067 18 1061 51 q 1050 0 1069 0 l 951 0 q 938 11 939 0 q 931 54 935 31 q 925 103 928 78 q 811 13 865 43 q 693 -17 757 -17 q 582 15 624 -17 q 522 108 540 47 q 404 15 460 46 q 282 -17 349 -17 z "},"џ":{"ha":756,"x_min":97,"x_max":671,"o":"m 296 -168 q 285 -164 289 -168 q 281 -153 281 -160 l 281 63 l 408 64 l 408 -153 q 404 -164 408 -160 q 393 -168 400 -168 l 296 -168 m 282 -17 q 144 42 192 -17 q 97 214 97 101 l 97 665 q 113 681 97 681 l 221 681 q 236 665 236 681 l 236 229 q 258 135 236 165 q 328 104 281 104 q 427 135 378 104 q 546 238 476 167 l 546 121 q 461 47 504 78 q 374 0 418 17 q 282 -17 329 -17 m 558 0 q 540 14 542 0 q 533 68 536 40 q 529 125 531 96 l 519 189 l 519 665 q 535 681 519 681 l 643 681 q 658 665 658 681 l 658 171 q 660 92 658 132 q 668 15 663 53 q 651 0 671 0 l 558 0 z "},"ь":{"ha":713,"x_min":97,"x_max":643,"o":"m 358 -17 q 160 44 224 -17 q 97 242 97 106 l 97 665 q 113 681 97 681 l 221 681 q 236 665 236 681 l 236 224 q 269 128 236 160 q 365 97 301 97 q 465 131 429 97 q 501 224 501 164 l 501 288 q 476 365 501 339 q 400 392 450 392 q 302 362 347 392 q 221 278 257 332 l 218 399 q 319 481 265 451 q 443 510 374 510 q 591 456 539 510 q 643 296 643 403 l 643 233 q 569 47 643 110 q 358 -17 496 -17 z "},"ъ":{"ha":811,"x_min":25,"x_max":743,"o":"m 40 563 q 25 578 25 563 l 25 665 q 40 681 25 681 l 253 681 l 253 563 l 40 563 m 457 -17 q 259 44 322 -17 q 196 242 196 106 l 196 665 q 211 681 196 681 l 321 681 q 335 665 335 681 l 335 224 q 368 128 335 160 q 465 97 401 97 q 565 131 529 97 q 601 224 601 164 l 601 288 q 576 365 601 339 q 500 392 550 392 q 402 362 447 392 q 319 278 357 332 l 318 399 q 419 481 364 451 q 543 510 474 510 q 691 456 639 510 q 743 296 743 403 l 743 233 q 669 47 743 110 q 457 -17 594 -17 z "},"ы":{"ha":1014,"x_min":97,"x_max":917,"o":"m 358 -17 q 160 44 224 -17 q 97 242 97 106 l 97 665 q 113 681 97 681 l 221 681 q 236 665 236 681 l 236 224 q 269 128 236 160 q 365 97 301 97 q 465 131 429 97 q 501 224 501 164 l 501 288 q 476 365 501 339 q 400 392 450 392 q 302 362 347 392 q 221 278 257 332 l 218 399 q 319 481 265 451 q 443 510 374 510 q 591 456 539 510 q 643 296 643 403 l 643 233 q 569 47 643 110 q 358 -17 496 -17 m 793 0 q 778 15 778 0 l 778 665 q 793 681 778 681 l 901 681 q 917 665 917 681 l 917 15 q 901 0 917 0 l 793 0 z "},"љ":{"ha":1033,"x_min":0,"x_max":965,"o":"m 693 -17 q 576 0 622 -17 q 499 53 529 17 q 449 153 469 90 l 376 368 q 349 449 363 410 q 325 528 336 488 l 322 528 q 299 447 311 486 q 271 365 286 407 l 151 13 q 136 0 147 0 l 18 0 q 7 18 0 0 l 240 661 q 264 681 247 681 l 385 681 q 408 661 401 681 l 513 374 q 629 476 565 442 q 765 510 693 510 q 913 455 861 510 q 965 296 965 400 l 965 233 q 894 47 965 111 q 693 -17 822 -17 m 694 97 q 790 131 756 97 q 824 224 824 164 l 824 288 q 799 365 824 339 q 724 392 774 392 q 629 363 675 392 q 546 279 583 335 l 578 192 q 624 115 599 133 q 694 97 650 97 z "},"њ":{"ha":1138,"x_min":97,"x_max":1068,"o":"m 113 0 q 97 15 97 0 l 97 665 q 113 681 97 681 l 221 681 q 236 665 236 681 l 236 406 l 533 406 l 533 288 l 236 288 l 236 15 q 221 0 236 0 l 113 0 m 783 -17 q 585 44 647 -17 q 522 242 522 106 l 522 665 q 536 681 522 681 l 646 681 q 661 665 661 681 l 661 224 q 694 128 661 160 q 790 97 726 97 q 890 131 854 97 q 926 224 926 164 l 926 288 q 901 365 926 339 q 825 392 875 392 q 727 362 772 392 q 644 278 682 332 l 643 399 q 744 481 690 451 q 868 510 799 510 q 1016 456 964 510 q 1068 296 1068 403 l 1068 233 q 994 47 1068 110 q 783 -17 921 -17 z "},"ѕ":{"ha":649,"x_min":67,"x_max":590,"o":"m 325 -17 q 131 38 194 -17 q 69 204 67 93 q 85 218 69 218 l 192 218 q 204 204 204 218 q 233 122 204 147 q 326 96 263 96 q 420 117 389 96 q 451 178 451 138 q 433 228 451 208 q 374 265 414 247 l 215 332 q 109 403 140 363 q 78 510 78 444 q 138 650 78 603 q 318 697 197 697 q 509 647 443 697 q 575 504 575 597 q 560 490 575 490 l 453 490 q 438 513 438 490 q 408 566 438 547 q 324 585 378 585 q 243 566 269 585 q 217 510 217 547 q 232 467 217 482 q 293 432 247 453 l 451 367 q 558 294 525 336 q 590 185 590 251 q 522 35 590 88 q 325 -17 454 -17 z "},"є":{"ha":722,"x_min":79,"x_max":651,"o":"m 365 -17 q 151 48 224 -17 q 79 243 79 113 l 79 449 q 150 635 79 572 q 358 697 221 697 q 515 672 451 697 q 609 605 578 647 q 636 506 640 563 q 618 482 635 482 l 511 482 q 497 501 497 482 q 463 556 497 536 q 367 576 428 576 q 255 545 292 576 q 218 450 218 514 l 218 393 l 489 393 q 503 379 503 393 l 503 310 q 489 296 503 296 l 218 296 l 218 233 q 254 135 218 165 q 369 104 290 104 q 472 124 438 104 q 507 179 507 144 q 521 200 507 200 l 628 200 q 646 175 643 200 q 620 76 651 119 q 524 8 589 33 q 365 -17 460 -17 z "},"э":{"ha":713,"x_min":63,"x_max":633,"o":"m 347 -17 q 190 8 254 -17 q 94 76 125 33 q 67 175 63 119 q 85 200 68 200 l 192 200 q 206 179 206 200 q 240 124 206 143 q 342 104 275 104 q 458 135 422 104 q 494 233 494 165 l 494 296 l 224 296 q 210 310 210 296 l 210 379 q 224 393 210 393 l 494 393 l 494 450 q 458 545 494 514 q 347 576 422 576 q 249 556 285 576 q 214 501 214 536 q 200 482 214 482 l 93 482 q 76 506 78 482 q 103 605 71 563 q 199 672 135 647 q 356 697 263 697 q 563 635 493 697 q 633 449 633 572 l 633 243 q 562 48 633 113 q 347 -17 490 -17 z "},"і":{"ha":333,"x_min":82,"x_max":251,"o":"m 113 0 q 97 15 97 0 l 97 665 q 113 681 97 681 l 221 681 q 236 665 236 681 l 236 15 q 221 0 236 0 l 113 0 m 167 788 q 103 810 124 788 q 82 869 82 833 l 82 886 q 103 946 82 924 q 167 968 124 968 q 231 946 211 968 q 251 886 251 924 l 251 869 q 231 810 251 833 q 167 788 211 788 z "},"ї":{"ha":333,"x_min":-36,"x_max":369,"o":"m 113 0 q 97 15 97 0 l 97 665 q 113 681 97 681 l 221 681 q 236 665 236 681 l 236 15 q 221 0 236 0 l 113 0 m 43 788 q -17 809 1 788 q -36 864 -36 831 l -36 881 q -17 936 -36 915 q 43 957 1 957 q 103 936 85 957 q 122 881 122 915 l 122 864 q 103 809 122 831 q 43 788 85 788 m 289 788 q 229 809 249 788 q 210 864 210 831 l 210 881 q 229 936 210 915 q 289 957 249 957 q 350 936 331 957 q 369 881 369 915 l 369 864 q 350 809 369 831 q 289 788 331 788 z "},"ј":{"ha":333,"x_min":-22,"x_max":253,"o":"m 67 -264 q 47 -260 56 -271 l -18 -181 q -22 -169 -22 -174 q -14 -160 -21 -164 q 46 -99 21 -135 q 84 -15 71 -62 q 97 97 97 33 l 97 665 q 101 676 97 672 q 113 681 106 681 l 221 681 q 232 676 228 681 q 236 665 236 672 l 236 92 q 219 -61 236 6 q 164 -178 201 -128 q 67 -264 126 -228 m 168 788 q 104 810 125 788 q 83 869 83 833 l 83 886 q 104 946 83 924 q 168 968 125 968 q 233 946 213 968 q 253 886 253 924 l 253 869 q 233 810 253 833 q 168 788 213 788 z "},"ћ":{"ha":776,"x_min":-8,"x_max":679,"o":"m 7 767 q -8 782 -8 767 l -8 857 q 7 871 -8 871 l 375 871 q 390 857 390 871 l 390 782 q 375 767 390 767 l 99 767 l 7 767 m 556 0 q 540 15 540 0 l 540 451 q 515 545 540 515 q 436 575 489 575 q 330 543 383 575 q 217 446 276 511 l 214 561 q 298 637 257 607 q 383 682 339 667 q 476 697 426 697 q 628 640 576 697 q 679 467 679 582 l 679 15 q 664 0 679 0 l 556 0 m 114 0 q 99 15 99 0 l 99 933 q 114 949 99 949 l 224 949 q 238 933 238 949 l 238 15 q 224 0 238 0 l 114 0 z "},"ю":{"ha":1024,"x_min":97,"x_max":944,"o":"m 97 557 l 97 933 q 113 949 97 949 l 221 949 q 236 933 236 949 l 236 557 l 97 557 m 658 -17 q 447 53 521 -17 q 372 258 372 124 l 372 422 q 447 627 372 557 q 658 697 521 697 q 870 627 796 697 q 944 422 944 557 l 944 258 q 870 53 944 124 q 658 -17 796 -17 m 113 0 q 97 15 97 0 l 97 665 q 113 681 97 681 l 221 681 q 236 665 236 681 l 236 404 l 419 404 l 419 288 l 236 288 l 236 15 q 221 0 236 0 l 113 0 m 658 104 q 769 147 733 104 q 806 271 806 189 l 806 410 q 769 534 806 492 q 658 576 733 576 q 547 534 583 576 q 511 410 511 492 l 511 271 q 547 147 511 189 q 658 104 583 104 z "},"я":{"ha":711,"x_min":42,"x_max":614,"o":"m 57 0 q 45 5 49 0 q 47 18 42 10 l 142 167 q 176 218 158 192 q 211 269 193 244 l 211 271 q 110 338 144 292 q 75 461 75 385 q 104 582 75 533 q 191 656 133 631 q 332 681 249 681 l 599 681 q 614 665 614 681 l 614 15 q 599 0 614 0 l 490 0 q 475 15 475 0 l 475 251 l 347 251 l 200 10 q 181 0 194 0 l 57 0 m 351 360 l 475 360 l 475 567 l 333 567 q 238 539 264 567 q 213 461 213 511 q 247 383 213 406 q 351 360 281 360 z "},"ђ":{"ha":778,"x_min":-8,"x_max":679,"o":"m 510 -264 q 490 -260 499 -271 l 425 -181 q 422 -169 421 -174 q 429 -160 424 -164 q 490 -99 465 -135 q 528 -15 515 -64 q 540 97 540 33 l 540 451 q 515 545 540 515 q 436 575 489 575 q 340 549 388 575 q 238 469 292 524 l 238 15 q 224 0 238 0 l 114 0 q 99 15 99 0 l 99 767 l 7 767 q -8 782 -8 767 l -8 857 q 7 871 -8 871 l 99 871 l 99 933 q 114 949 99 949 l 224 949 q 238 933 238 949 l 238 871 l 378 871 q 392 857 392 871 l 392 782 q 378 767 392 767 l 238 767 l 238 586 q 353 670 296 643 q 476 697 410 697 q 628 640 576 697 q 679 467 679 582 l 679 92 q 662 -61 679 6 q 607 -178 644 -128 q 510 -264 569 -228 z "},"ӏ":{"ha":333,"x_min":97,"x_max":236,"o":"m 113 0 q 97 15 97 0 l 97 933 q 113 949 97 949 l 221 949 q 236 933 236 949 l 236 15 q 221 0 236 0 l 113 0 z "},"ӣ":{"ha":756,"x_min":97,"x_max":671,"o":"m 282 -17 q 144 42 192 -17 q 97 214 97 101 l 97 665 q 113 681 97 681 l 221 681 q 236 665 236 681 l 236 229 q 258 135 236 165 q 328 104 281 104 q 427 135 378 104 q 546 238 476 167 l 546 121 q 461 47 504 78 q 374 0 418 17 q 282 -17 329 -17 m 558 0 q 540 14 542 0 q 533 68 536 40 q 529 125 531 96 l 519 189 l 519 665 q 535 681 519 681 l 643 681 q 658 665 658 681 l 658 171 q 660 92 658 132 q 668 15 663 53 q 651 0 671 0 l 558 0 m 238 792 q 222 807 222 792 l 222 888 q 238 903 222 903 l 517 903 q 532 888 532 903 l 532 807 q 517 792 532 792 l 238 792 z "},"ӯ":{"ha":700,"x_min":24,"x_max":678,"o":"m 200 -257 q 189 -239 182 -257 l 286 7 l 31 663 q 42 681 24 681 l 160 681 q 176 668 172 681 l 290 356 q 322 265 307 313 q 350 172 336 218 l 353 172 q 383 265 367 218 q 414 356 399 311 l 528 668 q 544 681 532 681 l 658 681 q 671 663 678 681 l 325 -244 q 308 -257 319 -257 l 200 -257 m 207 792 q 192 807 192 792 l 192 888 q 207 903 192 903 l 486 903 q 501 888 501 903 l 501 807 q 486 792 501 792 l 207 792 z "},"Α":{"ha":794,"x_min":-4,"x_max":799,"o":"m 13 0 q 0 17 -4 0 l 304 897 q 321 910 308 910 l 469 910 q 488 897 483 910 l 794 17 q 782 0 799 0 l 663 0 q 644 13 649 0 l 450 613 q 422 699 436 656 q 394 786 408 743 l 392 786 q 365 701 379 743 q 338 615 351 658 l 146 13 q 128 0 142 0 l 13 0 m 183 203 l 214 321 l 574 321 l 606 203 l 183 203 z "},"Β":{"ha":806,"x_min":111,"x_max":747,"o":"m 126 0 q 111 15 111 0 l 111 894 q 126 910 111 910 l 386 910 q 628 853 547 910 q 708 683 708 797 q 672 560 708 607 q 556 483 636 513 l 556 481 q 699 406 650 463 q 747 254 747 349 q 660 62 747 124 q 386 0 574 0 l 126 0 m 251 119 l 388 119 q 556 153 506 119 q 607 264 607 186 q 556 378 607 342 q 392 414 504 414 l 251 414 l 251 119 m 251 524 l 381 524 q 523 557 478 524 q 568 661 568 590 q 522 762 568 732 q 369 792 476 792 l 251 792 l 251 524 z "},"Γ":{"ha":661,"x_min":111,"x_max":622,"o":"m 125 0 q 111 15 111 0 l 111 894 q 126 910 111 910 l 608 910 q 622 894 622 910 l 622 800 q 608 785 622 785 l 251 785 l 251 15 q 236 0 251 0 l 125 0 z "},"Δ":{"ha":779,"x_min":19,"x_max":760,"o":"m 35 0 q 19 15 19 0 l 19 85 q 20 94 19 90 q 22 103 21 99 l 296 897 q 314 910 301 910 l 464 910 q 481 897 476 910 l 757 106 q 759 97 758 101 q 760 88 760 93 l 760 15 q 744 0 760 0 l 35 0 m 172 125 l 603 125 l 433 642 q 409 714 421 678 q 386 786 397 750 l 385 786 q 362 712 374 749 q 339 639 350 675 l 172 125 z "},"Ε":{"ha":744,"x_min":111,"x_max":651,"o":"m 126 0 q 111 15 111 0 l 111 894 q 126 910 111 910 l 638 910 q 651 894 651 910 l 651 800 q 638 785 651 785 l 251 785 l 251 521 l 604 521 q 618 507 618 521 l 618 417 q 604 401 618 401 l 251 401 l 251 125 l 638 125 q 651 110 651 125 l 651 15 q 638 0 651 0 l 126 0 z "}}}
